  0
SECTION
  2
HEADER
  9
$ACADVER
  1
AC1009
  9
$EXTMIN
 10
0.0
 20
0.0
 30
0.0
  9
$EXTMAX
 10
1000.0
 20
1000.0
 30
0.0
  9
$FILLMODE
 70
 0
  9
$SPLFRAME
 70
 1
  0
ENDSEC
  0
SECTION
  2
TABLES
  0
TABLE
  2
LAYER
 70
1
  0
LAYER
  2
0
 70
     0
 62
     7
  6
CONTINUOUS
  0
ENDTAB
  0
ENDSEC
  0
SECTION
  2
ENTITIES
  0
LINE
  8
0
 62
     0
 10
275.945
 20
50.3671
 30
0.0
 11
272.444
 21
50.3686
 31
0.0
  0
LINE
  8
0
 62
     0
 10
272.444
 20
50.3686
 30
0.0
 11
271.671
 21
50.2447
 31
0.0
  0
LINE
  8
0
 62
     0
 10
271.671
 20
50.2447
 30
0.0
 11
270.975
 21
49.8905
 31
0.0
  0
LINE
  8
0
 62
     0
 10
270.975
 20
49.8905
 30
0.0
 11
270.422
 21
49.3367
 31
0.0
  0
LINE
  8
0
 62
     0
 10
270.422
 20
49.3367
 30
0.0
 11
270.068
 21
48.6406
 31
0.0
  0
LINE
  8
0
 62
     0
 10
270.068
 20
48.6406
 30
0.0
 11
269.945
 21
47.8688
 31
0.0
  0
LINE
  8
0
 62
     0
 10
269.945
 20
47.8688
 30
0.0
 11
270.068
 21
47.0958
 31
0.0
  0
LINE
  8
0
 62
     0
 10
270.068
 20
47.0958
 30
0.0
 11
270.422
 21
46.3984
 31
0.0
  0
LINE
  8
0
 62
     0
 10
270.422
 20
46.3984
 30
0.0
 11
270.975
 21
45.8459
 31
0.0
  0
LINE
  8
0
 62
     0
 10
270.975
 20
45.8459
 30
0.0
 11
271.671
 21
45.4918
 31
0.0
  0
LINE
  8
0
 62
     0
 10
271.671
 20
45.4918
 30
0.0
 11
272.444
 21
45.3679
 31
0.0
  0
LINE
  8
0
 62
     0
 10
272.444
 20
45.3679
 30
0.0
 11
275.945
 21
45.3679
 31
0.0
  0
LINE
  8
0
 62
     0
 10
275.945
 20
45.3679
 30
0.0
 11
275.945
 21
0.0799264
 31
0.0
  0
LINE
  8
0
 62
     0
 10
275.945
 20
0.0799264
 30
0.0
 11
0.0950846
 21
0.0799264
 31
0.0
  0
LINE
  8
0
 62
     0
 10
0.0950846
 20
0.0799264
 30
0.0
 11
0.0950846
 21
45.3679
 31
0.0
  0
LINE
  8
0
 62
     0
 10
0.0950846
 20
45.3679
 30
0.0
 11
3.5953
 21
45.3679
 31
0.0
  0
LINE
  8
0
 62
     0
 10
3.5953
 20
45.3679
 30
0.0
 11
4.36838
 21
45.4918
 31
0.0
  0
LINE
  8
0
 62
     0
 10
4.36838
 20
45.4918
 30
0.0
 11
5.0643
 21
45.8459
 31
0.0
  0
LINE
  8
0
 62
     0
 10
5.0643
 20
45.8459
 30
0.0
 11
5.61689
 21
46.3984
 31
0.0
  0
LINE
  8
0
 62
     0
 10
5.61689
 20
46.3984
 30
0.0
 11
5.97242
 21
47.0958
 31
0.0
  0
LINE
  8
0
 62
     0
 10
5.97242
 20
47.0958
 30
0.0
 11
6.09505
 21
47.8677
 31
0.0
  0
LINE
  8
0
 62
     0
 10
6.09505
 20
47.8677
 30
0.0
 11
5.97242
 21
48.6406
 31
0.0
  0
LINE
  8
0
 62
     0
 10
5.97242
 20
48.6406
 30
0.0
 11
5.61689
 21
49.3367
 31
0.0
  0
LINE
  8
0
 62
     0
 10
5.61689
 20
49.3367
 30
0.0
 11
5.0643
 21
49.8905
 31
0.0
  0
LINE
  8
0
 62
     0
 10
5.0643
 20
49.8905
 30
0.0
 11
4.36838
 21
50.2447
 31
0.0
  0
LINE
  8
0
 62
     0
 10
4.36838
 20
50.2447
 30
0.0
 11
3.59668
 21
50.3671
 31
0.0
  0
LINE
  8
0
 62
     0
 10
3.59668
 20
50.3671
 30
0.0
 11
0.0950846
 21
50.3686
 31
0.0
  0
LINE
  8
0
 62
     0
 10
0.0950846
 20
50.3686
 30
0.0
 11
0.0950846
 21
114.056
 31
0.0
  0
LINE
  8
0
 62
     0
 10
0.0950846
 20
114.056
 30
0.0
 11
275.945
 21
114.056
 31
0.0
  0
LINE
  8
0
 62
     0
 10
275.945
 20
114.056
 30
0.0
 11
275.945
 21
50.3671
 31
0.0
  0
LINE
  8
0
 62
     0
 10
97.6824
 20
16.4441
 30
0.0
 11
97.6824
 21
15.4437
 31
0.0
  0
LINE
  8
0
 62
     0
 10
97.6824
 20
15.4437
 30
0.0
 11
96.8816
 21
15.4437
 31
0.0
  0
LINE
  8
0
 62
     0
 10
96.8816
 20
15.4437
 30
0.0
 11
96.8816
 21
12.3431
 31
0.0
  0
LINE
  8
0
 62
     0
 10
96.8816
 20
12.3431
 30
0.0
 11
97.6824
 21
12.3431
 31
0.0
  0
LINE
  8
0
 62
     0
 10
97.6824
 20
12.3431
 30
0.0
 11
97.6824
 21
11.7437
 31
0.0
  0
LINE
  8
0
 62
     0
 10
97.6824
 20
11.7437
 30
0.0
 11
89.0076
 21
11.7437
 31
0.0
  0
LINE
  8
0
 62
     0
 10
89.0076
 20
11.7437
 30
0.0
 11
89.0076
 21
14.9738
 31
0.0
  0
LINE
  8
0
 62
     0
 10
89.0076
 20
14.9738
 30
0.0
 11
87.2822
 21
14.9738
 31
0.0
  0
LINE
  8
0
 62
     0
 10
87.2822
 20
14.9738
 30
0.0
 11
87.2822
 21
15.8929
 31
0.0
  0
LINE
  8
0
 62
     0
 10
87.2822
 20
15.8929
 30
0.0
 11
83.9819
 21
15.8929
 31
0.0
  0
LINE
  8
0
 62
     0
 10
83.9819
 20
15.8929
 30
0.0
 11
83.9819
 21
14.9738
 31
0.0
  0
LINE
  8
0
 62
     0
 10
83.9819
 20
14.9738
 30
0.0
 11
82.2579
 21
14.9738
 31
0.0
  0
LINE
  8
0
 62
     0
 10
82.2579
 20
14.9738
 30
0.0
 11
82.2579
 21
11.7437
 31
0.0
  0
LINE
  8
0
 62
     0
 10
82.2579
 20
11.7437
 30
0.0
 11
81.4324
 21
11.7437
 31
0.0
  0
LINE
  8
0
 62
     0
 10
81.4324
 20
11.7437
 30
0.0
 11
81.4324
 21
8.94486
 31
0.0
  0
LINE
  8
0
 62
     0
 10
81.4324
 20
8.94486
 30
0.0
 11
82.2579
 21
8.94486
 31
0.0
  0
LINE
  8
0
 62
     0
 10
82.2579
 20
8.94486
 30
0.0
 11
82.2579
 21
2.6734
 31
0.0
  0
LINE
  8
0
 62
     0
 10
82.2579
 20
2.6734
 30
0.0
 11
83.9819
 21
2.6734
 31
0.0
  0
LINE
  8
0
 62
     0
 10
83.9819
 20
2.6734
 30
0.0
 11
83.9819
 21
1.69361
 31
0.0
  0
LINE
  8
0
 62
     0
 10
83.9819
 20
1.69361
 30
0.0
 11
87.2822
 21
1.69361
 31
0.0
  0
LINE
  8
0
 62
     0
 10
87.2822
 20
1.69361
 30
0.0
 11
87.2822
 21
2.6734
 31
0.0
  0
LINE
  8
0
 62
     0
 10
87.2822
 20
2.6734
 30
0.0
 11
89.0076
 21
2.6734
 31
0.0
  0
LINE
  8
0
 62
     0
 10
89.0076
 20
2.6734
 30
0.0
 11
89.0076
 21
7.14375
 31
0.0
  0
LINE
  8
0
 62
     0
 10
89.0076
 20
7.14375
 30
0.0
 11
97.6824
 21
7.14375
 31
0.0
  0
LINE
  8
0
 62
     0
 10
97.6824
 20
7.14375
 30
0.0
 11
97.6824
 21
6.54431
 31
0.0
  0
LINE
  8
0
 62
     0
 10
97.6824
 20
6.54431
 30
0.0
 11
96.8816
 21
6.54431
 31
0.0
  0
LINE
  8
0
 62
     0
 10
96.8816
 20
6.54431
 30
0.0
 11
96.8816
 21
3.44372
 31
0.0
  0
LINE
  8
0
 62
     0
 10
96.8816
 20
3.44372
 30
0.0
 11
97.6824
 21
3.44372
 31
0.0
  0
LINE
  8
0
 62
     0
 10
97.6824
 20
3.44372
 30
0.0
 11
97.6824
 21
2.44464
 31
0.0
  0
LINE
  8
0
 62
     0
 10
97.6824
 20
2.44464
 30
0.0
 11
111.682
 21
2.44464
 31
0.0
  0
LINE
  8
0
 62
     0
 10
111.682
 20
2.44464
 30
0.0
 11
111.682
 21
3.44372
 31
0.0
  0
LINE
  8
0
 62
     0
 10
111.682
 20
3.44372
 30
0.0
 11
112.482
 21
3.44372
 31
0.0
  0
LINE
  8
0
 62
     0
 10
112.482
 20
3.44372
 30
0.0
 11
112.482
 21
6.54431
 31
0.0
  0
LINE
  8
0
 62
     0
 10
112.482
 20
6.54431
 30
0.0
 11
111.682
 21
6.54431
 31
0.0
  0
LINE
  8
0
 62
     0
 10
111.682
 20
6.54431
 30
0.0
 11
111.682
 21
7.14375
 31
0.0
  0
LINE
  8
0
 62
     0
 10
111.682
 20
7.14375
 30
0.0
 11
120.358
 21
7.14375
 31
0.0
  0
LINE
  8
0
 62
     0
 10
120.358
 20
7.14375
 30
0.0
 11
120.358
 21
2.6734
 31
0.0
  0
LINE
  8
0
 62
     0
 10
120.358
 20
2.6734
 30
0.0
 11
122.082
 21
2.6734
 31
0.0
  0
LINE
  8
0
 62
     0
 10
122.082
 20
2.6734
 30
0.0
 11
122.082
 21
1.69361
 31
0.0
  0
LINE
  8
0
 62
     0
 10
122.082
 20
1.69361
 30
0.0
 11
125.382
 21
1.69361
 31
0.0
  0
LINE
  8
0
 62
     0
 10
125.382
 20
1.69361
 30
0.0
 11
125.382
 21
2.6734
 31
0.0
  0
LINE
  8
0
 62
     0
 10
125.382
 20
2.6734
 30
0.0
 11
127.108
 21
2.6734
 31
0.0
  0
LINE
  8
0
 62
     0
 10
127.108
 20
2.6734
 30
0.0
 11
127.108
 21
8.94486
 31
0.0
  0
LINE
  8
0
 62
     0
 10
127.108
 20
8.94486
 30
0.0
 11
127.932
 21
8.94486
 31
0.0
  0
LINE
  8
0
 62
     0
 10
127.932
 20
8.94486
 30
0.0
 11
127.932
 21
11.7437
 31
0.0
  0
LINE
  8
0
 62
     0
 10
127.932
 20
11.7437
 30
0.0
 11
127.108
 21
11.7437
 31
0.0
  0
LINE
  8
0
 62
     0
 10
127.108
 20
11.7437
 30
0.0
 11
127.108
 21
14.9738
 31
0.0
  0
LINE
  8
0
 62
     0
 10
127.108
 20
14.9738
 30
0.0
 11
125.382
 21
14.9738
 31
0.0
  0
LINE
  8
0
 62
     0
 10
125.382
 20
14.9738
 30
0.0
 11
125.382
 21
15.8929
 31
0.0
  0
LINE
  8
0
 62
     0
 10
125.382
 20
15.8929
 30
0.0
 11
122.082
 21
15.8929
 31
0.0
  0
LINE
  8
0
 62
     0
 10
122.082
 20
15.8929
 30
0.0
 11
122.082
 21
14.9738
 31
0.0
  0
LINE
  8
0
 62
     0
 10
122.082
 20
14.9738
 30
0.0
 11
120.358
 21
14.9738
 31
0.0
  0
LINE
  8
0
 62
     0
 10
120.358
 20
14.9738
 30
0.0
 11
120.358
 21
11.7437
 31
0.0
  0
LINE
  8
0
 62
     0
 10
120.358
 20
11.7437
 30
0.0
 11
111.682
 21
11.7437
 31
0.0
  0
LINE
  8
0
 62
     0
 10
111.682
 20
11.7437
 30
0.0
 11
111.682
 21
12.3431
 31
0.0
  0
LINE
  8
0
 62
     0
 10
111.682
 20
12.3431
 30
0.0
 11
112.482
 21
12.3431
 31
0.0
  0
LINE
  8
0
 62
     0
 10
112.482
 20
12.3431
 30
0.0
 11
112.482
 21
15.4437
 31
0.0
  0
LINE
  8
0
 62
     0
 10
112.482
 20
15.4437
 30
0.0
 11
111.682
 21
15.4437
 31
0.0
  0
LINE
  8
0
 62
     0
 10
111.682
 20
15.4437
 30
0.0
 11
111.682
 21
16.4441
 31
0.0
  0
LINE
  8
0
 62
     0
 10
111.682
 20
16.4441
 30
0.0
 11
97.6824
 21
16.4441
 31
0.0
  0
LINE
  8
0
 62
     0
 10
154.831
 20
16.4441
 30
0.0
 11
154.831
 21
15.4437
 31
0.0
  0
LINE
  8
0
 62
     0
 10
154.831
 20
15.4437
 30
0.0
 11
154.032
 21
15.4437
 31
0.0
  0
LINE
  8
0
 62
     0
 10
154.032
 20
15.4437
 30
0.0
 11
154.032
 21
12.3431
 31
0.0
  0
LINE
  8
0
 62
     0
 10
154.032
 20
12.3431
 30
0.0
 11
154.831
 21
12.3431
 31
0.0
  0
LINE
  8
0
 62
     0
 10
154.831
 20
12.3431
 30
0.0
 11
154.831
 21
11.7437
 31
0.0
  0
LINE
  8
0
 62
     0
 10
154.831
 20
11.7437
 30
0.0
 11
146.158
 21
11.7437
 31
0.0
  0
LINE
  8
0
 62
     0
 10
146.158
 20
11.7437
 30
0.0
 11
146.158
 21
14.9738
 31
0.0
  0
LINE
  8
0
 62
     0
 10
146.158
 20
14.9738
 30
0.0
 11
144.431
 21
14.9738
 31
0.0
  0
LINE
  8
0
 62
     0
 10
144.431
 20
14.9738
 30
0.0
 11
144.431
 21
15.8929
 31
0.0
  0
LINE
  8
0
 62
     0
 10
144.431
 20
15.8929
 30
0.0
 11
141.132
 21
15.8929
 31
0.0
  0
LINE
  8
0
 62
     0
 10
141.132
 20
15.8929
 30
0.0
 11
141.132
 21
14.9738
 31
0.0
  0
LINE
  8
0
 62
     0
 10
141.132
 20
14.9738
 30
0.0
 11
139.408
 21
14.9738
 31
0.0
  0
LINE
  8
0
 62
     0
 10
139.408
 20
14.9738
 30
0.0
 11
139.408
 21
11.7437
 31
0.0
  0
LINE
  8
0
 62
     0
 10
139.408
 20
11.7437
 30
0.0
 11
138.581
 21
11.7437
 31
0.0
  0
LINE
  8
0
 62
     0
 10
138.581
 20
11.7437
 30
0.0
 11
138.581
 21
8.94486
 31
0.0
  0
LINE
  8
0
 62
     0
 10
138.581
 20
8.94486
 30
0.0
 11
139.408
 21
8.94486
 31
0.0
  0
LINE
  8
0
 62
     0
 10
139.408
 20
8.94486
 30
0.0
 11
139.408
 21
2.6734
 31
0.0
  0
LINE
  8
0
 62
     0
 10
139.408
 20
2.6734
 30
0.0
 11
141.132
 21
2.6734
 31
0.0
  0
LINE
  8
0
 62
     0
 10
141.132
 20
2.6734
 30
0.0
 11
141.132
 21
1.69361
 31
0.0
  0
LINE
  8
0
 62
     0
 10
141.132
 20
1.69361
 30
0.0
 11
144.431
 21
1.69361
 31
0.0
  0
LINE
  8
0
 62
     0
 10
144.431
 20
1.69361
 30
0.0
 11
144.431
 21
2.6734
 31
0.0
  0
LINE
  8
0
 62
     0
 10
144.431
 20
2.6734
 30
0.0
 11
146.158
 21
2.6734
 31
0.0
  0
LINE
  8
0
 62
     0
 10
146.158
 20
2.6734
 30
0.0
 11
146.158
 21
7.14375
 31
0.0
  0
LINE
  8
0
 62
     0
 10
146.158
 20
7.14375
 30
0.0
 11
154.831
 21
7.14375
 31
0.0
  0
LINE
  8
0
 62
     0
 10
154.831
 20
7.14375
 30
0.0
 11
154.831
 21
6.54431
 31
0.0
  0
LINE
  8
0
 62
     0
 10
154.831
 20
6.54431
 30
0.0
 11
154.032
 21
6.54431
 31
0.0
  0
LINE
  8
0
 62
     0
 10
154.032
 20
6.54431
 30
0.0
 11
154.032
 21
3.44372
 31
0.0
  0
LINE
  8
0
 62
     0
 10
154.032
 20
3.44372
 30
0.0
 11
154.831
 21
3.44372
 31
0.0
  0
LINE
  8
0
 62
     0
 10
154.831
 20
3.44372
 30
0.0
 11
154.831
 21
2.44464
 31
0.0
  0
LINE
  8
0
 62
     0
 10
154.831
 20
2.44464
 30
0.0
 11
168.832
 21
2.44464
 31
0.0
  0
LINE
  8
0
 62
     0
 10
168.832
 20
2.44464
 30
0.0
 11
168.832
 21
3.44372
 31
0.0
  0
LINE
  8
0
 62
     0
 10
168.832
 20
3.44372
 30
0.0
 11
169.632
 21
3.44372
 31
0.0
  0
LINE
  8
0
 62
     0
 10
169.632
 20
3.44372
 30
0.0
 11
169.632
 21
6.54431
 31
0.0
  0
LINE
  8
0
 62
     0
 10
169.632
 20
6.54431
 30
0.0
 11
168.832
 21
6.54431
 31
0.0
  0
LINE
  8
0
 62
     0
 10
168.832
 20
6.54431
 30
0.0
 11
168.832
 21
7.14375
 31
0.0
  0
LINE
  8
0
 62
     0
 10
168.832
 20
7.14375
 30
0.0
 11
177.508
 21
7.14375
 31
0.0
  0
LINE
  8
0
 62
     0
 10
177.508
 20
7.14375
 30
0.0
 11
177.508
 21
2.6734
 31
0.0
  0
LINE
  8
0
 62
     0
 10
177.508
 20
2.6734
 30
0.0
 11
179.232
 21
2.6734
 31
0.0
  0
LINE
  8
0
 62
     0
 10
179.232
 20
2.6734
 30
0.0
 11
179.232
 21
1.69361
 31
0.0
  0
LINE
  8
0
 62
     0
 10
179.232
 20
1.69361
 30
0.0
 11
182.532
 21
1.69361
 31
0.0
  0
LINE
  8
0
 62
     0
 10
182.532
 20
1.69361
 30
0.0
 11
182.532
 21
2.6734
 31
0.0
  0
LINE
  8
0
 62
     0
 10
182.532
 20
2.6734
 30
0.0
 11
184.258
 21
2.6734
 31
0.0
  0
LINE
  8
0
 62
     0
 10
184.258
 20
2.6734
 30
0.0
 11
184.258
 21
8.94486
 31
0.0
  0
LINE
  8
0
 62
     0
 10
184.258
 20
8.94486
 30
0.0
 11
185.082
 21
8.94486
 31
0.0
  0
LINE
  8
0
 62
     0
 10
185.082
 20
8.94486
 30
0.0
 11
185.082
 21
11.7437
 31
0.0
  0
LINE
  8
0
 62
     0
 10
185.082
 20
11.7437
 30
0.0
 11
184.258
 21
11.7437
 31
0.0
  0
LINE
  8
0
 62
     0
 10
184.258
 20
11.7437
 30
0.0
 11
184.258
 21
14.9738
 31
0.0
  0
LINE
  8
0
 62
     0
 10
184.258
 20
14.9738
 30
0.0
 11
182.532
 21
14.9738
 31
0.0
  0
LINE
  8
0
 62
     0
 10
182.532
 20
14.9738
 30
0.0
 11
182.532
 21
15.8929
 31
0.0
  0
LINE
  8
0
 62
     0
 10
182.532
 20
15.8929
 30
0.0
 11
179.232
 21
15.8929
 31
0.0
  0
LINE
  8
0
 62
     0
 10
179.232
 20
15.8929
 30
0.0
 11
179.232
 21
14.9738
 31
0.0
  0
LINE
  8
0
 62
     0
 10
179.232
 20
14.9738
 30
0.0
 11
177.508
 21
14.9738
 31
0.0
  0
LINE
  8
0
 62
     0
 10
177.508
 20
14.9738
 30
0.0
 11
177.508
 21
11.7437
 31
0.0
  0
LINE
  8
0
 62
     0
 10
177.508
 20
11.7437
 30
0.0
 11
168.832
 21
11.7437
 31
0.0
  0
LINE
  8
0
 62
     0
 10
168.832
 20
11.7437
 30
0.0
 11
168.832
 21
12.3431
 31
0.0
  0
LINE
  8
0
 62
     0
 10
168.832
 20
12.3431
 30
0.0
 11
169.632
 21
12.3431
 31
0.0
  0
LINE
  8
0
 62
     0
 10
169.632
 20
12.3431
 30
0.0
 11
169.632
 21
15.4437
 31
0.0
  0
LINE
  8
0
 62
     0
 10
169.632
 20
15.4437
 30
0.0
 11
168.832
 21
15.4437
 31
0.0
  0
LINE
  8
0
 62
     0
 10
168.832
 20
15.4437
 30
0.0
 11
168.832
 21
16.4441
 31
0.0
  0
LINE
  8
0
 62
     0
 10
168.832
 20
16.4441
 30
0.0
 11
154.831
 21
16.4441
 31
0.0
  0
LINE
  8
0
 62
     0
 10
9.57598
 20
16.4441
 30
0.0
 11
9.57598
 21
15.4437
 31
0.0
  0
LINE
  8
0
 62
     0
 10
9.57598
 20
15.4437
 30
0.0
 11
8.77672
 21
15.4437
 31
0.0
  0
LINE
  8
0
 62
     0
 10
8.77672
 20
15.4437
 30
0.0
 11
8.77672
 21
12.3431
 31
0.0
  0
LINE
  8
0
 62
     0
 10
8.77672
 20
12.3431
 30
0.0
 11
9.57598
 21
12.3431
 31
0.0
  0
LINE
  8
0
 62
     0
 10
9.57598
 20
12.3431
 30
0.0
 11
9.57598
 21
6.54431
 31
0.0
  0
LINE
  8
0
 62
     0
 10
9.57598
 20
6.54431
 30
0.0
 11
8.77672
 21
6.54431
 31
0.0
  0
LINE
  8
0
 62
     0
 10
8.77672
 20
6.54431
 30
0.0
 11
8.77672
 21
3.44372
 31
0.0
  0
LINE
  8
0
 62
     0
 10
8.77672
 20
3.44372
 30
0.0
 11
9.57598
 21
3.44372
 31
0.0
  0
LINE
  8
0
 62
     0
 10
9.57598
 20
3.44372
 30
0.0
 11
9.57598
 21
2.44464
 31
0.0
  0
LINE
  8
0
 62
     0
 10
9.57598
 20
2.44464
 30
0.0
 11
23.5768
 21
2.44464
 31
0.0
  0
LINE
  8
0
 62
     0
 10
23.5768
 20
2.44464
 30
0.0
 11
23.5768
 21
3.44372
 31
0.0
  0
LINE
  8
0
 62
     0
 10
23.5768
 20
3.44372
 30
0.0
 11
24.3761
 21
3.44372
 31
0.0
  0
LINE
  8
0
 62
     0
 10
24.3761
 20
3.44372
 30
0.0
 11
24.3761
 21
6.54431
 31
0.0
  0
LINE
  8
0
 62
     0
 10
24.3761
 20
6.54431
 30
0.0
 11
23.5768
 21
6.54431
 31
0.0
  0
LINE
  8
0
 62
     0
 10
23.5768
 20
6.54431
 30
0.0
 11
23.5768
 21
12.3431
 31
0.0
  0
LINE
  8
0
 62
     0
 10
23.5768
 20
12.3431
 30
0.0
 11
24.3761
 21
12.3431
 31
0.0
  0
LINE
  8
0
 62
     0
 10
24.3761
 20
12.3431
 30
0.0
 11
24.3761
 21
15.4437
 31
0.0
  0
LINE
  8
0
 62
     0
 10
24.3761
 20
15.4437
 30
0.0
 11
23.5768
 21
15.4437
 31
0.0
  0
LINE
  8
0
 62
     0
 10
23.5768
 20
15.4437
 30
0.0
 11
23.5768
 21
16.4441
 31
0.0
  0
LINE
  8
0
 62
     0
 10
23.5768
 20
16.4441
 30
0.0
 11
9.57598
 21
16.4441
 31
0.0
  0
LINE
  8
0
 62
     0
 10
33.3871
 20
16.4441
 30
0.0
 11
33.3871
 21
15.4437
 31
0.0
  0
LINE
  8
0
 62
     0
 10
33.3871
 20
15.4437
 30
0.0
 11
32.5878
 21
15.4437
 31
0.0
  0
LINE
  8
0
 62
     0
 10
32.5878
 20
15.4437
 30
0.0
 11
32.5878
 21
12.3431
 31
0.0
  0
LINE
  8
0
 62
     0
 10
32.5878
 20
12.3431
 30
0.0
 11
33.3871
 21
12.3431
 31
0.0
  0
LINE
  8
0
 62
     0
 10
33.3871
 20
12.3431
 30
0.0
 11
33.3871
 21
6.54431
 31
0.0
  0
LINE
  8
0
 62
     0
 10
33.3871
 20
6.54431
 30
0.0
 11
32.5878
 21
6.54431
 31
0.0
  0
LINE
  8
0
 62
     0
 10
32.5878
 20
6.54431
 30
0.0
 11
32.5878
 21
3.44372
 31
0.0
  0
LINE
  8
0
 62
     0
 10
32.5878
 20
3.44372
 30
0.0
 11
33.3871
 21
3.44372
 31
0.0
  0
LINE
  8
0
 62
     0
 10
33.3871
 20
3.44372
 30
0.0
 11
33.3871
 21
2.44464
 31
0.0
  0
LINE
  8
0
 62
     0
 10
33.3871
 20
2.44464
 30
0.0
 11
47.3865
 21
2.44464
 31
0.0
  0
LINE
  8
0
 62
     0
 10
47.3865
 20
2.44464
 30
0.0
 11
47.3865
 21
3.44372
 31
0.0
  0
LINE
  8
0
 62
     0
 10
47.3865
 20
3.44372
 30
0.0
 11
48.1887
 21
3.44372
 31
0.0
  0
LINE
  8
0
 62
     0
 10
48.1887
 20
3.44372
 30
0.0
 11
48.1887
 21
6.54431
 31
0.0
  0
LINE
  8
0
 62
     0
 10
48.1887
 20
6.54431
 30
0.0
 11
47.3865
 21
6.54431
 31
0.0
  0
LINE
  8
0
 62
     0
 10
47.3865
 20
6.54431
 30
0.0
 11
47.3865
 21
12.3431
 31
0.0
  0
LINE
  8
0
 62
     0
 10
47.3865
 20
12.3431
 30
0.0
 11
48.1887
 21
12.3431
 31
0.0
  0
LINE
  8
0
 62
     0
 10
48.1887
 20
12.3431
 30
0.0
 11
48.1887
 21
15.4437
 31
0.0
  0
LINE
  8
0
 62
     0
 10
48.1887
 20
15.4437
 30
0.0
 11
47.3865
 21
15.4437
 31
0.0
  0
LINE
  8
0
 62
     0
 10
47.3865
 20
15.4437
 30
0.0
 11
47.3865
 21
16.4441
 31
0.0
  0
LINE
  8
0
 62
     0
 10
47.3865
 20
16.4441
 30
0.0
 11
33.3871
 21
16.4441
 31
0.0
  0
LINE
  8
0
 62
     0
 10
57.1997
 20
16.4441
 30
0.0
 11
57.1997
 21
15.4437
 31
0.0
  0
LINE
  8
0
 62
     0
 10
57.1997
 20
15.4437
 30
0.0
 11
56.4018
 21
15.4437
 31
0.0
  0
LINE
  8
0
 62
     0
 10
56.4018
 20
15.4437
 30
0.0
 11
56.4018
 21
12.3431
 31
0.0
  0
LINE
  8
0
 62
     0
 10
56.4018
 20
12.3431
 30
0.0
 11
57.1997
 21
12.3431
 31
0.0
  0
LINE
  8
0
 62
     0
 10
57.1997
 20
12.3431
 30
0.0
 11
57.1997
 21
6.54431
 31
0.0
  0
LINE
  8
0
 62
     0
 10
57.1997
 20
6.54431
 30
0.0
 11
56.4018
 21
6.54431
 31
0.0
  0
LINE
  8
0
 62
     0
 10
56.4018
 20
6.54431
 30
0.0
 11
56.4018
 21
3.44372
 31
0.0
  0
LINE
  8
0
 62
     0
 10
56.4018
 20
3.44372
 30
0.0
 11
57.1997
 21
3.44372
 31
0.0
  0
LINE
  8
0
 62
     0
 10
57.1997
 20
3.44372
 30
0.0
 11
57.1997
 21
2.44464
 31
0.0
  0
LINE
  8
0
 62
     0
 10
57.1997
 20
2.44464
 30
0.0
 11
71.2004
 21
2.44464
 31
0.0
  0
LINE
  8
0
 62
     0
 10
71.2004
 20
2.44464
 30
0.0
 11
71.2004
 21
3.44372
 31
0.0
  0
LINE
  8
0
 62
     0
 10
71.2004
 20
3.44372
 30
0.0
 11
72.0012
 21
3.44372
 31
0.0
  0
LINE
  8
0
 62
     0
 10
72.0012
 20
3.44372
 30
0.0
 11
72.0012
 21
6.54431
 31
0.0
  0
LINE
  8
0
 62
     0
 10
72.0012
 20
6.54431
 30
0.0
 11
71.2004
 21
6.54431
 31
0.0
  0
LINE
  8
0
 62
     0
 10
71.2004
 20
6.54431
 30
0.0
 11
71.2004
 21
12.3431
 31
0.0
  0
LINE
  8
0
 62
     0
 10
71.2004
 20
12.3431
 30
0.0
 11
72.0012
 21
12.3431
 31
0.0
  0
LINE
  8
0
 62
     0
 10
72.0012
 20
12.3431
 30
0.0
 11
72.0012
 21
15.4437
 31
0.0
  0
LINE
  8
0
 62
     0
 10
72.0012
 20
15.4437
 30
0.0
 11
71.2004
 21
15.4437
 31
0.0
  0
LINE
  8
0
 62
     0
 10
71.2004
 20
15.4437
 30
0.0
 11
71.2004
 21
16.4441
 31
0.0
  0
LINE
  8
0
 62
     0
 10
71.2004
 20
16.4441
 30
0.0
 11
57.1997
 21
16.4441
 31
0.0
  0
LINE
  8
0
 62
     0
 10
195.312
 20
16.4441
 30
0.0
 11
195.312
 21
15.4437
 31
0.0
  0
LINE
  8
0
 62
     0
 10
195.312
 20
15.4437
 30
0.0
 11
194.513
 21
15.4437
 31
0.0
  0
LINE
  8
0
 62
     0
 10
194.513
 20
15.4437
 30
0.0
 11
194.513
 21
12.3431
 31
0.0
  0
LINE
  8
0
 62
     0
 10
194.513
 20
12.3431
 30
0.0
 11
195.312
 21
12.3431
 31
0.0
  0
LINE
  8
0
 62
     0
 10
195.312
 20
12.3431
 30
0.0
 11
195.312
 21
6.54431
 31
0.0
  0
LINE
  8
0
 62
     0
 10
195.312
 20
6.54431
 30
0.0
 11
194.513
 21
6.54431
 31
0.0
  0
LINE
  8
0
 62
     0
 10
194.513
 20
6.54431
 30
0.0
 11
194.513
 21
3.44372
 31
0.0
  0
LINE
  8
0
 62
     0
 10
194.513
 20
3.44372
 30
0.0
 11
195.312
 21
3.44372
 31
0.0
  0
LINE
  8
0
 62
     0
 10
195.312
 20
3.44372
 30
0.0
 11
195.312
 21
2.44464
 31
0.0
  0
LINE
  8
0
 62
     0
 10
195.312
 20
2.44464
 30
0.0
 11
209.312
 21
2.44464
 31
0.0
  0
LINE
  8
0
 62
     0
 10
209.312
 20
2.44464
 30
0.0
 11
209.312
 21
3.44372
 31
0.0
  0
LINE
  8
0
 62
     0
 10
209.312
 20
3.44372
 30
0.0
 11
210.114
 21
3.44372
 31
0.0
  0
LINE
  8
0
 62
     0
 10
210.114
 20
3.44372
 30
0.0
 11
210.114
 21
6.54431
 31
0.0
  0
LINE
  8
0
 62
     0
 10
210.114
 20
6.54431
 30
0.0
 11
209.312
 21
6.54431
 31
0.0
  0
LINE
  8
0
 62
     0
 10
209.312
 20
6.54431
 30
0.0
 11
209.312
 21
12.3431
 31
0.0
  0
LINE
  8
0
 62
     0
 10
209.312
 20
12.3431
 30
0.0
 11
210.114
 21
12.3431
 31
0.0
  0
LINE
  8
0
 62
     0
 10
210.114
 20
12.3431
 30
0.0
 11
210.114
 21
15.4437
 31
0.0
  0
LINE
  8
0
 62
     0
 10
210.114
 20
15.4437
 30
0.0
 11
209.312
 21
15.4437
 31
0.0
  0
LINE
  8
0
 62
     0
 10
209.312
 20
15.4437
 30
0.0
 11
209.312
 21
16.4441
 31
0.0
  0
LINE
  8
0
 62
     0
 10
209.312
 20
16.4441
 30
0.0
 11
195.312
 21
16.4441
 31
0.0
  0
LINE
  8
0
 62
     0
 10
216.745
 20
16.4441
 30
0.0
 11
216.745
 21
15.4437
 31
0.0
  0
LINE
  8
0
 62
     0
 10
216.745
 20
15.4437
 30
0.0
 11
215.944
 21
15.4437
 31
0.0
  0
LINE
  8
0
 62
     0
 10
215.944
 20
15.4437
 30
0.0
 11
215.944
 21
12.3431
 31
0.0
  0
LINE
  8
0
 62
     0
 10
215.944
 20
12.3431
 30
0.0
 11
216.745
 21
12.3431
 31
0.0
  0
LINE
  8
0
 62
     0
 10
216.745
 20
12.3431
 30
0.0
 11
216.745
 21
6.54431
 31
0.0
  0
LINE
  8
0
 62
     0
 10
216.745
 20
6.54431
 30
0.0
 11
215.944
 21
6.54431
 31
0.0
  0
LINE
  8
0
 62
     0
 10
215.944
 20
6.54431
 30
0.0
 11
215.944
 21
3.44372
 31
0.0
  0
LINE
  8
0
 62
     0
 10
215.944
 20
3.44372
 30
0.0
 11
216.745
 21
3.44372
 31
0.0
  0
LINE
  8
0
 62
     0
 10
216.745
 20
3.44372
 30
0.0
 11
216.745
 21
2.44464
 31
0.0
  0
LINE
  8
0
 62
     0
 10
216.745
 20
2.44464
 30
0.0
 11
230.746
 21
2.44464
 31
0.0
  0
LINE
  8
0
 62
     0
 10
230.746
 20
2.44464
 30
0.0
 11
230.746
 21
3.44372
 31
0.0
  0
LINE
  8
0
 62
     0
 10
230.746
 20
3.44372
 30
0.0
 11
231.545
 21
3.44372
 31
0.0
  0
LINE
  8
0
 62
     0
 10
231.545
 20
3.44372
 30
0.0
 11
231.545
 21
6.54431
 31
0.0
  0
LINE
  8
0
 62
     0
 10
231.545
 20
6.54431
 30
0.0
 11
230.746
 21
6.54431
 31
0.0
  0
LINE
  8
0
 62
     0
 10
230.746
 20
6.54431
 30
0.0
 11
230.746
 21
12.3431
 31
0.0
  0
LINE
  8
0
 62
     0
 10
230.746
 20
12.3431
 30
0.0
 11
231.545
 21
12.3431
 31
0.0
  0
LINE
  8
0
 62
     0
 10
231.545
 20
12.3431
 30
0.0
 11
231.545
 21
15.4437
 31
0.0
  0
LINE
  8
0
 62
     0
 10
231.545
 20
15.4437
 30
0.0
 11
230.746
 21
15.4437
 31
0.0
  0
LINE
  8
0
 62
     0
 10
230.746
 20
15.4437
 30
0.0
 11
230.746
 21
16.4441
 31
0.0
  0
LINE
  8
0
 62
     0
 10
230.746
 20
16.4441
 30
0.0
 11
216.745
 21
16.4441
 31
0.0
  0
LINE
  8
0
 62
     0
 10
235.795
 20
16.4441
 30
0.0
 11
235.795
 21
15.4437
 31
0.0
  0
LINE
  8
0
 62
     0
 10
235.795
 20
15.4437
 30
0.0
 11
234.996
 21
15.4437
 31
0.0
  0
LINE
  8
0
 62
     0
 10
234.996
 20
15.4437
 30
0.0
 11
234.996
 21
12.3431
 31
0.0
  0
LINE
  8
0
 62
     0
 10
234.996
 20
12.3431
 30
0.0
 11
235.795
 21
12.3431
 31
0.0
  0
LINE
  8
0
 62
     0
 10
235.795
 20
12.3431
 30
0.0
 11
235.795
 21
6.54431
 31
0.0
  0
LINE
  8
0
 62
     0
 10
235.795
 20
6.54431
 30
0.0
 11
234.996
 21
6.54431
 31
0.0
  0
LINE
  8
0
 62
     0
 10
234.996
 20
6.54431
 30
0.0
 11
234.996
 21
3.44372
 31
0.0
  0
LINE
  8
0
 62
     0
 10
234.996
 20
3.44372
 30
0.0
 11
235.795
 21
3.44372
 31
0.0
  0
LINE
  8
0
 62
     0
 10
235.795
 20
3.44372
 30
0.0
 11
235.795
 21
2.44464
 31
0.0
  0
LINE
  8
0
 62
     0
 10
235.795
 20
2.44464
 30
0.0
 11
249.794
 21
2.44464
 31
0.0
  0
LINE
  8
0
 62
     0
 10
249.794
 20
2.44464
 30
0.0
 11
249.794
 21
3.44372
 31
0.0
  0
LINE
  8
0
 62
     0
 10
249.794
 20
3.44372
 30
0.0
 11
250.595
 21
3.44372
 31
0.0
  0
LINE
  8
0
 62
     0
 10
250.595
 20
3.44372
 30
0.0
 11
250.595
 21
6.54431
 31
0.0
  0
LINE
  8
0
 62
     0
 10
250.595
 20
6.54431
 30
0.0
 11
249.794
 21
6.54431
 31
0.0
  0
LINE
  8
0
 62
     0
 10
249.794
 20
6.54431
 30
0.0
 11
249.794
 21
12.3431
 31
0.0
  0
LINE
  8
0
 62
     0
 10
249.794
 20
12.3431
 30
0.0
 11
250.595
 21
12.3431
 31
0.0
  0
LINE
  8
0
 62
     0
 10
250.595
 20
12.3431
 30
0.0
 11
250.595
 21
15.4437
 31
0.0
  0
LINE
  8
0
 62
     0
 10
250.595
 20
15.4437
 30
0.0
 11
249.794
 21
15.4437
 31
0.0
  0
LINE
  8
0
 62
     0
 10
249.794
 20
15.4437
 30
0.0
 11
249.794
 21
16.4441
 31
0.0
  0
LINE
  8
0
 62
     0
 10
249.794
 20
16.4441
 30
0.0
 11
235.795
 21
16.4441
 31
0.0
  0
LINE
  8
0
 62
     0
 10
254.845
 20
16.4441
 30
0.0
 11
254.845
 21
15.4437
 31
0.0
  0
LINE
  8
0
 62
     0
 10
254.845
 20
15.4437
 30
0.0
 11
254.044
 21
15.4437
 31
0.0
  0
LINE
  8
0
 62
     0
 10
254.044
 20
15.4437
 30
0.0
 11
254.044
 21
12.3431
 31
0.0
  0
LINE
  8
0
 62
     0
 10
254.044
 20
12.3431
 30
0.0
 11
254.845
 21
12.3431
 31
0.0
  0
LINE
  8
0
 62
     0
 10
254.845
 20
12.3431
 30
0.0
 11
254.845
 21
6.54431
 31
0.0
  0
LINE
  8
0
 62
     0
 10
254.845
 20
6.54431
 30
0.0
 11
254.044
 21
6.54431
 31
0.0
  0
LINE
  8
0
 62
     0
 10
254.044
 20
6.54431
 30
0.0
 11
254.044
 21
3.44372
 31
0.0
  0
LINE
  8
0
 62
     0
 10
254.044
 20
3.44372
 30
0.0
 11
254.845
 21
3.44372
 31
0.0
  0
LINE
  8
0
 62
     0
 10
254.845
 20
3.44372
 30
0.0
 11
254.845
 21
2.44464
 31
0.0
  0
LINE
  8
0
 62
     0
 10
254.845
 20
2.44464
 30
0.0
 11
268.844
 21
2.44464
 31
0.0
  0
LINE
  8
0
 62
     0
 10
268.844
 20
2.44464
 30
0.0
 11
268.844
 21
3.44372
 31
0.0
  0
LINE
  8
0
 62
     0
 10
268.844
 20
3.44372
 30
0.0
 11
269.645
 21
3.44372
 31
0.0
  0
LINE
  8
0
 62
     0
 10
269.645
 20
3.44372
 30
0.0
 11
269.645
 21
6.54431
 31
0.0
  0
LINE
  8
0
 62
     0
 10
269.645
 20
6.54431
 30
0.0
 11
268.844
 21
6.54431
 31
0.0
  0
LINE
  8
0
 62
     0
 10
268.844
 20
6.54431
 30
0.0
 11
268.844
 21
12.3431
 31
0.0
  0
LINE
  8
0
 62
     0
 10
268.844
 20
12.3431
 30
0.0
 11
269.645
 21
12.3431
 31
0.0
  0
LINE
  8
0
 62
     0
 10
269.645
 20
12.3431
 30
0.0
 11
269.645
 21
15.4437
 31
0.0
  0
LINE
  8
0
 62
     0
 10
269.645
 20
15.4437
 30
0.0
 11
268.844
 21
15.4437
 31
0.0
  0
LINE
  8
0
 62
     0
 10
268.844
 20
15.4437
 30
0.0
 11
268.844
 21
16.4441
 31
0.0
  0
LINE
  8
0
 62
     0
 10
268.844
 20
16.4441
 30
0.0
 11
254.845
 21
16.4441
 31
0.0
  0
LINE
  8
0
 62
     0
 10
178.645
 20
35.494
 30
0.0
 11
178.645
 21
34.4937
 31
0.0
  0
LINE
  8
0
 62
     0
 10
178.645
 20
34.4937
 30
0.0
 11
177.846
 21
34.4937
 31
0.0
  0
LINE
  8
0
 62
     0
 10
177.846
 20
34.4937
 30
0.0
 11
177.846
 21
31.3931
 31
0.0
  0
LINE
  8
0
 62
     0
 10
177.846
 20
31.3931
 30
0.0
 11
178.645
 21
31.3931
 31
0.0
  0
LINE
  8
0
 62
     0
 10
178.645
 20
31.3931
 30
0.0
 11
178.645
 21
25.5929
 31
0.0
  0
LINE
  8
0
 62
     0
 10
178.645
 20
25.5929
 30
0.0
 11
177.846
 21
25.5929
 31
0.0
  0
LINE
  8
0
 62
     0
 10
177.846
 20
25.5929
 30
0.0
 11
177.846
 21
22.4937
 31
0.0
  0
LINE
  8
0
 62
     0
 10
177.846
 20
22.4937
 30
0.0
 11
178.645
 21
22.4937
 31
0.0
  0
LINE
  8
0
 62
     0
 10
178.645
 20
22.4937
 30
0.0
 11
178.645
 21
21.4946
 31
0.0
  0
LINE
  8
0
 62
     0
 10
178.645
 20
21.4946
 30
0.0
 11
185.145
 21
21.4946
 31
0.0
  0
LINE
  8
0
 62
     0
 10
185.145
 20
21.4946
 30
0.0
 11
184.55
 21
21.1915
 31
0.0
  0
LINE
  8
0
 62
     0
 10
184.55
 20
21.1915
 30
0.0
 11
183.996
 21
20.6375
 31
0.0
  0
LINE
  8
0
 62
     0
 10
183.996
 20
20.6375
 30
0.0
 11
183.643
 21
19.9416
 31
0.0
  0
LINE
  8
0
 62
     0
 10
183.643
 20
19.9416
 30
0.0
 11
183.52
 21
19.1671
 31
0.0
  0
LINE
  8
0
 62
     0
 10
183.52
 20
19.1671
 30
0.0
 11
183.643
 21
18.3968
 31
0.0
  0
LINE
  8
0
 62
     0
 10
183.643
 20
18.3968
 30
0.0
 11
183.996
 21
17.6995
 31
0.0
  0
LINE
  8
0
 62
     0
 10
183.996
 20
17.6995
 30
0.0
 11
184.55
 21
17.1456
 31
0.0
  0
LINE
  8
0
 62
     0
 10
184.55
 20
17.1456
 30
0.0
 11
185.247
 21
16.7914
 31
0.0
  0
LINE
  8
0
 62
     0
 10
185.247
 20
16.7914
 30
0.0
 11
186.02
 21
16.6674
 31
0.0
  0
LINE
  8
0
 62
     0
 10
186.02
 20
16.6674
 30
0.0
 11
186.793
 21
16.7914
 31
0.0
  0
LINE
  8
0
 62
     0
 10
186.793
 20
16.7914
 30
0.0
 11
187.489
 21
17.1456
 31
0.0
  0
LINE
  8
0
 62
     0
 10
187.489
 20
17.1456
 30
0.0
 11
188.043
 21
17.6995
 31
0.0
  0
LINE
  8
0
 62
     0
 10
188.043
 20
17.6995
 30
0.0
 11
188.399
 21
18.3968
 31
0.0
  0
LINE
  8
0
 62
     0
 10
188.399
 20
18.3968
 30
0.0
 11
188.52
 21
19.1671
 31
0.0
  0
LINE
  8
0
 62
     0
 10
188.52
 20
19.1671
 30
0.0
 11
188.399
 21
19.9416
 31
0.0
  0
LINE
  8
0
 62
     0
 10
188.399
 20
19.9416
 30
0.0
 11
188.043
 21
20.6375
 31
0.0
  0
LINE
  8
0
 62
     0
 10
188.043
 20
20.6375
 30
0.0
 11
187.489
 21
21.1915
 31
0.0
  0
LINE
  8
0
 62
     0
 10
187.489
 20
21.1915
 30
0.0
 11
186.895
 21
21.4946
 31
0.0
  0
LINE
  8
0
 62
     0
 10
186.895
 20
21.4946
 30
0.0
 11
192.646
 21
21.4946
 31
0.0
  0
LINE
  8
0
 62
     0
 10
192.646
 20
21.4946
 30
0.0
 11
192.646
 21
22.4937
 31
0.0
  0
LINE
  8
0
 62
     0
 10
192.646
 20
22.4937
 30
0.0
 11
193.445
 21
22.4937
 31
0.0
  0
LINE
  8
0
 62
     0
 10
193.445
 20
22.4937
 30
0.0
 11
193.445
 21
25.5929
 31
0.0
  0
LINE
  8
0
 62
     0
 10
193.445
 20
25.5929
 30
0.0
 11
192.646
 21
25.5929
 31
0.0
  0
LINE
  8
0
 62
     0
 10
192.646
 20
25.5929
 30
0.0
 11
192.646
 21
31.3931
 31
0.0
  0
LINE
  8
0
 62
     0
 10
192.646
 20
31.3931
 30
0.0
 11
193.445
 21
31.3931
 31
0.0
  0
LINE
  8
0
 62
     0
 10
193.445
 20
31.3931
 30
0.0
 11
193.445
 21
34.4937
 31
0.0
  0
LINE
  8
0
 62
     0
 10
193.445
 20
34.4937
 30
0.0
 11
192.646
 21
34.4937
 31
0.0
  0
LINE
  8
0
 62
     0
 10
192.646
 20
34.4937
 30
0.0
 11
192.646
 21
35.494
 31
0.0
  0
LINE
  8
0
 62
     0
 10
192.646
 20
35.494
 30
0.0
 11
178.645
 21
35.494
 31
0.0
  0
LINE
  8
0
 62
     0
 10
14.3371
 20
35.494
 30
0.0
 11
14.3371
 21
34.4937
 31
0.0
  0
LINE
  8
0
 62
     0
 10
14.3371
 20
34.4937
 30
0.0
 11
13.5378
 21
34.4937
 31
0.0
  0
LINE
  8
0
 62
     0
 10
13.5378
 20
34.4937
 30
0.0
 11
13.5378
 21
31.3931
 31
0.0
  0
LINE
  8
0
 62
     0
 10
13.5378
 20
31.3931
 30
0.0
 11
14.3371
 21
31.3931
 31
0.0
  0
LINE
  8
0
 62
     0
 10
14.3371
 20
31.3931
 30
0.0
 11
14.3371
 21
30.7937
 31
0.0
  0
LINE
  8
0
 62
     0
 10
14.3371
 20
30.7937
 30
0.0
 11
12.813
 21
30.7937
 31
0.0
  0
LINE
  8
0
 62
     0
 10
12.813
 20
30.7937
 30
0.0
 11
12.813
 21
34.0238
 31
0.0
  0
LINE
  8
0
 62
     0
 10
12.813
 20
34.0238
 30
0.0
 11
11.0877
 21
34.0238
 31
0.0
  0
LINE
  8
0
 62
     0
 10
11.0877
 20
34.0238
 30
0.0
 11
11.0877
 21
34.9443
 31
0.0
  0
LINE
  8
0
 62
     0
 10
11.0877
 20
34.9443
 30
0.0
 11
7.78866
 21
34.9443
 31
0.0
  0
LINE
  8
0
 62
     0
 10
7.78866
 20
34.9443
 30
0.0
 11
7.78866
 21
34.0238
 31
0.0
  0
LINE
  8
0
 62
     0
 10
7.78866
 20
34.0238
 30
0.0
 11
6.06337
 21
34.0238
 31
0.0
  0
LINE
  8
0
 62
     0
 10
6.06337
 20
34.0238
 30
0.0
 11
6.06337
 21
30.7937
 31
0.0
  0
LINE
  8
0
 62
     0
 10
6.06337
 20
30.7937
 30
0.0
 11
5.23794
 21
30.7937
 31
0.0
  0
LINE
  8
0
 62
     0
 10
5.23794
 20
30.7937
 30
0.0
 11
5.23794
 21
27.9949
 31
0.0
  0
LINE
  8
0
 62
     0
 10
5.23794
 20
27.9949
 30
0.0
 11
6.06337
 21
27.9949
 31
0.0
  0
LINE
  8
0
 62
     0
 10
6.06337
 20
27.9949
 30
0.0
 11
6.06337
 21
21.7248
 31
0.0
  0
LINE
  8
0
 62
     0
 10
6.06337
 20
21.7248
 30
0.0
 11
7.78866
 21
21.7248
 31
0.0
  0
LINE
  8
0
 62
     0
 10
7.78866
 20
21.7248
 30
0.0
 11
7.78866
 21
20.7436
 31
0.0
  0
LINE
  8
0
 62
     0
 10
7.78866
 20
20.7436
 30
0.0
 11
11.0877
 21
20.7436
 31
0.0
  0
LINE
  8
0
 62
     0
 10
11.0877
 20
20.7436
 30
0.0
 11
11.0877
 21
21.7248
 31
0.0
  0
LINE
  8
0
 62
     0
 10
11.0877
 20
21.7248
 30
0.0
 11
12.813
 21
21.7248
 31
0.0
  0
LINE
  8
0
 62
     0
 10
12.813
 20
21.7248
 30
0.0
 11
12.813
 21
26.1938
 31
0.0
  0
LINE
  8
0
 62
     0
 10
12.813
 20
26.1938
 30
0.0
 11
14.3371
 21
26.1938
 31
0.0
  0
LINE
  8
0
 62
     0
 10
14.3371
 20
26.1938
 30
0.0
 11
14.3371
 21
25.5929
 31
0.0
  0
LINE
  8
0
 62
     0
 10
14.3371
 20
25.5929
 30
0.0
 11
13.5378
 21
25.5929
 31
0.0
  0
LINE
  8
0
 62
     0
 10
13.5378
 20
25.5929
 30
0.0
 11
13.5378
 21
22.4937
 31
0.0
  0
LINE
  8
0
 62
     0
 10
13.5378
 20
22.4937
 30
0.0
 11
14.3371
 21
22.4937
 31
0.0
  0
LINE
  8
0
 62
     0
 10
14.3371
 20
22.4937
 30
0.0
 11
14.3371
 21
21.4946
 31
0.0
  0
LINE
  8
0
 62
     0
 10
14.3371
 20
21.4946
 30
0.0
 11
28.3366
 21
21.4946
 31
0.0
  0
LINE
  8
0
 62
     0
 10
28.3366
 20
21.4946
 30
0.0
 11
28.3366
 21
22.4937
 31
0.0
  0
LINE
  8
0
 62
     0
 10
28.3366
 20
22.4937
 30
0.0
 11
29.1373
 21
22.4937
 31
0.0
  0
LINE
  8
0
 62
     0
 10
29.1373
 20
22.4937
 30
0.0
 11
29.1373
 21
25.5929
 31
0.0
  0
LINE
  8
0
 62
     0
 10
29.1373
 20
25.5929
 30
0.0
 11
28.3366
 21
25.5929
 31
0.0
  0
LINE
  8
0
 62
     0
 10
28.3366
 20
25.5929
 30
0.0
 11
28.3366
 21
26.1938
 31
0.0
  0
LINE
  8
0
 62
     0
 10
28.3366
 20
26.1938
 30
0.0
 11
29.8634
 21
26.1938
 31
0.0
  0
LINE
  8
0
 62
     0
 10
29.8634
 20
26.1938
 30
0.0
 11
29.8634
 21
21.7248
 31
0.0
  0
LINE
  8
0
 62
     0
 10
29.8634
 20
21.7248
 30
0.0
 11
31.5874
 21
21.7248
 31
0.0
  0
LINE
  8
0
 62
     0
 10
31.5874
 20
21.7248
 30
0.0
 11
31.5874
 21
20.7436
 31
0.0
  0
LINE
  8
0
 62
     0
 10
31.5874
 20
20.7436
 30
0.0
 11
34.8878
 21
20.7436
 31
0.0
  0
LINE
  8
0
 62
     0
 10
34.8878
 20
20.7436
 30
0.0
 11
34.8878
 21
21.7248
 31
0.0
  0
LINE
  8
0
 62
     0
 10
34.8878
 20
21.7248
 30
0.0
 11
36.613
 21
21.7248
 31
0.0
  0
LINE
  8
0
 62
     0
 10
36.613
 20
21.7248
 30
0.0
 11
36.613
 21
27.9949
 31
0.0
  0
LINE
  8
0
 62
     0
 10
36.613
 20
27.9949
 30
0.0
 11
37.4385
 21
27.9949
 31
0.0
  0
LINE
  8
0
 62
     0
 10
37.4385
 20
27.9949
 30
0.0
 11
37.4385
 21
30.7937
 31
0.0
  0
LINE
  8
0
 62
     0
 10
37.4385
 20
30.7937
 30
0.0
 11
36.613
 21
30.7937
 31
0.0
  0
LINE
  8
0
 62
     0
 10
36.613
 20
30.7937
 30
0.0
 11
36.613
 21
34.0238
 31
0.0
  0
LINE
  8
0
 62
     0
 10
36.613
 20
34.0238
 30
0.0
 11
34.8878
 21
34.0238
 31
0.0
  0
LINE
  8
0
 62
     0
 10
34.8878
 20
34.0238
 30
0.0
 11
34.8878
 21
34.9443
 31
0.0
  0
LINE
  8
0
 62
     0
 10
34.8878
 20
34.9443
 30
0.0
 11
31.5874
 21
34.9443
 31
0.0
  0
LINE
  8
0
 62
     0
 10
31.5874
 20
34.9443
 30
0.0
 11
31.5874
 21
34.0238
 31
0.0
  0
LINE
  8
0
 62
     0
 10
31.5874
 20
34.0238
 30
0.0
 11
29.8634
 21
34.0238
 31
0.0
  0
LINE
  8
0
 62
     0
 10
29.8634
 20
34.0238
 30
0.0
 11
29.8634
 21
30.7937
 31
0.0
  0
LINE
  8
0
 62
     0
 10
29.8634
 20
30.7937
 30
0.0
 11
28.3366
 21
30.7937
 31
0.0
  0
LINE
  8
0
 62
     0
 10
28.3366
 20
30.7937
 30
0.0
 11
28.3366
 21
31.3931
 31
0.0
  0
LINE
  8
0
 62
     0
 10
28.3366
 20
31.3931
 30
0.0
 11
29.1373
 21
31.3931
 31
0.0
  0
LINE
  8
0
 62
     0
 10
29.1373
 20
31.3931
 30
0.0
 11
29.1373
 21
34.4937
 31
0.0
  0
LINE
  8
0
 62
     0
 10
29.1373
 20
34.4937
 30
0.0
 11
28.3366
 21
34.4937
 31
0.0
  0
LINE
  8
0
 62
     0
 10
28.3366
 20
34.4937
 30
0.0
 11
28.3366
 21
35.494
 31
0.0
  0
LINE
  8
0
 62
     0
 10
28.3366
 20
35.494
 30
0.0
 11
14.3371
 21
35.494
 31
0.0
  0
LINE
  8
0
 62
     0
 10
45.2949
 20
35.494
 30
0.0
 11
45.2949
 21
34.4937
 31
0.0
  0
LINE
  8
0
 62
     0
 10
45.2949
 20
34.4937
 30
0.0
 11
44.4941
 21
34.4937
 31
0.0
  0
LINE
  8
0
 62
     0
 10
44.4941
 20
34.4937
 30
0.0
 11
44.4941
 21
31.3931
 31
0.0
  0
LINE
  8
0
 62
     0
 10
44.4941
 20
31.3931
 30
0.0
 11
45.2949
 21
31.3931
 31
0.0
  0
LINE
  8
0
 62
     0
 10
45.2949
 20
31.3931
 30
0.0
 11
45.2949
 21
25.5929
 31
0.0
  0
LINE
  8
0
 62
     0
 10
45.2949
 20
25.5929
 30
0.0
 11
44.4941
 21
25.5929
 31
0.0
  0
LINE
  8
0
 62
     0
 10
44.4941
 20
25.5929
 30
0.0
 11
44.4941
 21
22.4937
 31
0.0
  0
LINE
  8
0
 62
     0
 10
44.4941
 20
22.4937
 30
0.0
 11
45.2949
 21
22.4937
 31
0.0
  0
LINE
  8
0
 62
     0
 10
45.2949
 20
22.4937
 30
0.0
 11
45.2949
 21
21.4946
 31
0.0
  0
LINE
  8
0
 62
     0
 10
45.2949
 20
21.4946
 30
0.0
 11
59.2956
 21
21.4946
 31
0.0
  0
LINE
  8
0
 62
     0
 10
59.2956
 20
21.4946
 30
0.0
 11
59.2956
 21
22.4937
 31
0.0
  0
LINE
  8
0
 62
     0
 10
59.2956
 20
22.4937
 30
0.0
 11
60.095
 21
22.4937
 31
0.0
  0
LINE
  8
0
 62
     0
 10
60.095
 20
22.4937
 30
0.0
 11
60.095
 21
25.5929
 31
0.0
  0
LINE
  8
0
 62
     0
 10
60.095
 20
25.5929
 30
0.0
 11
59.2956
 21
25.5929
 31
0.0
  0
LINE
  8
0
 62
     0
 10
59.2956
 20
25.5929
 30
0.0
 11
59.2956
 21
31.3931
 31
0.0
  0
LINE
  8
0
 62
     0
 10
59.2956
 20
31.3931
 30
0.0
 11
60.095
 21
31.3931
 31
0.0
  0
LINE
  8
0
 62
     0
 10
60.095
 20
31.3931
 30
0.0
 11
60.095
 21
34.4937
 31
0.0
  0
LINE
  8
0
 62
     0
 10
60.095
 20
34.4937
 30
0.0
 11
59.2956
 21
34.4937
 31
0.0
  0
LINE
  8
0
 62
     0
 10
59.2956
 20
34.4937
 30
0.0
 11
59.2956
 21
35.494
 31
0.0
  0
LINE
  8
0
 62
     0
 10
59.2956
 20
35.494
 30
0.0
 11
45.2949
 21
35.494
 31
0.0
  0
LINE
  8
0
 62
     0
 10
64.3449
 20
35.494
 30
0.0
 11
64.3449
 21
34.4937
 31
0.0
  0
LINE
  8
0
 62
     0
 10
64.3449
 20
34.4937
 30
0.0
 11
63.5455
 21
34.4937
 31
0.0
  0
LINE
  8
0
 62
     0
 10
63.5455
 20
34.4937
 30
0.0
 11
63.5455
 21
31.3931
 31
0.0
  0
LINE
  8
0
 62
     0
 10
63.5455
 20
31.3931
 30
0.0
 11
64.3449
 21
31.3931
 31
0.0
  0
LINE
  8
0
 62
     0
 10
64.3449
 20
31.3931
 30
0.0
 11
64.3449
 21
25.5929
 31
0.0
  0
LINE
  8
0
 62
     0
 10
64.3449
 20
25.5929
 30
0.0
 11
63.5455
 21
25.5929
 31
0.0
  0
LINE
  8
0
 62
     0
 10
63.5455
 20
25.5929
 30
0.0
 11
63.5455
 21
22.4937
 31
0.0
  0
LINE
  8
0
 62
     0
 10
63.5455
 20
22.4937
 30
0.0
 11
64.3449
 21
22.4937
 31
0.0
  0
LINE
  8
0
 62
     0
 10
64.3449
 20
22.4937
 30
0.0
 11
64.3449
 21
21.4946
 31
0.0
  0
LINE
  8
0
 62
     0
 10
64.3449
 20
21.4946
 30
0.0
 11
78.3456
 21
21.4946
 31
0.0
  0
LINE
  8
0
 62
     0
 10
78.3456
 20
21.4946
 30
0.0
 11
78.3456
 21
22.4937
 31
0.0
  0
LINE
  8
0
 62
     0
 10
78.3456
 20
22.4937
 30
0.0
 11
79.145
 21
22.4937
 31
0.0
  0
LINE
  8
0
 62
     0
 10
79.145
 20
22.4937
 30
0.0
 11
79.145
 21
25.5929
 31
0.0
  0
LINE
  8
0
 62
     0
 10
79.145
 20
25.5929
 30
0.0
 11
78.3456
 21
25.5929
 31
0.0
  0
LINE
  8
0
 62
     0
 10
78.3456
 20
25.5929
 30
0.0
 11
78.3456
 21
31.3931
 31
0.0
  0
LINE
  8
0
 62
     0
 10
78.3456
 20
31.3931
 30
0.0
 11
79.145
 21
31.3931
 31
0.0
  0
LINE
  8
0
 62
     0
 10
79.145
 20
31.3931
 30
0.0
 11
79.145
 21
34.4937
 31
0.0
  0
LINE
  8
0
 62
     0
 10
79.145
 20
34.4937
 30
0.0
 11
78.3456
 21
34.4937
 31
0.0
  0
LINE
  8
0
 62
     0
 10
78.3456
 20
34.4937
 30
0.0
 11
78.3456
 21
35.494
 31
0.0
  0
LINE
  8
0
 62
     0
 10
78.3456
 20
35.494
 30
0.0
 11
64.3449
 21
35.494
 31
0.0
  0
LINE
  8
0
 62
     0
 10
83.3949
 20
35.494
 30
0.0
 11
83.3949
 21
34.4937
 31
0.0
  0
LINE
  8
0
 62
     0
 10
83.3949
 20
34.4937
 30
0.0
 11
82.5955
 21
34.4937
 31
0.0
  0
LINE
  8
0
 62
     0
 10
82.5955
 20
34.4937
 30
0.0
 11
82.5955
 21
31.3931
 31
0.0
  0
LINE
  8
0
 62
     0
 10
82.5955
 20
31.3931
 30
0.0
 11
83.3949
 21
31.3931
 31
0.0
  0
LINE
  8
0
 62
     0
 10
83.3949
 20
31.3931
 30
0.0
 11
83.3949
 21
25.5929
 31
0.0
  0
LINE
  8
0
 62
     0
 10
83.3949
 20
25.5929
 30
0.0
 11
82.5955
 21
25.5929
 31
0.0
  0
LINE
  8
0
 62
     0
 10
82.5955
 20
25.5929
 30
0.0
 11
82.5955
 21
22.4937
 31
0.0
  0
LINE
  8
0
 62
     0
 10
82.5955
 20
22.4937
 30
0.0
 11
83.3949
 21
22.4937
 31
0.0
  0
LINE
  8
0
 62
     0
 10
83.3949
 20
22.4937
 30
0.0
 11
83.3949
 21
21.4946
 31
0.0
  0
LINE
  8
0
 62
     0
 10
83.3949
 20
21.4946
 30
0.0
 11
97.3956
 21
21.4946
 31
0.0
  0
LINE
  8
0
 62
     0
 10
97.3956
 20
21.4946
 30
0.0
 11
97.3956
 21
22.4937
 31
0.0
  0
LINE
  8
0
 62
     0
 10
97.3956
 20
22.4937
 30
0.0
 11
98.195
 21
22.4937
 31
0.0
  0
LINE
  8
0
 62
     0
 10
98.195
 20
22.4937
 30
0.0
 11
98.195
 21
25.5929
 31
0.0
  0
LINE
  8
0
 62
     0
 10
98.195
 20
25.5929
 30
0.0
 11
97.3956
 21
25.5929
 31
0.0
  0
LINE
  8
0
 62
     0
 10
97.3956
 20
25.5929
 30
0.0
 11
97.3956
 21
31.3931
 31
0.0
  0
LINE
  8
0
 62
     0
 10
97.3956
 20
31.3931
 30
0.0
 11
98.195
 21
31.3931
 31
0.0
  0
LINE
  8
0
 62
     0
 10
98.195
 20
31.3931
 30
0.0
 11
98.195
 21
34.4937
 31
0.0
  0
LINE
  8
0
 62
     0
 10
98.195
 20
34.4937
 30
0.0
 11
97.3956
 21
34.4937
 31
0.0
  0
LINE
  8
0
 62
     0
 10
97.3956
 20
34.4937
 30
0.0
 11
97.3956
 21
35.494
 31
0.0
  0
LINE
  8
0
 62
     0
 10
97.3956
 20
35.494
 30
0.0
 11
83.3949
 21
35.494
 31
0.0
  0
LINE
  8
0
 62
     0
 10
102.445
 20
35.494
 30
0.0
 11
102.445
 21
34.4937
 31
0.0
  0
LINE
  8
0
 62
     0
 10
102.445
 20
34.4937
 30
0.0
 11
101.646
 21
34.4937
 31
0.0
  0
LINE
  8
0
 62
     0
 10
101.646
 20
34.4937
 30
0.0
 11
101.646
 21
31.3931
 31
0.0
  0
LINE
  8
0
 62
     0
 10
101.646
 20
31.3931
 30
0.0
 11
102.445
 21
31.3931
 31
0.0
  0
LINE
  8
0
 62
     0
 10
102.445
 20
31.3931
 30
0.0
 11
102.445
 21
25.5929
 31
0.0
  0
LINE
  8
0
 62
     0
 10
102.445
 20
25.5929
 30
0.0
 11
101.646
 21
25.5929
 31
0.0
  0
LINE
  8
0
 62
     0
 10
101.646
 20
25.5929
 30
0.0
 11
101.646
 21
22.4937
 31
0.0
  0
LINE
  8
0
 62
     0
 10
101.646
 20
22.4937
 30
0.0
 11
102.445
 21
22.4937
 31
0.0
  0
LINE
  8
0
 62
     0
 10
102.445
 20
22.4937
 30
0.0
 11
102.445
 21
21.4946
 31
0.0
  0
LINE
  8
0
 62
     0
 10
102.445
 20
21.4946
 30
0.0
 11
116.444
 21
21.4946
 31
0.0
  0
LINE
  8
0
 62
     0
 10
116.444
 20
21.4946
 30
0.0
 11
116.444
 21
22.4937
 31
0.0
  0
LINE
  8
0
 62
     0
 10
116.444
 20
22.4937
 30
0.0
 11
117.245
 21
22.4937
 31
0.0
  0
LINE
  8
0
 62
     0
 10
117.245
 20
22.4937
 30
0.0
 11
117.245
 21
25.5929
 31
0.0
  0
LINE
  8
0
 62
     0
 10
117.245
 20
25.5929
 30
0.0
 11
116.444
 21
25.5929
 31
0.0
  0
LINE
  8
0
 62
     0
 10
116.444
 20
25.5929
 30
0.0
 11
116.444
 21
31.3931
 31
0.0
  0
LINE
  8
0
 62
     0
 10
116.444
 20
31.3931
 30
0.0
 11
117.245
 21
31.3931
 31
0.0
  0
LINE
  8
0
 62
     0
 10
117.245
 20
31.3931
 30
0.0
 11
117.245
 21
34.4937
 31
0.0
  0
LINE
  8
0
 62
     0
 10
117.245
 20
34.4937
 30
0.0
 11
116.444
 21
34.4937
 31
0.0
  0
LINE
  8
0
 62
     0
 10
116.444
 20
34.4937
 30
0.0
 11
116.444
 21
35.494
 31
0.0
  0
LINE
  8
0
 62
     0
 10
116.444
 20
35.494
 30
0.0
 11
102.445
 21
35.494
 31
0.0
  0
LINE
  8
0
 62
     0
 10
121.495
 20
35.494
 30
0.0
 11
121.495
 21
34.4937
 31
0.0
  0
LINE
  8
0
 62
     0
 10
121.495
 20
34.4937
 30
0.0
 11
120.694
 21
34.4937
 31
0.0
  0
LINE
  8
0
 62
     0
 10
120.694
 20
34.4937
 30
0.0
 11
120.694
 21
31.3931
 31
0.0
  0
LINE
  8
0
 62
     0
 10
120.694
 20
31.3931
 30
0.0
 11
121.495
 21
31.3931
 31
0.0
  0
LINE
  8
0
 62
     0
 10
121.495
 20
31.3931
 30
0.0
 11
121.495
 21
25.5929
 31
0.0
  0
LINE
  8
0
 62
     0
 10
121.495
 20
25.5929
 30
0.0
 11
120.694
 21
25.5929
 31
0.0
  0
LINE
  8
0
 62
     0
 10
120.694
 20
25.5929
 30
0.0
 11
120.694
 21
22.4937
 31
0.0
  0
LINE
  8
0
 62
     0
 10
120.694
 20
22.4937
 30
0.0
 11
121.495
 21
22.4937
 31
0.0
  0
LINE
  8
0
 62
     0
 10
121.495
 20
22.4937
 30
0.0
 11
121.495
 21
21.4946
 31
0.0
  0
LINE
  8
0
 62
     0
 10
121.495
 20
21.4946
 30
0.0
 11
135.496
 21
21.4946
 31
0.0
  0
LINE
  8
0
 62
     0
 10
135.496
 20
21.4946
 30
0.0
 11
135.496
 21
22.4937
 31
0.0
  0
LINE
  8
0
 62
     0
 10
135.496
 20
22.4937
 30
0.0
 11
136.295
 21
22.4937
 31
0.0
  0
LINE
  8
0
 62
     0
 10
136.295
 20
22.4937
 30
0.0
 11
136.295
 21
25.5929
 31
0.0
  0
LINE
  8
0
 62
     0
 10
136.295
 20
25.5929
 30
0.0
 11
135.496
 21
25.5929
 31
0.0
  0
LINE
  8
0
 62
     0
 10
135.496
 20
25.5929
 30
0.0
 11
135.496
 21
31.3931
 31
0.0
  0
LINE
  8
0
 62
     0
 10
135.496
 20
31.3931
 30
0.0
 11
136.295
 21
31.3931
 31
0.0
  0
LINE
  8
0
 62
     0
 10
136.295
 20
31.3931
 30
0.0
 11
136.295
 21
34.4937
 31
0.0
  0
LINE
  8
0
 62
     0
 10
136.295
 20
34.4937
 30
0.0
 11
135.496
 21
34.4937
 31
0.0
  0
LINE
  8
0
 62
     0
 10
135.496
 20
34.4937
 30
0.0
 11
135.496
 21
35.494
 31
0.0
  0
LINE
  8
0
 62
     0
 10
135.496
 20
35.494
 30
0.0
 11
121.495
 21
35.494
 31
0.0
  0
LINE
  8
0
 62
     0
 10
140.545
 20
35.494
 30
0.0
 11
140.545
 21
34.4937
 31
0.0
  0
LINE
  8
0
 62
     0
 10
140.545
 20
34.4937
 30
0.0
 11
139.746
 21
34.4937
 31
0.0
  0
LINE
  8
0
 62
     0
 10
139.746
 20
34.4937
 30
0.0
 11
139.746
 21
31.3931
 31
0.0
  0
LINE
  8
0
 62
     0
 10
139.746
 20
31.3931
 30
0.0
 11
140.545
 21
31.3931
 31
0.0
  0
LINE
  8
0
 62
     0
 10
140.545
 20
31.3931
 30
0.0
 11
140.545
 21
25.5929
 31
0.0
  0
LINE
  8
0
 62
     0
 10
140.545
 20
25.5929
 30
0.0
 11
139.746
 21
25.5929
 31
0.0
  0
LINE
  8
0
 62
     0
 10
139.746
 20
25.5929
 30
0.0
 11
139.746
 21
22.4937
 31
0.0
  0
LINE
  8
0
 62
     0
 10
139.746
 20
22.4937
 30
0.0
 11
140.545
 21
22.4937
 31
0.0
  0
LINE
  8
0
 62
     0
 10
140.545
 20
22.4937
 30
0.0
 11
140.545
 21
21.4946
 31
0.0
  0
LINE
  8
0
 62
     0
 10
140.545
 20
21.4946
 30
0.0
 11
154.544
 21
21.4946
 31
0.0
  0
LINE
  8
0
 62
     0
 10
154.544
 20
21.4946
 30
0.0
 11
154.544
 21
22.4937
 31
0.0
  0
LINE
  8
0
 62
     0
 10
154.544
 20
22.4937
 30
0.0
 11
155.345
 21
22.4937
 31
0.0
  0
LINE
  8
0
 62
     0
 10
155.345
 20
22.4937
 30
0.0
 11
155.345
 21
25.5929
 31
0.0
  0
LINE
  8
0
 62
     0
 10
155.345
 20
25.5929
 30
0.0
 11
154.544
 21
25.5929
 31
0.0
  0
LINE
  8
0
 62
     0
 10
154.544
 20
25.5929
 30
0.0
 11
154.544
 21
31.3931
 31
0.0
  0
LINE
  8
0
 62
     0
 10
154.544
 20
31.3931
 30
0.0
 11
155.345
 21
31.3931
 31
0.0
  0
LINE
  8
0
 62
     0
 10
155.345
 20
31.3931
 30
0.0
 11
155.345
 21
34.4937
 31
0.0
  0
LINE
  8
0
 62
     0
 10
155.345
 20
34.4937
 30
0.0
 11
154.544
 21
34.4937
 31
0.0
  0
LINE
  8
0
 62
     0
 10
154.544
 20
34.4937
 30
0.0
 11
154.544
 21
35.494
 31
0.0
  0
LINE
  8
0
 62
     0
 10
154.544
 20
35.494
 30
0.0
 11
140.545
 21
35.494
 31
0.0
  0
LINE
  8
0
 62
     0
 10
159.595
 20
35.494
 30
0.0
 11
159.595
 21
34.4937
 31
0.0
  0
LINE
  8
0
 62
     0
 10
159.595
 20
34.4937
 30
0.0
 11
158.794
 21
34.4937
 31
0.0
  0
LINE
  8
0
 62
     0
 10
158.794
 20
34.4937
 30
0.0
 11
158.794
 21
31.3931
 31
0.0
  0
LINE
  8
0
 62
     0
 10
158.794
 20
31.3931
 30
0.0
 11
159.595
 21
31.3931
 31
0.0
  0
LINE
  8
0
 62
     0
 10
159.595
 20
31.3931
 30
0.0
 11
159.595
 21
25.5929
 31
0.0
  0
LINE
  8
0
 62
     0
 10
159.595
 20
25.5929
 30
0.0
 11
158.794
 21
25.5929
 31
0.0
  0
LINE
  8
0
 62
     0
 10
158.794
 20
25.5929
 30
0.0
 11
158.794
 21
22.4937
 31
0.0
  0
LINE
  8
0
 62
     0
 10
158.794
 20
22.4937
 30
0.0
 11
159.595
 21
22.4937
 31
0.0
  0
LINE
  8
0
 62
     0
 10
159.595
 20
22.4937
 30
0.0
 11
159.595
 21
21.4946
 31
0.0
  0
LINE
  8
0
 62
     0
 10
159.595
 20
21.4946
 30
0.0
 11
173.596
 21
21.4946
 31
0.0
  0
LINE
  8
0
 62
     0
 10
173.596
 20
21.4946
 30
0.0
 11
173.596
 21
22.4937
 31
0.0
  0
LINE
  8
0
 62
     0
 10
173.596
 20
22.4937
 30
0.0
 11
174.395
 21
22.4937
 31
0.0
  0
LINE
  8
0
 62
     0
 10
174.395
 20
22.4937
 30
0.0
 11
174.395
 21
25.5929
 31
0.0
  0
LINE
  8
0
 62
     0
 10
174.395
 20
25.5929
 30
0.0
 11
173.596
 21
25.5929
 31
0.0
  0
LINE
  8
0
 62
     0
 10
173.596
 20
25.5929
 30
0.0
 11
173.596
 21
31.3931
 31
0.0
  0
LINE
  8
0
 62
     0
 10
173.596
 20
31.3931
 30
0.0
 11
174.395
 21
31.3931
 31
0.0
  0
LINE
  8
0
 62
     0
 10
174.395
 20
31.3931
 30
0.0
 11
174.395
 21
34.4937
 31
0.0
  0
LINE
  8
0
 62
     0
 10
174.395
 20
34.4937
 30
0.0
 11
173.596
 21
34.4937
 31
0.0
  0
LINE
  8
0
 62
     0
 10
173.596
 20
34.4937
 30
0.0
 11
173.596
 21
35.494
 31
0.0
  0
LINE
  8
0
 62
     0
 10
173.596
 20
35.494
 30
0.0
 11
159.595
 21
35.494
 31
0.0
  0
LINE
  8
0
 62
     0
 10
197.695
 20
35.494
 30
0.0
 11
197.695
 21
34.4937
 31
0.0
  0
LINE
  8
0
 62
     0
 10
197.695
 20
34.4937
 30
0.0
 11
196.896
 21
34.4937
 31
0.0
  0
LINE
  8
0
 62
     0
 10
196.896
 20
34.4937
 30
0.0
 11
196.896
 21
31.3931
 31
0.0
  0
LINE
  8
0
 62
     0
 10
196.896
 20
31.3931
 30
0.0
 11
197.695
 21
31.3931
 31
0.0
  0
LINE
  8
0
 62
     0
 10
197.695
 20
31.3931
 30
0.0
 11
197.695
 21
25.5929
 31
0.0
  0
LINE
  8
0
 62
     0
 10
197.695
 20
25.5929
 30
0.0
 11
196.896
 21
25.5929
 31
0.0
  0
LINE
  8
0
 62
     0
 10
196.896
 20
25.5929
 30
0.0
 11
196.896
 21
22.4937
 31
0.0
  0
LINE
  8
0
 62
     0
 10
196.896
 20
22.4937
 30
0.0
 11
197.695
 21
22.4937
 31
0.0
  0
LINE
  8
0
 62
     0
 10
197.695
 20
22.4937
 30
0.0
 11
197.695
 21
21.4946
 31
0.0
  0
LINE
  8
0
 62
     0
 10
197.695
 20
21.4946
 30
0.0
 11
211.694
 21
21.4946
 31
0.0
  0
LINE
  8
0
 62
     0
 10
211.694
 20
21.4946
 30
0.0
 11
211.694
 21
22.4937
 31
0.0
  0
LINE
  8
0
 62
     0
 10
211.694
 20
22.4937
 30
0.0
 11
212.495
 21
22.4937
 31
0.0
  0
LINE
  8
0
 62
     0
 10
212.495
 20
22.4937
 30
0.0
 11
212.495
 21
25.5929
 31
0.0
  0
LINE
  8
0
 62
     0
 10
212.495
 20
25.5929
 30
0.0
 11
211.694
 21
25.5929
 31
0.0
  0
LINE
  8
0
 62
     0
 10
211.694
 20
25.5929
 30
0.0
 11
211.694
 21
31.3931
 31
0.0
  0
LINE
  8
0
 62
     0
 10
211.694
 20
31.3931
 30
0.0
 11
212.495
 21
31.3931
 31
0.0
  0
LINE
  8
0
 62
     0
 10
212.495
 20
31.3931
 30
0.0
 11
212.495
 21
34.4937
 31
0.0
  0
LINE
  8
0
 62
     0
 10
212.495
 20
34.4937
 30
0.0
 11
211.694
 21
34.4937
 31
0.0
  0
LINE
  8
0
 62
     0
 10
211.694
 20
34.4937
 30
0.0
 11
211.694
 21
35.494
 31
0.0
  0
LINE
  8
0
 62
     0
 10
211.694
 20
35.494
 30
0.0
 11
197.695
 21
35.494
 31
0.0
  0
LINE
  8
0
 62
     0
 10
216.745
 20
35.494
 30
0.0
 11
216.745
 21
34.4937
 31
0.0
  0
LINE
  8
0
 62
     0
 10
216.745
 20
34.4937
 30
0.0
 11
215.944
 21
34.4937
 31
0.0
  0
LINE
  8
0
 62
     0
 10
215.944
 20
34.4937
 30
0.0
 11
215.944
 21
31.3931
 31
0.0
  0
LINE
  8
0
 62
     0
 10
215.944
 20
31.3931
 30
0.0
 11
216.745
 21
31.3931
 31
0.0
  0
LINE
  8
0
 62
     0
 10
216.745
 20
31.3931
 30
0.0
 11
216.745
 21
25.5929
 31
0.0
  0
LINE
  8
0
 62
     0
 10
216.745
 20
25.5929
 30
0.0
 11
215.944
 21
25.5929
 31
0.0
  0
LINE
  8
0
 62
     0
 10
215.944
 20
25.5929
 30
0.0
 11
215.944
 21
22.4937
 31
0.0
  0
LINE
  8
0
 62
     0
 10
215.944
 20
22.4937
 30
0.0
 11
216.745
 21
22.4937
 31
0.0
  0
LINE
  8
0
 62
     0
 10
216.745
 20
22.4937
 30
0.0
 11
216.745
 21
21.4946
 31
0.0
  0
LINE
  8
0
 62
     0
 10
216.745
 20
21.4946
 30
0.0
 11
230.746
 21
21.4946
 31
0.0
  0
LINE
  8
0
 62
     0
 10
230.746
 20
21.4946
 30
0.0
 11
230.746
 21
22.4937
 31
0.0
  0
LINE
  8
0
 62
     0
 10
230.746
 20
22.4937
 30
0.0
 11
231.545
 21
22.4937
 31
0.0
  0
LINE
  8
0
 62
     0
 10
231.545
 20
22.4937
 30
0.0
 11
231.545
 21
25.5929
 31
0.0
  0
LINE
  8
0
 62
     0
 10
231.545
 20
25.5929
 30
0.0
 11
230.746
 21
25.5929
 31
0.0
  0
LINE
  8
0
 62
     0
 10
230.746
 20
25.5929
 30
0.0
 11
230.746
 21
31.3931
 31
0.0
  0
LINE
  8
0
 62
     0
 10
230.746
 20
31.3931
 30
0.0
 11
231.545
 21
31.3931
 31
0.0
  0
LINE
  8
0
 62
     0
 10
231.545
 20
31.3931
 30
0.0
 11
231.545
 21
34.4937
 31
0.0
  0
LINE
  8
0
 62
     0
 10
231.545
 20
34.4937
 30
0.0
 11
230.746
 21
34.4937
 31
0.0
  0
LINE
  8
0
 62
     0
 10
230.746
 20
34.4937
 30
0.0
 11
230.746
 21
35.494
 31
0.0
  0
LINE
  8
0
 62
     0
 10
230.746
 20
35.494
 30
0.0
 11
216.745
 21
35.494
 31
0.0
  0
LINE
  8
0
 62
     0
 10
235.795
 20
35.494
 30
0.0
 11
235.795
 21
34.4937
 31
0.0
  0
LINE
  8
0
 62
     0
 10
235.795
 20
34.4937
 30
0.0
 11
234.996
 21
34.4937
 31
0.0
  0
LINE
  8
0
 62
     0
 10
234.996
 20
34.4937
 30
0.0
 11
234.996
 21
31.3931
 31
0.0
  0
LINE
  8
0
 62
     0
 10
234.996
 20
31.3931
 30
0.0
 11
235.795
 21
31.3931
 31
0.0
  0
LINE
  8
0
 62
     0
 10
235.795
 20
31.3931
 30
0.0
 11
235.795
 21
25.5929
 31
0.0
  0
LINE
  8
0
 62
     0
 10
235.795
 20
25.5929
 30
0.0
 11
234.996
 21
25.5929
 31
0.0
  0
LINE
  8
0
 62
     0
 10
234.996
 20
25.5929
 30
0.0
 11
234.996
 21
22.4937
 31
0.0
  0
LINE
  8
0
 62
     0
 10
234.996
 20
22.4937
 30
0.0
 11
235.795
 21
22.4937
 31
0.0
  0
LINE
  8
0
 62
     0
 10
235.795
 20
22.4937
 30
0.0
 11
235.795
 21
21.4946
 31
0.0
  0
LINE
  8
0
 62
     0
 10
235.795
 20
21.4946
 30
0.0
 11
249.794
 21
21.4946
 31
0.0
  0
LINE
  8
0
 62
     0
 10
249.794
 20
21.4946
 30
0.0
 11
249.794
 21
22.4937
 31
0.0
  0
LINE
  8
0
 62
     0
 10
249.794
 20
22.4937
 30
0.0
 11
250.595
 21
22.4937
 31
0.0
  0
LINE
  8
0
 62
     0
 10
250.595
 20
22.4937
 30
0.0
 11
250.595
 21
25.5929
 31
0.0
  0
LINE
  8
0
 62
     0
 10
250.595
 20
25.5929
 30
0.0
 11
249.794
 21
25.5929
 31
0.0
  0
LINE
  8
0
 62
     0
 10
249.794
 20
25.5929
 30
0.0
 11
249.794
 21
31.3931
 31
0.0
  0
LINE
  8
0
 62
     0
 10
249.794
 20
31.3931
 30
0.0
 11
250.595
 21
31.3931
 31
0.0
  0
LINE
  8
0
 62
     0
 10
250.595
 20
31.3931
 30
0.0
 11
250.595
 21
34.4937
 31
0.0
  0
LINE
  8
0
 62
     0
 10
250.595
 20
34.4937
 30
0.0
 11
249.794
 21
34.4937
 31
0.0
  0
LINE
  8
0
 62
     0
 10
249.794
 20
34.4937
 30
0.0
 11
249.794
 21
35.494
 31
0.0
  0
LINE
  8
0
 62
     0
 10
249.794
 20
35.494
 30
0.0
 11
235.795
 21
35.494
 31
0.0
  0
LINE
  8
0
 62
     0
 10
257.225
 20
35.494
 30
0.0
 11
257.225
 21
34.4937
 31
0.0
  0
LINE
  8
0
 62
     0
 10
257.225
 20
34.4937
 30
0.0
 11
256.425
 21
34.4937
 31
0.0
  0
LINE
  8
0
 62
     0
 10
256.425
 20
34.4937
 30
0.0
 11
256.425
 21
31.3931
 31
0.0
  0
LINE
  8
0
 62
     0
 10
256.425
 20
31.3931
 30
0.0
 11
257.225
 21
31.3931
 31
0.0
  0
LINE
  8
0
 62
     0
 10
257.225
 20
31.3931
 30
0.0
 11
257.225
 21
25.5929
 31
0.0
  0
LINE
  8
0
 62
     0
 10
257.225
 20
25.5929
 30
0.0
 11
256.425
 21
25.5929
 31
0.0
  0
LINE
  8
0
 62
     0
 10
256.425
 20
25.5929
 30
0.0
 11
256.425
 21
22.4937
 31
0.0
  0
LINE
  8
0
 62
     0
 10
256.425
 20
22.4937
 30
0.0
 11
257.225
 21
22.4937
 31
0.0
  0
LINE
  8
0
 62
     0
 10
257.225
 20
22.4937
 30
0.0
 11
257.225
 21
21.4946
 31
0.0
  0
LINE
  8
0
 62
     0
 10
257.225
 20
21.4946
 30
0.0
 11
271.225
 21
21.4946
 31
0.0
  0
LINE
  8
0
 62
     0
 10
271.225
 20
21.4946
 30
0.0
 11
271.225
 21
22.4937
 31
0.0
  0
LINE
  8
0
 62
     0
 10
271.225
 20
22.4937
 30
0.0
 11
272.025
 21
22.4937
 31
0.0
  0
LINE
  8
0
 62
     0
 10
272.025
 20
22.4937
 30
0.0
 11
272.025
 21
25.5929
 31
0.0
  0
LINE
  8
0
 62
     0
 10
272.025
 20
25.5929
 30
0.0
 11
271.225
 21
25.5929
 31
0.0
  0
LINE
  8
0
 62
     0
 10
271.225
 20
25.5929
 30
0.0
 11
271.225
 21
31.3931
 31
0.0
  0
LINE
  8
0
 62
     0
 10
271.225
 20
31.3931
 30
0.0
 11
272.025
 21
31.3931
 31
0.0
  0
LINE
  8
0
 62
     0
 10
272.025
 20
31.3931
 30
0.0
 11
272.025
 21
34.4937
 31
0.0
  0
LINE
  8
0
 62
     0
 10
272.025
 20
34.4937
 30
0.0
 11
271.225
 21
34.4937
 31
0.0
  0
LINE
  8
0
 62
     0
 10
271.225
 20
34.4937
 30
0.0
 11
271.225
 21
35.494
 31
0.0
  0
LINE
  8
0
 62
     0
 10
271.225
 20
35.494
 30
0.0
 11
257.225
 21
35.494
 31
0.0
  0
LINE
  8
0
 62
     0
 10
9.57598
 20
54.544
 30
0.0
 11
9.57598
 21
53.5436
 31
0.0
  0
LINE
  8
0
 62
     0
 10
9.57598
 20
53.5436
 30
0.0
 11
8.77672
 21
53.5436
 31
0.0
  0
LINE
  8
0
 62
     0
 10
8.77672
 20
53.5436
 30
0.0
 11
8.77672
 21
50.4444
 31
0.0
  0
LINE
  8
0
 62
     0
 10
8.77672
 20
50.4444
 30
0.0
 11
9.57598
 21
50.4444
 31
0.0
  0
LINE
  8
0
 62
     0
 10
9.57598
 20
50.4444
 30
0.0
 11
9.57598
 21
44.643
 31
0.0
  0
LINE
  8
0
 62
     0
 10
9.57598
 20
44.643
 30
0.0
 11
8.77672
 21
44.643
 31
0.0
  0
LINE
  8
0
 62
     0
 10
8.77672
 20
44.643
 30
0.0
 11
8.77672
 21
41.5438
 31
0.0
  0
LINE
  8
0
 62
     0
 10
8.77672
 20
41.5438
 30
0.0
 11
9.57598
 21
41.5438
 31
0.0
  0
LINE
  8
0
 62
     0
 10
9.57598
 20
41.5438
 30
0.0
 11
9.57598
 21
40.5448
 31
0.0
  0
LINE
  8
0
 62
     0
 10
9.57598
 20
40.5448
 30
0.0
 11
23.5768
 21
40.5448
 31
0.0
  0
LINE
  8
0
 62
     0
 10
23.5768
 20
40.5448
 30
0.0
 11
23.5768
 21
41.5438
 31
0.0
  0
LINE
  8
0
 62
     0
 10
23.5768
 20
41.5438
 30
0.0
 11
24.3761
 21
41.5438
 31
0.0
  0
LINE
  8
0
 62
     0
 10
24.3761
 20
41.5438
 30
0.0
 11
24.3761
 21
44.643
 31
0.0
  0
LINE
  8
0
 62
     0
 10
24.3761
 20
44.643
 30
0.0
 11
23.5768
 21
44.643
 31
0.0
  0
LINE
  8
0
 62
     0
 10
23.5768
 20
44.643
 30
0.0
 11
23.5768
 21
50.4444
 31
0.0
  0
LINE
  8
0
 62
     0
 10
23.5768
 20
50.4444
 30
0.0
 11
24.3761
 21
50.4444
 31
0.0
  0
LINE
  8
0
 62
     0
 10
24.3761
 20
50.4444
 30
0.0
 11
24.3761
 21
53.5436
 31
0.0
  0
LINE
  8
0
 62
     0
 10
24.3761
 20
53.5436
 30
0.0
 11
23.5768
 21
53.5436
 31
0.0
  0
LINE
  8
0
 62
     0
 10
23.5768
 20
53.5436
 30
0.0
 11
23.5768
 21
54.544
 31
0.0
  0
LINE
  8
0
 62
     0
 10
23.5768
 20
54.544
 30
0.0
 11
9.57598
 21
54.544
 31
0.0
  0
LINE
  8
0
 62
     0
 10
35.7699
 20
54.544
 30
0.0
 11
35.7699
 21
53.5436
 31
0.0
  0
LINE
  8
0
 62
     0
 10
35.7699
 20
53.5436
 30
0.0
 11
34.9705
 21
53.5436
 31
0.0
  0
LINE
  8
0
 62
     0
 10
34.9705
 20
53.5436
 30
0.0
 11
34.9705
 21
50.4444
 31
0.0
  0
LINE
  8
0
 62
     0
 10
34.9705
 20
50.4444
 30
0.0
 11
35.7699
 21
50.4444
 31
0.0
  0
LINE
  8
0
 62
     0
 10
35.7699
 20
50.4444
 30
0.0
 11
35.7699
 21
44.643
 31
0.0
  0
LINE
  8
0
 62
     0
 10
35.7699
 20
44.643
 30
0.0
 11
34.9705
 21
44.643
 31
0.0
  0
LINE
  8
0
 62
     0
 10
34.9705
 20
44.643
 30
0.0
 11
34.9705
 21
41.5438
 31
0.0
  0
LINE
  8
0
 62
     0
 10
34.9705
 20
41.5438
 30
0.0
 11
35.7699
 21
41.5438
 31
0.0
  0
LINE
  8
0
 62
     0
 10
35.7699
 20
41.5438
 30
0.0
 11
35.7699
 21
40.5448
 31
0.0
  0
LINE
  8
0
 62
     0
 10
35.7699
 20
40.5448
 30
0.0
 11
49.7706
 21
40.5448
 31
0.0
  0
LINE
  8
0
 62
     0
 10
49.7706
 20
40.5448
 30
0.0
 11
49.7706
 21
41.5438
 31
0.0
  0
LINE
  8
0
 62
     0
 10
49.7706
 20
41.5438
 30
0.0
 11
50.5686
 21
41.5438
 31
0.0
  0
LINE
  8
0
 62
     0
 10
50.5686
 20
41.5438
 30
0.0
 11
50.5686
 21
44.643
 31
0.0
  0
LINE
  8
0
 62
     0
 10
50.5686
 20
44.643
 30
0.0
 11
49.7706
 21
44.643
 31
0.0
  0
LINE
  8
0
 62
     0
 10
49.7706
 20
44.643
 30
0.0
 11
49.7706
 21
50.4444
 31
0.0
  0
LINE
  8
0
 62
     0
 10
49.7706
 20
50.4444
 30
0.0
 11
50.5686
 21
50.4444
 31
0.0
  0
LINE
  8
0
 62
     0
 10
50.5686
 20
50.4444
 30
0.0
 11
50.5686
 21
53.5436
 31
0.0
  0
LINE
  8
0
 62
     0
 10
50.5686
 20
53.5436
 30
0.0
 11
49.7706
 21
53.5436
 31
0.0
  0
LINE
  8
0
 62
     0
 10
49.7706
 20
53.5436
 30
0.0
 11
49.7706
 21
54.544
 31
0.0
  0
LINE
  8
0
 62
     0
 10
49.7706
 20
54.544
 30
0.0
 11
35.7699
 21
54.544
 31
0.0
  0
LINE
  8
0
 62
     0
 10
54.8185
 20
54.544
 30
0.0
 11
54.8185
 21
53.5436
 31
0.0
  0
LINE
  8
0
 62
     0
 10
54.8185
 20
53.5436
 30
0.0
 11
54.0205
 21
53.5436
 31
0.0
  0
LINE
  8
0
 62
     0
 10
54.0205
 20
53.5436
 30
0.0
 11
54.0205
 21
50.4444
 31
0.0
  0
LINE
  8
0
 62
     0
 10
54.0205
 20
50.4444
 30
0.0
 11
54.8185
 21
50.4444
 31
0.0
  0
LINE
  8
0
 62
     0
 10
54.8185
 20
50.4444
 30
0.0
 11
54.8185
 21
44.643
 31
0.0
  0
LINE
  8
0
 62
     0
 10
54.8185
 20
44.643
 30
0.0
 11
54.0205
 21
44.643
 31
0.0
  0
LINE
  8
0
 62
     0
 10
54.0205
 20
44.643
 30
0.0
 11
54.0205
 21
41.5438
 31
0.0
  0
LINE
  8
0
 62
     0
 10
54.0205
 20
41.5438
 30
0.0
 11
54.8185
 21
41.5438
 31
0.0
  0
LINE
  8
0
 62
     0
 10
54.8185
 20
41.5438
 30
0.0
 11
54.8185
 21
40.5448
 31
0.0
  0
LINE
  8
0
 62
     0
 10
54.8185
 20
40.5448
 30
0.0
 11
68.8192
 21
40.5448
 31
0.0
  0
LINE
  8
0
 62
     0
 10
68.8192
 20
40.5448
 30
0.0
 11
68.8192
 21
41.5438
 31
0.0
  0
LINE
  8
0
 62
     0
 10
68.8192
 20
41.5438
 30
0.0
 11
69.62
 21
41.5438
 31
0.0
  0
LINE
  8
0
 62
     0
 10
69.62
 20
41.5438
 30
0.0
 11
69.62
 21
44.643
 31
0.0
  0
LINE
  8
0
 62
     0
 10
69.62
 20
44.643
 30
0.0
 11
68.8192
 21
44.643
 31
0.0
  0
LINE
  8
0
 62
     0
 10
68.8192
 20
44.643
 30
0.0
 11
68.8192
 21
50.4444
 31
0.0
  0
LINE
  8
0
 62
     0
 10
68.8192
 20
50.4444
 30
0.0
 11
69.62
 21
50.4444
 31
0.0
  0
LINE
  8
0
 62
     0
 10
69.62
 20
50.4444
 30
0.0
 11
69.62
 21
53.5436
 31
0.0
  0
LINE
  8
0
 62
     0
 10
69.62
 20
53.5436
 30
0.0
 11
68.8192
 21
53.5436
 31
0.0
  0
LINE
  8
0
 62
     0
 10
68.8192
 20
53.5436
 30
0.0
 11
68.8192
 21
54.544
 31
0.0
  0
LINE
  8
0
 62
     0
 10
68.8192
 20
54.544
 30
0.0
 11
54.8185
 21
54.544
 31
0.0
  0
LINE
  8
0
 62
     0
 10
73.8699
 20
54.544
 30
0.0
 11
73.8699
 21
53.5436
 31
0.0
  0
LINE
  8
0
 62
     0
 10
73.8699
 20
53.5436
 30
0.0
 11
73.0691
 21
53.5436
 31
0.0
  0
LINE
  8
0
 62
     0
 10
73.0691
 20
53.5436
 30
0.0
 11
73.0691
 21
50.4444
 31
0.0
  0
LINE
  8
0
 62
     0
 10
73.0691
 20
50.4444
 30
0.0
 11
73.8699
 21
50.4444
 31
0.0
  0
LINE
  8
0
 62
     0
 10
73.8699
 20
50.4444
 30
0.0
 11
73.8699
 21
44.643
 31
0.0
  0
LINE
  8
0
 62
     0
 10
73.8699
 20
44.643
 30
0.0
 11
73.0691
 21
44.643
 31
0.0
  0
LINE
  8
0
 62
     0
 10
73.0691
 20
44.643
 30
0.0
 11
73.0691
 21
41.5438
 31
0.0
  0
LINE
  8
0
 62
     0
 10
73.0691
 20
41.5438
 30
0.0
 11
73.8699
 21
41.5438
 31
0.0
  0
LINE
  8
0
 62
     0
 10
73.8699
 20
41.5438
 30
0.0
 11
73.8699
 21
40.5448
 31
0.0
  0
LINE
  8
0
 62
     0
 10
73.8699
 20
40.5448
 30
0.0
 11
87.8692
 21
40.5448
 31
0.0
  0
LINE
  8
0
 62
     0
 10
87.8692
 20
40.5448
 30
0.0
 11
87.8692
 21
41.5438
 31
0.0
  0
LINE
  8
0
 62
     0
 10
87.8692
 20
41.5438
 30
0.0
 11
88.67
 21
41.5438
 31
0.0
  0
LINE
  8
0
 62
     0
 10
88.67
 20
41.5438
 30
0.0
 11
88.67
 21
44.643
 31
0.0
  0
LINE
  8
0
 62
     0
 10
88.67
 20
44.643
 30
0.0
 11
87.8692
 21
44.643
 31
0.0
  0
LINE
  8
0
 62
     0
 10
87.8692
 20
44.643
 30
0.0
 11
87.8692
 21
50.4444
 31
0.0
  0
LINE
  8
0
 62
     0
 10
87.8692
 20
50.4444
 30
0.0
 11
88.67
 21
50.4444
 31
0.0
  0
LINE
  8
0
 62
     0
 10
88.67
 20
50.4444
 30
0.0
 11
88.67
 21
53.5436
 31
0.0
  0
LINE
  8
0
 62
     0
 10
88.67
 20
53.5436
 30
0.0
 11
87.8692
 21
53.5436
 31
0.0
  0
LINE
  8
0
 62
     0
 10
87.8692
 20
53.5436
 30
0.0
 11
87.8692
 21
54.544
 31
0.0
  0
LINE
  8
0
 62
     0
 10
87.8692
 20
54.544
 30
0.0
 11
73.8699
 21
54.544
 31
0.0
  0
LINE
  8
0
 62
     0
 10
92.9199
 20
54.544
 30
0.0
 11
92.9199
 21
53.5436
 31
0.0
  0
LINE
  8
0
 62
     0
 10
92.9199
 20
53.5436
 30
0.0
 11
92.1191
 21
53.5436
 31
0.0
  0
LINE
  8
0
 62
     0
 10
92.1191
 20
53.5436
 30
0.0
 11
92.1191
 21
50.4444
 31
0.0
  0
LINE
  8
0
 62
     0
 10
92.1191
 20
50.4444
 30
0.0
 11
92.9199
 21
50.4444
 31
0.0
  0
LINE
  8
0
 62
     0
 10
92.9199
 20
50.4444
 30
0.0
 11
92.9199
 21
44.643
 31
0.0
  0
LINE
  8
0
 62
     0
 10
92.9199
 20
44.643
 30
0.0
 11
92.1191
 21
44.643
 31
0.0
  0
LINE
  8
0
 62
     0
 10
92.1191
 20
44.643
 30
0.0
 11
92.1191
 21
41.5438
 31
0.0
  0
LINE
  8
0
 62
     0
 10
92.1191
 20
41.5438
 30
0.0
 11
92.9199
 21
41.5438
 31
0.0
  0
LINE
  8
0
 62
     0
 10
92.9199
 20
41.5438
 30
0.0
 11
92.9199
 21
40.5448
 31
0.0
  0
LINE
  8
0
 62
     0
 10
92.9199
 20
40.5448
 30
0.0
 11
106.919
 21
40.5448
 31
0.0
  0
LINE
  8
0
 62
     0
 10
106.919
 20
40.5448
 30
0.0
 11
106.919
 21
41.5438
 31
0.0
  0
LINE
  8
0
 62
     0
 10
106.919
 20
41.5438
 30
0.0
 11
107.719
 21
41.5438
 31
0.0
  0
LINE
  8
0
 62
     0
 10
107.719
 20
41.5438
 30
0.0
 11
107.719
 21
44.643
 31
0.0
  0
LINE
  8
0
 62
     0
 10
107.719
 20
44.643
 30
0.0
 11
106.919
 21
44.643
 31
0.0
  0
LINE
  8
0
 62
     0
 10
106.919
 20
44.643
 30
0.0
 11
106.919
 21
50.4444
 31
0.0
  0
LINE
  8
0
 62
     0
 10
106.919
 20
50.4444
 30
0.0
 11
107.719
 21
50.4444
 31
0.0
  0
LINE
  8
0
 62
     0
 10
107.719
 20
50.4444
 30
0.0
 11
107.719
 21
53.5436
 31
0.0
  0
LINE
  8
0
 62
     0
 10
107.719
 20
53.5436
 30
0.0
 11
106.919
 21
53.5436
 31
0.0
  0
LINE
  8
0
 62
     0
 10
106.919
 20
53.5436
 30
0.0
 11
106.919
 21
54.544
 31
0.0
  0
LINE
  8
0
 62
     0
 10
106.919
 20
54.544
 30
0.0
 11
92.9199
 21
54.544
 31
0.0
  0
LINE
  8
0
 62
     0
 10
111.968
 20
54.544
 30
0.0
 11
111.968
 21
53.5436
 31
0.0
  0
LINE
  8
0
 62
     0
 10
111.968
 20
53.5436
 30
0.0
 11
111.169
 21
53.5436
 31
0.0
  0
LINE
  8
0
 62
     0
 10
111.169
 20
53.5436
 30
0.0
 11
111.169
 21
50.4444
 31
0.0
  0
LINE
  8
0
 62
     0
 10
111.169
 20
50.4444
 30
0.0
 11
111.968
 21
50.4444
 31
0.0
  0
LINE
  8
0
 62
     0
 10
111.968
 20
50.4444
 30
0.0
 11
111.968
 21
44.643
 31
0.0
  0
LINE
  8
0
 62
     0
 10
111.968
 20
44.643
 30
0.0
 11
111.169
 21
44.643
 31
0.0
  0
LINE
  8
0
 62
     0
 10
111.169
 20
44.643
 30
0.0
 11
111.169
 21
41.5438
 31
0.0
  0
LINE
  8
0
 62
     0
 10
111.169
 20
41.5438
 30
0.0
 11
111.968
 21
41.5438
 31
0.0
  0
LINE
  8
0
 62
     0
 10
111.968
 20
41.5438
 30
0.0
 11
111.968
 21
40.5448
 31
0.0
  0
LINE
  8
0
 62
     0
 10
111.968
 20
40.5448
 30
0.0
 11
125.971
 21
40.5448
 31
0.0
  0
LINE
  8
0
 62
     0
 10
125.971
 20
40.5448
 30
0.0
 11
125.971
 21
41.5438
 31
0.0
  0
LINE
  8
0
 62
     0
 10
125.971
 20
41.5438
 30
0.0
 11
126.77
 21
41.5438
 31
0.0
  0
LINE
  8
0
 62
     0
 10
126.77
 20
41.5438
 30
0.0
 11
126.77
 21
44.643
 31
0.0
  0
LINE
  8
0
 62
     0
 10
126.77
 20
44.643
 30
0.0
 11
125.971
 21
44.643
 31
0.0
  0
LINE
  8
0
 62
     0
 10
125.971
 20
44.643
 30
0.0
 11
125.971
 21
50.4444
 31
0.0
  0
LINE
  8
0
 62
     0
 10
125.971
 20
50.4444
 30
0.0
 11
126.77
 21
50.4444
 31
0.0
  0
LINE
  8
0
 62
     0
 10
126.77
 20
50.4444
 30
0.0
 11
126.77
 21
53.5436
 31
0.0
  0
LINE
  8
0
 62
     0
 10
126.77
 20
53.5436
 30
0.0
 11
125.971
 21
53.5436
 31
0.0
  0
LINE
  8
0
 62
     0
 10
125.971
 20
53.5436
 30
0.0
 11
125.971
 21
54.544
 31
0.0
  0
LINE
  8
0
 62
     0
 10
125.971
 20
54.544
 30
0.0
 11
111.968
 21
54.544
 31
0.0
  0
LINE
  8
0
 62
     0
 10
131.02
 20
54.544
 30
0.0
 11
131.02
 21
53.5436
 31
0.0
  0
LINE
  8
0
 62
     0
 10
131.02
 20
53.5436
 30
0.0
 11
130.218
 21
53.5436
 31
0.0
  0
LINE
  8
0
 62
     0
 10
130.218
 20
53.5436
 30
0.0
 11
130.218
 21
50.4444
 31
0.0
  0
LINE
  8
0
 62
     0
 10
130.218
 20
50.4444
 30
0.0
 11
131.02
 21
50.4444
 31
0.0
  0
LINE
  8
0
 62
     0
 10
131.02
 20
50.4444
 30
0.0
 11
131.02
 21
44.643
 31
0.0
  0
LINE
  8
0
 62
     0
 10
131.02
 20
44.643
 30
0.0
 11
130.218
 21
44.643
 31
0.0
  0
LINE
  8
0
 62
     0
 10
130.218
 20
44.643
 30
0.0
 11
130.218
 21
41.5438
 31
0.0
  0
LINE
  8
0
 62
     0
 10
130.218
 20
41.5438
 30
0.0
 11
131.02
 21
41.5438
 31
0.0
  0
LINE
  8
0
 62
     0
 10
131.02
 20
41.5438
 30
0.0
 11
131.02
 21
40.5448
 31
0.0
  0
LINE
  8
0
 62
     0
 10
131.02
 20
40.5448
 30
0.0
 11
145.019
 21
40.5448
 31
0.0
  0
LINE
  8
0
 62
     0
 10
145.019
 20
40.5448
 30
0.0
 11
145.019
 21
41.5438
 31
0.0
  0
LINE
  8
0
 62
     0
 10
145.019
 20
41.5438
 30
0.0
 11
145.82
 21
41.5438
 31
0.0
  0
LINE
  8
0
 62
     0
 10
145.82
 20
41.5438
 30
0.0
 11
145.82
 21
44.643
 31
0.0
  0
LINE
  8
0
 62
     0
 10
145.82
 20
44.643
 30
0.0
 11
145.019
 21
44.643
 31
0.0
  0
LINE
  8
0
 62
     0
 10
145.019
 20
44.643
 30
0.0
 11
145.019
 21
50.4444
 31
0.0
  0
LINE
  8
0
 62
     0
 10
145.019
 20
50.4444
 30
0.0
 11
145.82
 21
50.4444
 31
0.0
  0
LINE
  8
0
 62
     0
 10
145.82
 20
50.4444
 30
0.0
 11
145.82
 21
53.5436
 31
0.0
  0
LINE
  8
0
 62
     0
 10
145.82
 20
53.5436
 30
0.0
 11
145.019
 21
53.5436
 31
0.0
  0
LINE
  8
0
 62
     0
 10
145.019
 20
53.5436
 30
0.0
 11
145.019
 21
54.544
 31
0.0
  0
LINE
  8
0
 62
     0
 10
145.019
 20
54.544
 30
0.0
 11
131.02
 21
54.544
 31
0.0
  0
LINE
  8
0
 62
     0
 10
150.07
 20
54.544
 30
0.0
 11
150.07
 21
53.5436
 31
0.0
  0
LINE
  8
0
 62
     0
 10
150.07
 20
53.5436
 30
0.0
 11
149.269
 21
53.5436
 31
0.0
  0
LINE
  8
0
 62
     0
 10
149.269
 20
53.5436
 30
0.0
 11
149.269
 21
50.4444
 31
0.0
  0
LINE
  8
0
 62
     0
 10
149.269
 20
50.4444
 30
0.0
 11
150.07
 21
50.4444
 31
0.0
  0
LINE
  8
0
 62
     0
 10
150.07
 20
50.4444
 30
0.0
 11
150.07
 21
44.643
 31
0.0
  0
LINE
  8
0
 62
     0
 10
150.07
 20
44.643
 30
0.0
 11
149.269
 21
44.643
 31
0.0
  0
LINE
  8
0
 62
     0
 10
149.269
 20
44.643
 30
0.0
 11
149.269
 21
41.5438
 31
0.0
  0
LINE
  8
0
 62
     0
 10
149.269
 20
41.5438
 30
0.0
 11
150.07
 21
41.5438
 31
0.0
  0
LINE
  8
0
 62
     0
 10
150.07
 20
41.5438
 30
0.0
 11
150.07
 21
40.5448
 31
0.0
  0
LINE
  8
0
 62
     0
 10
150.07
 20
40.5448
 30
0.0
 11
164.069
 21
40.5448
 31
0.0
  0
LINE
  8
0
 62
     0
 10
164.069
 20
40.5448
 30
0.0
 11
164.069
 21
41.5438
 31
0.0
  0
LINE
  8
0
 62
     0
 10
164.069
 20
41.5438
 30
0.0
 11
164.87
 21
41.5438
 31
0.0
  0
LINE
  8
0
 62
     0
 10
164.87
 20
41.5438
 30
0.0
 11
164.87
 21
44.643
 31
0.0
  0
LINE
  8
0
 62
     0
 10
164.87
 20
44.643
 30
0.0
 11
164.069
 21
44.643
 31
0.0
  0
LINE
  8
0
 62
     0
 10
164.069
 20
44.643
 30
0.0
 11
164.069
 21
50.4444
 31
0.0
  0
LINE
  8
0
 62
     0
 10
164.069
 20
50.4444
 30
0.0
 11
164.87
 21
50.4444
 31
0.0
  0
LINE
  8
0
 62
     0
 10
164.87
 20
50.4444
 30
0.0
 11
164.87
 21
53.5436
 31
0.0
  0
LINE
  8
0
 62
     0
 10
164.87
 20
53.5436
 30
0.0
 11
164.069
 21
53.5436
 31
0.0
  0
LINE
  8
0
 62
     0
 10
164.069
 20
53.5436
 30
0.0
 11
164.069
 21
54.544
 31
0.0
  0
LINE
  8
0
 62
     0
 10
164.069
 20
54.544
 30
0.0
 11
150.07
 21
54.544
 31
0.0
  0
LINE
  8
0
 62
     0
 10
169.12
 20
54.544
 30
0.0
 11
169.12
 21
53.5436
 31
0.0
  0
LINE
  8
0
 62
     0
 10
169.12
 20
53.5436
 30
0.0
 11
168.319
 21
53.5436
 31
0.0
  0
LINE
  8
0
 62
     0
 10
168.319
 20
53.5436
 30
0.0
 11
168.319
 21
50.4444
 31
0.0
  0
LINE
  8
0
 62
     0
 10
168.319
 20
50.4444
 30
0.0
 11
169.12
 21
50.4444
 31
0.0
  0
LINE
  8
0
 62
     0
 10
169.12
 20
50.4444
 30
0.0
 11
169.12
 21
44.643
 31
0.0
  0
LINE
  8
0
 62
     0
 10
169.12
 20
44.643
 30
0.0
 11
168.319
 21
44.643
 31
0.0
  0
LINE
  8
0
 62
     0
 10
168.319
 20
44.643
 30
0.0
 11
168.319
 21
41.5438
 31
0.0
  0
LINE
  8
0
 62
     0
 10
168.319
 20
41.5438
 30
0.0
 11
169.12
 21
41.5438
 31
0.0
  0
LINE
  8
0
 62
     0
 10
169.12
 20
41.5438
 30
0.0
 11
169.12
 21
40.5448
 31
0.0
  0
LINE
  8
0
 62
     0
 10
169.12
 20
40.5448
 30
0.0
 11
183.121
 21
40.5448
 31
0.0
  0
LINE
  8
0
 62
     0
 10
183.121
 20
40.5448
 30
0.0
 11
183.121
 21
41.5438
 31
0.0
  0
LINE
  8
0
 62
     0
 10
183.121
 20
41.5438
 30
0.0
 11
183.92
 21
41.5438
 31
0.0
  0
LINE
  8
0
 62
     0
 10
183.92
 20
41.5438
 30
0.0
 11
183.92
 21
44.643
 31
0.0
  0
LINE
  8
0
 62
     0
 10
183.92
 20
44.643
 30
0.0
 11
183.121
 21
44.643
 31
0.0
  0
LINE
  8
0
 62
     0
 10
183.121
 20
44.643
 30
0.0
 11
183.121
 21
50.4444
 31
0.0
  0
LINE
  8
0
 62
     0
 10
183.121
 20
50.4444
 30
0.0
 11
183.92
 21
50.4444
 31
0.0
  0
LINE
  8
0
 62
     0
 10
183.92
 20
50.4444
 30
0.0
 11
183.92
 21
53.5436
 31
0.0
  0
LINE
  8
0
 62
     0
 10
183.92
 20
53.5436
 30
0.0
 11
183.121
 21
53.5436
 31
0.0
  0
LINE
  8
0
 62
     0
 10
183.121
 20
53.5436
 30
0.0
 11
183.121
 21
54.544
 31
0.0
  0
LINE
  8
0
 62
     0
 10
183.121
 20
54.544
 30
0.0
 11
169.12
 21
54.544
 31
0.0
  0
LINE
  8
0
 62
     0
 10
188.17
 20
54.544
 30
0.0
 11
188.17
 21
53.5436
 31
0.0
  0
LINE
  8
0
 62
     0
 10
188.17
 20
53.5436
 30
0.0
 11
187.371
 21
53.5436
 31
0.0
  0
LINE
  8
0
 62
     0
 10
187.371
 20
53.5436
 30
0.0
 11
187.371
 21
50.4444
 31
0.0
  0
LINE
  8
0
 62
     0
 10
187.371
 20
50.4444
 30
0.0
 11
188.17
 21
50.4444
 31
0.0
  0
LINE
  8
0
 62
     0
 10
188.17
 20
50.4444
 30
0.0
 11
188.17
 21
44.643
 31
0.0
  0
LINE
  8
0
 62
     0
 10
188.17
 20
44.643
 30
0.0
 11
187.371
 21
44.643
 31
0.0
  0
LINE
  8
0
 62
     0
 10
187.371
 20
44.643
 30
0.0
 11
187.371
 21
41.5438
 31
0.0
  0
LINE
  8
0
 62
     0
 10
187.371
 20
41.5438
 30
0.0
 11
188.17
 21
41.5438
 31
0.0
  0
LINE
  8
0
 62
     0
 10
188.17
 20
41.5438
 30
0.0
 11
188.17
 21
40.5448
 31
0.0
  0
LINE
  8
0
 62
     0
 10
188.17
 20
40.5448
 30
0.0
 11
202.169
 21
40.5448
 31
0.0
  0
LINE
  8
0
 62
     0
 10
202.169
 20
40.5448
 30
0.0
 11
202.169
 21
41.5438
 31
0.0
  0
LINE
  8
0
 62
     0
 10
202.169
 20
41.5438
 30
0.0
 11
202.97
 21
41.5438
 31
0.0
  0
LINE
  8
0
 62
     0
 10
202.97
 20
41.5438
 30
0.0
 11
202.97
 21
44.643
 31
0.0
  0
LINE
  8
0
 62
     0
 10
202.97
 20
44.643
 30
0.0
 11
202.169
 21
44.643
 31
0.0
  0
LINE
  8
0
 62
     0
 10
202.169
 20
44.643
 30
0.0
 11
202.169
 21
50.4444
 31
0.0
  0
LINE
  8
0
 62
     0
 10
202.169
 20
50.4444
 30
0.0
 11
202.97
 21
50.4444
 31
0.0
  0
LINE
  8
0
 62
     0
 10
202.97
 20
50.4444
 30
0.0
 11
202.97
 21
53.5436
 31
0.0
  0
LINE
  8
0
 62
     0
 10
202.97
 20
53.5436
 30
0.0
 11
202.169
 21
53.5436
 31
0.0
  0
LINE
  8
0
 62
     0
 10
202.169
 20
53.5436
 30
0.0
 11
202.169
 21
54.544
 31
0.0
  0
LINE
  8
0
 62
     0
 10
202.169
 20
54.544
 30
0.0
 11
188.17
 21
54.544
 31
0.0
  0
LINE
  8
0
 62
     0
 10
207.22
 20
54.544
 30
0.0
 11
207.22
 21
53.5436
 31
0.0
  0
LINE
  8
0
 62
     0
 10
207.22
 20
53.5436
 30
0.0
 11
206.419
 21
53.5436
 31
0.0
  0
LINE
  8
0
 62
     0
 10
206.419
 20
53.5436
 30
0.0
 11
206.419
 21
50.4444
 31
0.0
  0
LINE
  8
0
 62
     0
 10
206.419
 20
50.4444
 30
0.0
 11
207.22
 21
50.4444
 31
0.0
  0
LINE
  8
0
 62
     0
 10
207.22
 20
50.4444
 30
0.0
 11
207.22
 21
44.643
 31
0.0
  0
LINE
  8
0
 62
     0
 10
207.22
 20
44.643
 30
0.0
 11
206.419
 21
44.643
 31
0.0
  0
LINE
  8
0
 62
     0
 10
206.419
 20
44.643
 30
0.0
 11
206.419
 21
41.5438
 31
0.0
  0
LINE
  8
0
 62
     0
 10
206.419
 20
41.5438
 30
0.0
 11
207.22
 21
41.5438
 31
0.0
  0
LINE
  8
0
 62
     0
 10
207.22
 20
41.5438
 30
0.0
 11
207.22
 21
40.5448
 31
0.0
  0
LINE
  8
0
 62
     0
 10
207.22
 20
40.5448
 30
0.0
 11
221.221
 21
40.5448
 31
0.0
  0
LINE
  8
0
 62
     0
 10
221.221
 20
40.5448
 30
0.0
 11
221.221
 21
41.5438
 31
0.0
  0
LINE
  8
0
 62
     0
 10
221.221
 20
41.5438
 30
0.0
 11
222.02
 21
41.5438
 31
0.0
  0
LINE
  8
0
 62
     0
 10
222.02
 20
41.5438
 30
0.0
 11
222.02
 21
44.643
 31
0.0
  0
LINE
  8
0
 62
     0
 10
222.02
 20
44.643
 30
0.0
 11
221.221
 21
44.643
 31
0.0
  0
LINE
  8
0
 62
     0
 10
221.221
 20
44.643
 30
0.0
 11
221.221
 21
50.4444
 31
0.0
  0
LINE
  8
0
 62
     0
 10
221.221
 20
50.4444
 30
0.0
 11
222.02
 21
50.4444
 31
0.0
  0
LINE
  8
0
 62
     0
 10
222.02
 20
50.4444
 30
0.0
 11
222.02
 21
53.5436
 31
0.0
  0
LINE
  8
0
 62
     0
 10
222.02
 20
53.5436
 30
0.0
 11
221.221
 21
53.5436
 31
0.0
  0
LINE
  8
0
 62
     0
 10
221.221
 20
53.5436
 30
0.0
 11
221.221
 21
54.544
 31
0.0
  0
LINE
  8
0
 62
     0
 10
221.221
 20
54.544
 30
0.0
 11
207.22
 21
54.544
 31
0.0
  0
LINE
  8
0
 62
     0
 10
226.27
 20
54.544
 30
0.0
 11
226.27
 21
53.5436
 31
0.0
  0
LINE
  8
0
 62
     0
 10
226.27
 20
53.5436
 30
0.0
 11
225.471
 21
53.5436
 31
0.0
  0
LINE
  8
0
 62
     0
 10
225.471
 20
53.5436
 30
0.0
 11
225.471
 21
50.4444
 31
0.0
  0
LINE
  8
0
 62
     0
 10
225.471
 20
50.4444
 30
0.0
 11
226.27
 21
50.4444
 31
0.0
  0
LINE
  8
0
 62
     0
 10
226.27
 20
50.4444
 30
0.0
 11
226.27
 21
44.643
 31
0.0
  0
LINE
  8
0
 62
     0
 10
226.27
 20
44.643
 30
0.0
 11
225.471
 21
44.643
 31
0.0
  0
LINE
  8
0
 62
     0
 10
225.471
 20
44.643
 30
0.0
 11
225.471
 21
41.5438
 31
0.0
  0
LINE
  8
0
 62
     0
 10
225.471
 20
41.5438
 30
0.0
 11
226.27
 21
41.5438
 31
0.0
  0
LINE
  8
0
 62
     0
 10
226.27
 20
41.5438
 30
0.0
 11
226.27
 21
40.5448
 31
0.0
  0
LINE
  8
0
 62
     0
 10
226.27
 20
40.5448
 30
0.0
 11
240.271
 21
40.5448
 31
0.0
  0
LINE
  8
0
 62
     0
 10
240.271
 20
40.5448
 30
0.0
 11
240.271
 21
41.5438
 31
0.0
  0
LINE
  8
0
 62
     0
 10
240.271
 20
41.5438
 30
0.0
 11
241.07
 21
41.5438
 31
0.0
  0
LINE
  8
0
 62
     0
 10
241.07
 20
41.5438
 30
0.0
 11
241.07
 21
44.643
 31
0.0
  0
LINE
  8
0
 62
     0
 10
241.07
 20
44.643
 30
0.0
 11
240.271
 21
44.643
 31
0.0
  0
LINE
  8
0
 62
     0
 10
240.271
 20
44.643
 30
0.0
 11
240.271
 21
50.4444
 31
0.0
  0
LINE
  8
0
 62
     0
 10
240.271
 20
50.4444
 30
0.0
 11
241.07
 21
50.4444
 31
0.0
  0
LINE
  8
0
 62
     0
 10
241.07
 20
50.4444
 30
0.0
 11
241.07
 21
53.5436
 31
0.0
  0
LINE
  8
0
 62
     0
 10
241.07
 20
53.5436
 30
0.0
 11
240.271
 21
53.5436
 31
0.0
  0
LINE
  8
0
 62
     0
 10
240.271
 20
53.5436
 30
0.0
 11
240.271
 21
54.544
 31
0.0
  0
LINE
  8
0
 62
     0
 10
240.271
 20
54.544
 30
0.0
 11
226.27
 21
54.544
 31
0.0
  0
LINE
  8
0
 62
     0
 10
252.462
 20
54.544
 30
0.0
 11
252.462
 21
53.5436
 31
0.0
  0
LINE
  8
0
 62
     0
 10
252.462
 20
53.5436
 30
0.0
 11
251.661
 21
53.5436
 31
0.0
  0
LINE
  8
0
 62
     0
 10
251.661
 20
53.5436
 30
0.0
 11
251.661
 21
50.4444
 31
0.0
  0
LINE
  8
0
 62
     0
 10
251.661
 20
50.4444
 30
0.0
 11
252.462
 21
50.4444
 31
0.0
  0
LINE
  8
0
 62
     0
 10
252.462
 20
50.4444
 30
0.0
 11
252.462
 21
44.643
 31
0.0
  0
LINE
  8
0
 62
     0
 10
252.462
 20
44.643
 30
0.0
 11
251.661
 21
44.643
 31
0.0
  0
LINE
  8
0
 62
     0
 10
251.661
 20
44.643
 30
0.0
 11
251.661
 21
41.5438
 31
0.0
  0
LINE
  8
0
 62
     0
 10
251.661
 20
41.5438
 30
0.0
 11
252.462
 21
41.5438
 31
0.0
  0
LINE
  8
0
 62
     0
 10
252.462
 20
41.5438
 30
0.0
 11
252.462
 21
40.5448
 31
0.0
  0
LINE
  8
0
 62
     0
 10
252.462
 20
40.5448
 30
0.0
 11
266.462
 21
40.5448
 31
0.0
  0
LINE
  8
0
 62
     0
 10
266.462
 20
40.5448
 30
0.0
 11
266.462
 21
41.5438
 31
0.0
  0
LINE
  8
0
 62
     0
 10
266.462
 20
41.5438
 30
0.0
 11
267.262
 21
41.5438
 31
0.0
  0
LINE
  8
0
 62
     0
 10
267.262
 20
41.5438
 30
0.0
 11
267.262
 21
44.643
 31
0.0
  0
LINE
  8
0
 62
     0
 10
267.262
 20
44.643
 30
0.0
 11
266.462
 21
44.643
 31
0.0
  0
LINE
  8
0
 62
     0
 10
266.462
 20
44.643
 30
0.0
 11
266.462
 21
50.4444
 31
0.0
  0
LINE
  8
0
 62
     0
 10
266.462
 20
50.4444
 30
0.0
 11
267.262
 21
50.4444
 31
0.0
  0
LINE
  8
0
 62
     0
 10
267.262
 20
50.4444
 30
0.0
 11
267.262
 21
53.5436
 31
0.0
  0
LINE
  8
0
 62
     0
 10
267.262
 20
53.5436
 30
0.0
 11
266.462
 21
53.5436
 31
0.0
  0
LINE
  8
0
 62
     0
 10
266.462
 20
53.5436
 30
0.0
 11
266.462
 21
54.544
 31
0.0
  0
LINE
  8
0
 62
     0
 10
266.462
 20
54.544
 30
0.0
 11
252.462
 21
54.544
 31
0.0
  0
LINE
  8
0
 62
     0
 10
122.947
 20
59.4459
 30
0.0
 11
122.251
 21
59.0903
 31
0.0
  0
LINE
  8
0
 62
     0
 10
122.251
 20
59.0903
 30
0.0
 11
121.697
 21
58.5378
 31
0.0
  0
LINE
  8
0
 62
     0
 10
121.697
 20
58.5378
 30
0.0
 11
121.342
 21
57.8404
 31
0.0
  0
LINE
  8
0
 62
     0
 10
121.342
 20
57.8404
 30
0.0
 11
121.22
 21
57.0689
 31
0.0
  0
LINE
  8
0
 62
     0
 10
121.22
 20
57.0689
 30
0.0
 11
121.342
 21
56.2956
 31
0.0
  0
LINE
  8
0
 62
     0
 10
121.342
 20
56.2956
 30
0.0
 11
121.697
 21
55.5995
 31
0.0
  0
LINE
  8
0
 62
     0
 10
121.697
 20
55.5995
 30
0.0
 11
122.251
 21
55.0457
 31
0.0
  0
LINE
  8
0
 62
     0
 10
122.251
 20
55.0457
 30
0.0
 11
122.947
 21
54.6915
 31
0.0
  0
LINE
  8
0
 62
     0
 10
122.947
 20
54.6915
 30
0.0
 11
123.72
 21
54.5677
 31
0.0
  0
LINE
  8
0
 62
     0
 10
123.72
 20
54.5677
 30
0.0
 11
124.494
 21
54.6915
 31
0.0
  0
LINE
  8
0
 62
     0
 10
124.494
 20
54.6915
 30
0.0
 11
125.188
 21
55.0457
 31
0.0
  0
LINE
  8
0
 62
     0
 10
125.188
 20
55.0457
 30
0.0
 11
125.743
 21
55.5995
 31
0.0
  0
LINE
  8
0
 62
     0
 10
125.743
 20
55.5995
 30
0.0
 11
126.097
 21
56.2956
 31
0.0
  0
LINE
  8
0
 62
     0
 10
126.097
 20
56.2956
 30
0.0
 11
126.22
 21
57.0689
 31
0.0
  0
LINE
  8
0
 62
     0
 10
126.22
 20
57.0689
 30
0.0
 11
126.097
 21
57.8404
 31
0.0
  0
LINE
  8
0
 62
     0
 10
126.097
 20
57.8404
 30
0.0
 11
125.743
 21
58.5378
 31
0.0
  0
LINE
  8
0
 62
     0
 10
125.743
 20
58.5378
 30
0.0
 11
125.188
 21
59.0903
 31
0.0
  0
LINE
  8
0
 62
     0
 10
125.188
 20
59.0903
 30
0.0
 11
124.494
 21
59.4459
 31
0.0
  0
LINE
  8
0
 62
     0
 10
124.494
 20
59.4459
 30
0.0
 11
123.72
 21
59.5683
 31
0.0
  0
LINE
  8
0
 62
     0
 10
123.72
 20
59.5683
 30
0.0
 11
122.947
 21
59.4459
 31
0.0
  0
LINE
  8
0
 62
     0
 10
7.19473
 20
73.5926
 30
0.0
 11
7.19473
 21
72.5936
 31
0.0
  0
LINE
  8
0
 62
     0
 10
7.19473
 20
72.5936
 30
0.0
 11
6.39547
 21
72.5936
 31
0.0
  0
LINE
  8
0
 62
     0
 10
6.39547
 20
72.5936
 30
0.0
 11
6.39547
 21
69.4944
 31
0.0
  0
LINE
  8
0
 62
     0
 10
6.39547
 20
69.4944
 30
0.0
 11
7.19473
 21
69.4944
 31
0.0
  0
LINE
  8
0
 62
     0
 10
7.19473
 20
69.4944
 30
0.0
 11
7.19473
 21
63.693
 31
0.0
  0
LINE
  8
0
 62
     0
 10
7.19473
 20
63.693
 30
0.0
 11
6.39547
 21
63.693
 31
0.0
  0
LINE
  8
0
 62
     0
 10
6.39547
 20
63.693
 30
0.0
 11
6.39547
 21
60.5938
 31
0.0
  0
LINE
  8
0
 62
     0
 10
6.39547
 20
60.5938
 30
0.0
 11
7.19473
 21
60.5938
 31
0.0
  0
LINE
  8
0
 62
     0
 10
7.19473
 20
60.5938
 30
0.0
 11
7.19473
 21
59.5933
 31
0.0
  0
LINE
  8
0
 62
     0
 10
7.19473
 20
59.5933
 30
0.0
 11
21.1956
 21
59.5933
 31
0.0
  0
LINE
  8
0
 62
     0
 10
21.1956
 20
59.5933
 30
0.0
 11
21.1956
 21
60.5938
 31
0.0
  0
LINE
  8
0
 62
     0
 10
21.1956
 20
60.5938
 30
0.0
 11
21.9949
 21
60.5938
 31
0.0
  0
LINE
  8
0
 62
     0
 10
21.9949
 20
60.5938
 30
0.0
 11
21.9949
 21
63.693
 31
0.0
  0
LINE
  8
0
 62
     0
 10
21.9949
 20
63.693
 30
0.0
 11
21.1956
 21
63.693
 31
0.0
  0
LINE
  8
0
 62
     0
 10
21.1956
 20
63.693
 30
0.0
 11
21.1956
 21
69.4944
 31
0.0
  0
LINE
  8
0
 62
     0
 10
21.1956
 20
69.4944
 30
0.0
 11
21.9949
 21
69.4944
 31
0.0
  0
LINE
  8
0
 62
     0
 10
21.9949
 20
69.4944
 30
0.0
 11
21.9949
 21
72.5936
 31
0.0
  0
LINE
  8
0
 62
     0
 10
21.9949
 20
72.5936
 30
0.0
 11
21.1956
 21
72.5936
 31
0.0
  0
LINE
  8
0
 62
     0
 10
21.1956
 20
72.5936
 30
0.0
 11
21.1956
 21
73.5926
 31
0.0
  0
LINE
  8
0
 62
     0
 10
21.1956
 20
73.5926
 30
0.0
 11
7.19473
 21
73.5926
 31
0.0
  0
LINE
  8
0
 62
     0
 10
31.0059
 20
73.5926
 30
0.0
 11
31.0059
 21
72.5936
 31
0.0
  0
LINE
  8
0
 62
     0
 10
31.0059
 20
72.5936
 30
0.0
 11
30.2066
 21
72.5936
 31
0.0
  0
LINE
  8
0
 62
     0
 10
30.2066
 20
72.5936
 30
0.0
 11
30.2066
 21
69.4944
 31
0.0
  0
LINE
  8
0
 62
     0
 10
30.2066
 20
69.4944
 30
0.0
 11
31.0059
 21
69.4944
 31
0.0
  0
LINE
  8
0
 62
     0
 10
31.0059
 20
69.4944
 30
0.0
 11
31.0059
 21
63.693
 31
0.0
  0
LINE
  8
0
 62
     0
 10
31.0059
 20
63.693
 30
0.0
 11
30.2066
 21
63.693
 31
0.0
  0
LINE
  8
0
 62
     0
 10
30.2066
 20
63.693
 30
0.0
 11
30.2066
 21
60.5938
 31
0.0
  0
LINE
  8
0
 62
     0
 10
30.2066
 20
60.5938
 30
0.0
 11
31.0059
 21
60.5938
 31
0.0
  0
LINE
  8
0
 62
     0
 10
31.0059
 20
60.5938
 30
0.0
 11
31.0059
 21
59.5933
 31
0.0
  0
LINE
  8
0
 62
     0
 10
31.0059
 20
59.5933
 30
0.0
 11
45.0067
 21
59.5933
 31
0.0
  0
LINE
  8
0
 62
     0
 10
45.0067
 20
59.5933
 30
0.0
 11
45.0067
 21
60.5938
 31
0.0
  0
LINE
  8
0
 62
     0
 10
45.0067
 20
60.5938
 30
0.0
 11
45.8075
 21
60.5938
 31
0.0
  0
LINE
  8
0
 62
     0
 10
45.8075
 20
60.5938
 30
0.0
 11
45.8075
 21
63.693
 31
0.0
  0
LINE
  8
0
 62
     0
 10
45.8075
 20
63.693
 30
0.0
 11
45.0067
 21
63.693
 31
0.0
  0
LINE
  8
0
 62
     0
 10
45.0067
 20
63.693
 30
0.0
 11
45.0067
 21
69.4944
 31
0.0
  0
LINE
  8
0
 62
     0
 10
45.0067
 20
69.4944
 30
0.0
 11
45.8075
 21
69.4944
 31
0.0
  0
LINE
  8
0
 62
     0
 10
45.8075
 20
69.4944
 30
0.0
 11
45.8075
 21
72.5936
 31
0.0
  0
LINE
  8
0
 62
     0
 10
45.8075
 20
72.5936
 30
0.0
 11
45.0067
 21
72.5936
 31
0.0
  0
LINE
  8
0
 62
     0
 10
45.0067
 20
72.5936
 30
0.0
 11
45.0067
 21
73.5926
 31
0.0
  0
LINE
  8
0
 62
     0
 10
45.0067
 20
73.5926
 30
0.0
 11
31.0059
 21
73.5926
 31
0.0
  0
LINE
  8
0
 62
     0
 10
50.0574
 20
73.5926
 30
0.0
 11
50.0574
 21
72.5936
 31
0.0
  0
LINE
  8
0
 62
     0
 10
50.0574
 20
72.5936
 30
0.0
 11
49.2566
 21
72.5936
 31
0.0
  0
LINE
  8
0
 62
     0
 10
49.2566
 20
72.5936
 30
0.0
 11
49.2566
 21
69.4944
 31
0.0
  0
LINE
  8
0
 62
     0
 10
49.2566
 20
69.4944
 30
0.0
 11
50.0574
 21
69.4944
 31
0.0
  0
LINE
  8
0
 62
     0
 10
50.0574
 20
69.4944
 30
0.0
 11
50.0574
 21
63.693
 31
0.0
  0
LINE
  8
0
 62
     0
 10
50.0574
 20
63.693
 30
0.0
 11
49.2566
 21
63.693
 31
0.0
  0
LINE
  8
0
 62
     0
 10
49.2566
 20
63.693
 30
0.0
 11
49.2566
 21
60.5938
 31
0.0
  0
LINE
  8
0
 62
     0
 10
49.2566
 20
60.5938
 30
0.0
 11
50.0574
 21
60.5938
 31
0.0
  0
LINE
  8
0
 62
     0
 10
50.0574
 20
60.5938
 30
0.0
 11
50.0574
 21
59.5933
 31
0.0
  0
LINE
  8
0
 62
     0
 10
50.0574
 20
59.5933
 30
0.0
 11
64.0567
 21
59.5933
 31
0.0
  0
LINE
  8
0
 62
     0
 10
64.0567
 20
59.5933
 30
0.0
 11
64.0567
 21
60.5938
 31
0.0
  0
LINE
  8
0
 62
     0
 10
64.0567
 20
60.5938
 30
0.0
 11
64.8575
 21
60.5938
 31
0.0
  0
LINE
  8
0
 62
     0
 10
64.8575
 20
60.5938
 30
0.0
 11
64.8575
 21
63.693
 31
0.0
  0
LINE
  8
0
 62
     0
 10
64.8575
 20
63.693
 30
0.0
 11
64.0567
 21
63.693
 31
0.0
  0
LINE
  8
0
 62
     0
 10
64.0567
 20
63.693
 30
0.0
 11
64.0567
 21
69.4944
 31
0.0
  0
LINE
  8
0
 62
     0
 10
64.0567
 20
69.4944
 30
0.0
 11
64.8575
 21
69.4944
 31
0.0
  0
LINE
  8
0
 62
     0
 10
64.8575
 20
69.4944
 30
0.0
 11
64.8575
 21
72.5936
 31
0.0
  0
LINE
  8
0
 62
     0
 10
64.8575
 20
72.5936
 30
0.0
 11
64.0567
 21
72.5936
 31
0.0
  0
LINE
  8
0
 62
     0
 10
64.0567
 20
72.5936
 30
0.0
 11
64.0567
 21
73.5926
 31
0.0
  0
LINE
  8
0
 62
     0
 10
64.0567
 20
73.5926
 30
0.0
 11
50.0574
 21
73.5926
 31
0.0
  0
LINE
  8
0
 62
     0
 10
69.1074
 20
73.5926
 30
0.0
 11
69.1074
 21
72.5936
 31
0.0
  0
LINE
  8
0
 62
     0
 10
69.1074
 20
72.5936
 30
0.0
 11
68.3066
 21
72.5936
 31
0.0
  0
LINE
  8
0
 62
     0
 10
68.3066
 20
72.5936
 30
0.0
 11
68.3066
 21
69.4944
 31
0.0
  0
LINE
  8
0
 62
     0
 10
68.3066
 20
69.4944
 30
0.0
 11
69.1074
 21
69.4944
 31
0.0
  0
LINE
  8
0
 62
     0
 10
69.1074
 20
69.4944
 30
0.0
 11
69.1074
 21
63.693
 31
0.0
  0
LINE
  8
0
 62
     0
 10
69.1074
 20
63.693
 30
0.0
 11
68.3066
 21
63.693
 31
0.0
  0
LINE
  8
0
 62
     0
 10
68.3066
 20
63.693
 30
0.0
 11
68.3066
 21
60.5938
 31
0.0
  0
LINE
  8
0
 62
     0
 10
68.3066
 20
60.5938
 30
0.0
 11
69.1074
 21
60.5938
 31
0.0
  0
LINE
  8
0
 62
     0
 10
69.1074
 20
60.5938
 30
0.0
 11
69.1074
 21
59.5933
 31
0.0
  0
LINE
  8
0
 62
     0
 10
69.1074
 20
59.5933
 30
0.0
 11
83.1067
 21
59.5933
 31
0.0
  0
LINE
  8
0
 62
     0
 10
83.1067
 20
59.5933
 30
0.0
 11
83.1067
 21
60.5938
 31
0.0
  0
LINE
  8
0
 62
     0
 10
83.1067
 20
60.5938
 30
0.0
 11
83.9075
 21
60.5938
 31
0.0
  0
LINE
  8
0
 62
     0
 10
83.9075
 20
60.5938
 30
0.0
 11
83.9075
 21
63.693
 31
0.0
  0
LINE
  8
0
 62
     0
 10
83.9075
 20
63.693
 30
0.0
 11
83.1067
 21
63.693
 31
0.0
  0
LINE
  8
0
 62
     0
 10
83.1067
 20
63.693
 30
0.0
 11
83.1067
 21
69.4944
 31
0.0
  0
LINE
  8
0
 62
     0
 10
83.1067
 20
69.4944
 30
0.0
 11
83.9075
 21
69.4944
 31
0.0
  0
LINE
  8
0
 62
     0
 10
83.9075
 20
69.4944
 30
0.0
 11
83.9075
 21
72.5936
 31
0.0
  0
LINE
  8
0
 62
     0
 10
83.9075
 20
72.5936
 30
0.0
 11
83.1067
 21
72.5936
 31
0.0
  0
LINE
  8
0
 62
     0
 10
83.1067
 20
72.5936
 30
0.0
 11
83.1067
 21
73.5926
 31
0.0
  0
LINE
  8
0
 62
     0
 10
83.1067
 20
73.5926
 30
0.0
 11
69.1074
 21
73.5926
 31
0.0
  0
LINE
  8
0
 62
     0
 10
88.1574
 20
73.5926
 30
0.0
 11
88.1574
 21
72.5936
 31
0.0
  0
LINE
  8
0
 62
     0
 10
88.1574
 20
72.5936
 30
0.0
 11
87.3566
 21
72.5936
 31
0.0
  0
LINE
  8
0
 62
     0
 10
87.3566
 20
72.5936
 30
0.0
 11
87.3566
 21
69.4944
 31
0.0
  0
LINE
  8
0
 62
     0
 10
87.3566
 20
69.4944
 30
0.0
 11
88.1574
 21
69.4944
 31
0.0
  0
LINE
  8
0
 62
     0
 10
88.1574
 20
69.4944
 30
0.0
 11
88.1574
 21
63.693
 31
0.0
  0
LINE
  8
0
 62
     0
 10
88.1574
 20
63.693
 30
0.0
 11
87.3566
 21
63.693
 31
0.0
  0
LINE
  8
0
 62
     0
 10
87.3566
 20
63.693
 30
0.0
 11
87.3566
 21
60.5938
 31
0.0
  0
LINE
  8
0
 62
     0
 10
87.3566
 20
60.5938
 30
0.0
 11
88.1574
 21
60.5938
 31
0.0
  0
LINE
  8
0
 62
     0
 10
88.1574
 20
60.5938
 30
0.0
 11
88.1574
 21
59.5933
 31
0.0
  0
LINE
  8
0
 62
     0
 10
88.1574
 20
59.5933
 30
0.0
 11
102.157
 21
59.5933
 31
0.0
  0
LINE
  8
0
 62
     0
 10
102.157
 20
59.5933
 30
0.0
 11
102.157
 21
60.5938
 31
0.0
  0
LINE
  8
0
 62
     0
 10
102.157
 20
60.5938
 30
0.0
 11
102.956
 21
60.5938
 31
0.0
  0
LINE
  8
0
 62
     0
 10
102.956
 20
60.5938
 30
0.0
 11
102.956
 21
63.693
 31
0.0
  0
LINE
  8
0
 62
     0
 10
102.956
 20
63.693
 30
0.0
 11
102.157
 21
63.693
 31
0.0
  0
LINE
  8
0
 62
     0
 10
102.157
 20
63.693
 30
0.0
 11
102.157
 21
69.4944
 31
0.0
  0
LINE
  8
0
 62
     0
 10
102.157
 20
69.4944
 30
0.0
 11
102.956
 21
69.4944
 31
0.0
  0
LINE
  8
0
 62
     0
 10
102.956
 20
69.4944
 30
0.0
 11
102.956
 21
72.5936
 31
0.0
  0
LINE
  8
0
 62
     0
 10
102.956
 20
72.5936
 30
0.0
 11
102.157
 21
72.5936
 31
0.0
  0
LINE
  8
0
 62
     0
 10
102.157
 20
72.5936
 30
0.0
 11
102.157
 21
73.5926
 31
0.0
  0
LINE
  8
0
 62
     0
 10
102.157
 20
73.5926
 30
0.0
 11
88.1574
 21
73.5926
 31
0.0
  0
LINE
  8
0
 62
     0
 10
107.206
 20
73.5926
 30
0.0
 11
107.206
 21
72.5936
 31
0.0
  0
LINE
  8
0
 62
     0
 10
107.206
 20
72.5936
 30
0.0
 11
106.407
 21
72.5936
 31
0.0
  0
LINE
  8
0
 62
     0
 10
106.407
 20
72.5936
 30
0.0
 11
106.407
 21
69.4944
 31
0.0
  0
LINE
  8
0
 62
     0
 10
106.407
 20
69.4944
 30
0.0
 11
107.206
 21
69.4944
 31
0.0
  0
LINE
  8
0
 62
     0
 10
107.206
 20
69.4944
 30
0.0
 11
107.206
 21
63.693
 31
0.0
  0
LINE
  8
0
 62
     0
 10
107.206
 20
63.693
 30
0.0
 11
106.407
 21
63.693
 31
0.0
  0
LINE
  8
0
 62
     0
 10
106.407
 20
63.693
 30
0.0
 11
106.407
 21
60.5938
 31
0.0
  0
LINE
  8
0
 62
     0
 10
106.407
 20
60.5938
 30
0.0
 11
107.206
 21
60.5938
 31
0.0
  0
LINE
  8
0
 62
     0
 10
107.206
 20
60.5938
 30
0.0
 11
107.206
 21
59.5933
 31
0.0
  0
LINE
  8
0
 62
     0
 10
107.206
 20
59.5933
 30
0.0
 11
121.207
 21
59.5933
 31
0.0
  0
LINE
  8
0
 62
     0
 10
121.207
 20
59.5933
 30
0.0
 11
121.207
 21
60.5938
 31
0.0
  0
LINE
  8
0
 62
     0
 10
121.207
 20
60.5938
 30
0.0
 11
122.007
 21
60.5938
 31
0.0
  0
LINE
  8
0
 62
     0
 10
122.007
 20
60.5938
 30
0.0
 11
122.007
 21
63.693
 31
0.0
  0
LINE
  8
0
 62
     0
 10
122.007
 20
63.693
 30
0.0
 11
121.207
 21
63.693
 31
0.0
  0
LINE
  8
0
 62
     0
 10
121.207
 20
63.693
 30
0.0
 11
121.207
 21
69.4944
 31
0.0
  0
LINE
  8
0
 62
     0
 10
121.207
 20
69.4944
 30
0.0
 11
122.007
 21
69.4944
 31
0.0
  0
LINE
  8
0
 62
     0
 10
122.007
 20
69.4944
 30
0.0
 11
122.007
 21
72.5936
 31
0.0
  0
LINE
  8
0
 62
     0
 10
122.007
 20
72.5936
 30
0.0
 11
121.207
 21
72.5936
 31
0.0
  0
LINE
  8
0
 62
     0
 10
121.207
 20
72.5936
 30
0.0
 11
121.207
 21
73.5926
 31
0.0
  0
LINE
  8
0
 62
     0
 10
121.207
 20
73.5926
 30
0.0
 11
107.206
 21
73.5926
 31
0.0
  0
LINE
  8
0
 62
     0
 10
126.257
 20
73.5926
 30
0.0
 11
126.257
 21
72.5936
 31
0.0
  0
LINE
  8
0
 62
     0
 10
126.257
 20
72.5936
 30
0.0
 11
125.457
 21
72.5936
 31
0.0
  0
LINE
  8
0
 62
     0
 10
125.457
 20
72.5936
 30
0.0
 11
125.457
 21
69.4944
 31
0.0
  0
LINE
  8
0
 62
     0
 10
125.457
 20
69.4944
 30
0.0
 11
126.257
 21
69.4944
 31
0.0
  0
LINE
  8
0
 62
     0
 10
126.257
 20
69.4944
 30
0.0
 11
126.257
 21
63.693
 31
0.0
  0
LINE
  8
0
 62
     0
 10
126.257
 20
63.693
 30
0.0
 11
125.457
 21
63.693
 31
0.0
  0
LINE
  8
0
 62
     0
 10
125.457
 20
63.693
 30
0.0
 11
125.457
 21
60.5938
 31
0.0
  0
LINE
  8
0
 62
     0
 10
125.457
 20
60.5938
 30
0.0
 11
126.257
 21
60.5938
 31
0.0
  0
LINE
  8
0
 62
     0
 10
126.257
 20
60.5938
 30
0.0
 11
126.257
 21
59.5933
 31
0.0
  0
LINE
  8
0
 62
     0
 10
126.257
 20
59.5933
 30
0.0
 11
140.257
 21
59.5933
 31
0.0
  0
LINE
  8
0
 62
     0
 10
140.257
 20
59.5933
 30
0.0
 11
140.257
 21
60.5938
 31
0.0
  0
LINE
  8
0
 62
     0
 10
140.257
 20
60.5938
 30
0.0
 11
141.056
 21
60.5938
 31
0.0
  0
LINE
  8
0
 62
     0
 10
141.056
 20
60.5938
 30
0.0
 11
141.056
 21
63.693
 31
0.0
  0
LINE
  8
0
 62
     0
 10
141.056
 20
63.693
 30
0.0
 11
140.257
 21
63.693
 31
0.0
  0
LINE
  8
0
 62
     0
 10
140.257
 20
63.693
 30
0.0
 11
140.257
 21
69.4944
 31
0.0
  0
LINE
  8
0
 62
     0
 10
140.257
 20
69.4944
 30
0.0
 11
141.056
 21
69.4944
 31
0.0
  0
LINE
  8
0
 62
     0
 10
141.056
 20
69.4944
 30
0.0
 11
141.056
 21
72.5936
 31
0.0
  0
LINE
  8
0
 62
     0
 10
141.056
 20
72.5936
 30
0.0
 11
140.257
 21
72.5936
 31
0.0
  0
LINE
  8
0
 62
     0
 10
140.257
 20
72.5936
 30
0.0
 11
140.257
 21
73.5926
 31
0.0
  0
LINE
  8
0
 62
     0
 10
140.257
 20
73.5926
 30
0.0
 11
126.257
 21
73.5926
 31
0.0
  0
LINE
  8
0
 62
     0
 10
145.306
 20
73.5926
 30
0.0
 11
145.306
 21
72.5936
 31
0.0
  0
LINE
  8
0
 62
     0
 10
145.306
 20
72.5936
 30
0.0
 11
144.507
 21
72.5936
 31
0.0
  0
LINE
  8
0
 62
     0
 10
144.507
 20
72.5936
 30
0.0
 11
144.507
 21
69.4944
 31
0.0
  0
LINE
  8
0
 62
     0
 10
144.507
 20
69.4944
 30
0.0
 11
145.306
 21
69.4944
 31
0.0
  0
LINE
  8
0
 62
     0
 10
145.306
 20
69.4944
 30
0.0
 11
145.306
 21
63.693
 31
0.0
  0
LINE
  8
0
 62
     0
 10
145.306
 20
63.693
 30
0.0
 11
144.507
 21
63.693
 31
0.0
  0
LINE
  8
0
 62
     0
 10
144.507
 20
63.693
 30
0.0
 11
144.507
 21
60.5938
 31
0.0
  0
LINE
  8
0
 62
     0
 10
144.507
 20
60.5938
 30
0.0
 11
145.306
 21
60.5938
 31
0.0
  0
LINE
  8
0
 62
     0
 10
145.306
 20
60.5938
 30
0.0
 11
145.306
 21
59.5933
 31
0.0
  0
LINE
  8
0
 62
     0
 10
145.306
 20
59.5933
 30
0.0
 11
159.307
 21
59.5933
 31
0.0
  0
LINE
  8
0
 62
     0
 10
159.307
 20
59.5933
 30
0.0
 11
159.307
 21
60.5938
 31
0.0
  0
LINE
  8
0
 62
     0
 10
159.307
 20
60.5938
 30
0.0
 11
160.107
 21
60.5938
 31
0.0
  0
LINE
  8
0
 62
     0
 10
160.107
 20
60.5938
 30
0.0
 11
160.107
 21
63.693
 31
0.0
  0
LINE
  8
0
 62
     0
 10
160.107
 20
63.693
 30
0.0
 11
159.307
 21
63.693
 31
0.0
  0
LINE
  8
0
 62
     0
 10
159.307
 20
63.693
 30
0.0
 11
159.307
 21
69.4944
 31
0.0
  0
LINE
  8
0
 62
     0
 10
159.307
 20
69.4944
 30
0.0
 11
160.107
 21
69.4944
 31
0.0
  0
LINE
  8
0
 62
     0
 10
160.107
 20
69.4944
 30
0.0
 11
160.107
 21
72.5936
 31
0.0
  0
LINE
  8
0
 62
     0
 10
160.107
 20
72.5936
 30
0.0
 11
159.307
 21
72.5936
 31
0.0
  0
LINE
  8
0
 62
     0
 10
159.307
 20
72.5936
 30
0.0
 11
159.307
 21
73.5926
 31
0.0
  0
LINE
  8
0
 62
     0
 10
159.307
 20
73.5926
 30
0.0
 11
145.306
 21
73.5926
 31
0.0
  0
LINE
  8
0
 62
     0
 10
164.357
 20
73.5926
 30
0.0
 11
164.357
 21
72.5936
 31
0.0
  0
LINE
  8
0
 62
     0
 10
164.357
 20
72.5936
 30
0.0
 11
163.557
 21
72.5936
 31
0.0
  0
LINE
  8
0
 62
     0
 10
163.557
 20
72.5936
 30
0.0
 11
163.557
 21
69.4944
 31
0.0
  0
LINE
  8
0
 62
     0
 10
163.557
 20
69.4944
 30
0.0
 11
164.357
 21
69.4944
 31
0.0
  0
LINE
  8
0
 62
     0
 10
164.357
 20
69.4944
 30
0.0
 11
164.357
 21
63.693
 31
0.0
  0
LINE
  8
0
 62
     0
 10
164.357
 20
63.693
 30
0.0
 11
163.557
 21
63.693
 31
0.0
  0
LINE
  8
0
 62
     0
 10
163.557
 20
63.693
 30
0.0
 11
163.557
 21
60.5938
 31
0.0
  0
LINE
  8
0
 62
     0
 10
163.557
 20
60.5938
 30
0.0
 11
164.357
 21
60.5938
 31
0.0
  0
LINE
  8
0
 62
     0
 10
164.357
 20
60.5938
 30
0.0
 11
164.357
 21
59.5933
 31
0.0
  0
LINE
  8
0
 62
     0
 10
164.357
 20
59.5933
 30
0.0
 11
178.357
 21
59.5933
 31
0.0
  0
LINE
  8
0
 62
     0
 10
178.357
 20
59.5933
 30
0.0
 11
178.357
 21
60.5938
 31
0.0
  0
LINE
  8
0
 62
     0
 10
178.357
 20
60.5938
 30
0.0
 11
179.157
 21
60.5938
 31
0.0
  0
LINE
  8
0
 62
     0
 10
179.157
 20
60.5938
 30
0.0
 11
179.157
 21
63.693
 31
0.0
  0
LINE
  8
0
 62
     0
 10
179.157
 20
63.693
 30
0.0
 11
178.357
 21
63.693
 31
0.0
  0
LINE
  8
0
 62
     0
 10
178.357
 20
63.693
 30
0.0
 11
178.357
 21
69.4944
 31
0.0
  0
LINE
  8
0
 62
     0
 10
178.357
 20
69.4944
 30
0.0
 11
179.157
 21
69.4944
 31
0.0
  0
LINE
  8
0
 62
     0
 10
179.157
 20
69.4944
 30
0.0
 11
179.157
 21
72.5936
 31
0.0
  0
LINE
  8
0
 62
     0
 10
179.157
 20
72.5936
 30
0.0
 11
178.357
 21
72.5936
 31
0.0
  0
LINE
  8
0
 62
     0
 10
178.357
 20
72.5936
 30
0.0
 11
178.357
 21
73.5926
 31
0.0
  0
LINE
  8
0
 62
     0
 10
178.357
 20
73.5926
 30
0.0
 11
164.357
 21
73.5926
 31
0.0
  0
LINE
  8
0
 62
     0
 10
183.407
 20
73.5926
 30
0.0
 11
183.407
 21
72.5936
 31
0.0
  0
LINE
  8
0
 62
     0
 10
183.407
 20
72.5936
 30
0.0
 11
182.607
 21
72.5936
 31
0.0
  0
LINE
  8
0
 62
     0
 10
182.607
 20
72.5936
 30
0.0
 11
182.607
 21
69.4944
 31
0.0
  0
LINE
  8
0
 62
     0
 10
182.607
 20
69.4944
 30
0.0
 11
183.407
 21
69.4944
 31
0.0
  0
LINE
  8
0
 62
     0
 10
183.407
 20
69.4944
 30
0.0
 11
183.407
 21
63.693
 31
0.0
  0
LINE
  8
0
 62
     0
 10
183.407
 20
63.693
 30
0.0
 11
182.607
 21
63.693
 31
0.0
  0
LINE
  8
0
 62
     0
 10
182.607
 20
63.693
 30
0.0
 11
182.607
 21
60.5938
 31
0.0
  0
LINE
  8
0
 62
     0
 10
182.607
 20
60.5938
 30
0.0
 11
183.407
 21
60.5938
 31
0.0
  0
LINE
  8
0
 62
     0
 10
183.407
 20
60.5938
 30
0.0
 11
183.407
 21
59.5933
 31
0.0
  0
LINE
  8
0
 62
     0
 10
183.407
 20
59.5933
 30
0.0
 11
197.407
 21
59.5933
 31
0.0
  0
LINE
  8
0
 62
     0
 10
197.407
 20
59.5933
 30
0.0
 11
197.407
 21
60.5938
 31
0.0
  0
LINE
  8
0
 62
     0
 10
197.407
 20
60.5938
 30
0.0
 11
198.206
 21
60.5938
 31
0.0
  0
LINE
  8
0
 62
     0
 10
198.206
 20
60.5938
 30
0.0
 11
198.206
 21
63.693
 31
0.0
  0
LINE
  8
0
 62
     0
 10
198.206
 20
63.693
 30
0.0
 11
197.407
 21
63.693
 31
0.0
  0
LINE
  8
0
 62
     0
 10
197.407
 20
63.693
 30
0.0
 11
197.407
 21
69.4944
 31
0.0
  0
LINE
  8
0
 62
     0
 10
197.407
 20
69.4944
 30
0.0
 11
198.206
 21
69.4944
 31
0.0
  0
LINE
  8
0
 62
     0
 10
198.206
 20
69.4944
 30
0.0
 11
198.206
 21
72.5936
 31
0.0
  0
LINE
  8
0
 62
     0
 10
198.206
 20
72.5936
 30
0.0
 11
197.407
 21
72.5936
 31
0.0
  0
LINE
  8
0
 62
     0
 10
197.407
 20
72.5936
 30
0.0
 11
197.407
 21
73.5926
 31
0.0
  0
LINE
  8
0
 62
     0
 10
197.407
 20
73.5926
 30
0.0
 11
183.407
 21
73.5926
 31
0.0
  0
LINE
  8
0
 62
     0
 10
202.456
 20
73.5926
 30
0.0
 11
202.456
 21
72.5936
 31
0.0
  0
LINE
  8
0
 62
     0
 10
202.456
 20
72.5936
 30
0.0
 11
201.657
 21
72.5936
 31
0.0
  0
LINE
  8
0
 62
     0
 10
201.657
 20
72.5936
 30
0.0
 11
201.657
 21
69.4944
 31
0.0
  0
LINE
  8
0
 62
     0
 10
201.657
 20
69.4944
 30
0.0
 11
202.456
 21
69.4944
 31
0.0
  0
LINE
  8
0
 62
     0
 10
202.456
 20
69.4944
 30
0.0
 11
202.456
 21
63.693
 31
0.0
  0
LINE
  8
0
 62
     0
 10
202.456
 20
63.693
 30
0.0
 11
201.657
 21
63.693
 31
0.0
  0
LINE
  8
0
 62
     0
 10
201.657
 20
63.693
 30
0.0
 11
201.657
 21
60.5938
 31
0.0
  0
LINE
  8
0
 62
     0
 10
201.657
 20
60.5938
 30
0.0
 11
202.456
 21
60.5938
 31
0.0
  0
LINE
  8
0
 62
     0
 10
202.456
 20
60.5938
 30
0.0
 11
202.456
 21
59.5933
 31
0.0
  0
LINE
  8
0
 62
     0
 10
202.456
 20
59.5933
 30
0.0
 11
216.457
 21
59.5933
 31
0.0
  0
LINE
  8
0
 62
     0
 10
216.457
 20
59.5933
 30
0.0
 11
216.457
 21
60.5938
 31
0.0
  0
LINE
  8
0
 62
     0
 10
216.457
 20
60.5938
 30
0.0
 11
217.257
 21
60.5938
 31
0.0
  0
LINE
  8
0
 62
     0
 10
217.257
 20
60.5938
 30
0.0
 11
217.257
 21
63.693
 31
0.0
  0
LINE
  8
0
 62
     0
 10
217.257
 20
63.693
 30
0.0
 11
216.457
 21
63.693
 31
0.0
  0
LINE
  8
0
 62
     0
 10
216.457
 20
63.693
 30
0.0
 11
216.457
 21
69.4944
 31
0.0
  0
LINE
  8
0
 62
     0
 10
216.457
 20
69.4944
 30
0.0
 11
217.257
 21
69.4944
 31
0.0
  0
LINE
  8
0
 62
     0
 10
217.257
 20
69.4944
 30
0.0
 11
217.257
 21
72.5936
 31
0.0
  0
LINE
  8
0
 62
     0
 10
217.257
 20
72.5936
 30
0.0
 11
216.457
 21
72.5936
 31
0.0
  0
LINE
  8
0
 62
     0
 10
216.457
 20
72.5936
 30
0.0
 11
216.457
 21
73.5926
 31
0.0
  0
LINE
  8
0
 62
     0
 10
216.457
 20
73.5926
 30
0.0
 11
202.456
 21
73.5926
 31
0.0
  0
LINE
  8
0
 62
     0
 10
221.507
 20
73.5926
 30
0.0
 11
221.507
 21
72.5936
 31
0.0
  0
LINE
  8
0
 62
     0
 10
221.507
 20
72.5936
 30
0.0
 11
220.707
 21
72.5936
 31
0.0
  0
LINE
  8
0
 62
     0
 10
220.707
 20
72.5936
 30
0.0
 11
220.707
 21
69.4944
 31
0.0
  0
LINE
  8
0
 62
     0
 10
220.707
 20
69.4944
 30
0.0
 11
221.507
 21
69.4944
 31
0.0
  0
LINE
  8
0
 62
     0
 10
221.507
 20
69.4944
 30
0.0
 11
221.507
 21
63.693
 31
0.0
  0
LINE
  8
0
 62
     0
 10
221.507
 20
63.693
 30
0.0
 11
220.707
 21
63.693
 31
0.0
  0
LINE
  8
0
 62
     0
 10
220.707
 20
63.693
 30
0.0
 11
220.707
 21
60.5938
 31
0.0
  0
LINE
  8
0
 62
     0
 10
220.707
 20
60.5938
 30
0.0
 11
221.507
 21
60.5938
 31
0.0
  0
LINE
  8
0
 62
     0
 10
221.507
 20
60.5938
 30
0.0
 11
221.507
 21
59.5933
 31
0.0
  0
LINE
  8
0
 62
     0
 10
221.507
 20
59.5933
 30
0.0
 11
235.507
 21
59.5933
 31
0.0
  0
LINE
  8
0
 62
     0
 10
235.507
 20
59.5933
 30
0.0
 11
235.507
 21
60.5938
 31
0.0
  0
LINE
  8
0
 62
     0
 10
235.507
 20
60.5938
 30
0.0
 11
236.306
 21
60.5938
 31
0.0
  0
LINE
  8
0
 62
     0
 10
236.306
 20
60.5938
 30
0.0
 11
236.306
 21
63.693
 31
0.0
  0
LINE
  8
0
 62
     0
 10
236.306
 20
63.693
 30
0.0
 11
235.507
 21
63.693
 31
0.0
  0
LINE
  8
0
 62
     0
 10
235.507
 20
63.693
 30
0.0
 11
235.507
 21
69.4944
 31
0.0
  0
LINE
  8
0
 62
     0
 10
235.507
 20
69.4944
 30
0.0
 11
236.306
 21
69.4944
 31
0.0
  0
LINE
  8
0
 62
     0
 10
236.306
 20
69.4944
 30
0.0
 11
236.306
 21
72.5936
 31
0.0
  0
LINE
  8
0
 62
     0
 10
236.306
 20
72.5936
 30
0.0
 11
235.507
 21
72.5936
 31
0.0
  0
LINE
  8
0
 62
     0
 10
235.507
 20
72.5936
 30
0.0
 11
235.507
 21
73.5926
 31
0.0
  0
LINE
  8
0
 62
     0
 10
235.507
 20
73.5926
 30
0.0
 11
221.507
 21
73.5926
 31
0.0
  0
LINE
  8
0
 62
     0
 10
240.556
 20
73.5926
 30
0.0
 11
240.556
 21
72.5936
 31
0.0
  0
LINE
  8
0
 62
     0
 10
240.556
 20
72.5936
 30
0.0
 11
239.757
 21
72.5936
 31
0.0
  0
LINE
  8
0
 62
     0
 10
239.757
 20
72.5936
 30
0.0
 11
239.757
 21
69.4944
 31
0.0
  0
LINE
  8
0
 62
     0
 10
239.757
 20
69.4944
 30
0.0
 11
240.556
 21
69.4944
 31
0.0
  0
LINE
  8
0
 62
     0
 10
240.556
 20
69.4944
 30
0.0
 11
240.556
 21
63.693
 31
0.0
  0
LINE
  8
0
 62
     0
 10
240.556
 20
63.693
 30
0.0
 11
239.757
 21
63.693
 31
0.0
  0
LINE
  8
0
 62
     0
 10
239.757
 20
63.693
 30
0.0
 11
239.757
 21
60.5938
 31
0.0
  0
LINE
  8
0
 62
     0
 10
239.757
 20
60.5938
 30
0.0
 11
240.556
 21
60.5938
 31
0.0
  0
LINE
  8
0
 62
     0
 10
240.556
 20
60.5938
 30
0.0
 11
240.556
 21
59.5933
 31
0.0
  0
LINE
  8
0
 62
     0
 10
240.556
 20
59.5933
 30
0.0
 11
254.557
 21
59.5933
 31
0.0
  0
LINE
  8
0
 62
     0
 10
254.557
 20
59.5933
 30
0.0
 11
254.557
 21
60.5938
 31
0.0
  0
LINE
  8
0
 62
     0
 10
254.557
 20
60.5938
 30
0.0
 11
255.356
 21
60.5938
 31
0.0
  0
LINE
  8
0
 62
     0
 10
255.356
 20
60.5938
 30
0.0
 11
255.356
 21
63.693
 31
0.0
  0
LINE
  8
0
 62
     0
 10
255.356
 20
63.693
 30
0.0
 11
254.557
 21
63.693
 31
0.0
  0
LINE
  8
0
 62
     0
 10
254.557
 20
63.693
 30
0.0
 11
254.557
 21
69.4944
 31
0.0
  0
LINE
  8
0
 62
     0
 10
254.557
 20
69.4944
 30
0.0
 11
255.356
 21
69.4944
 31
0.0
  0
LINE
  8
0
 62
     0
 10
255.356
 20
69.4944
 30
0.0
 11
255.356
 21
72.5936
 31
0.0
  0
LINE
  8
0
 62
     0
 10
255.356
 20
72.5936
 30
0.0
 11
254.557
 21
72.5936
 31
0.0
  0
LINE
  8
0
 62
     0
 10
254.557
 20
72.5936
 30
0.0
 11
254.557
 21
73.5926
 31
0.0
  0
LINE
  8
0
 62
     0
 10
254.557
 20
73.5926
 30
0.0
 11
240.556
 21
73.5926
 31
0.0
  0
LINE
  8
0
 62
     0
 10
259.606
 20
73.5926
 30
0.0
 11
259.606
 21
72.5936
 31
0.0
  0
LINE
  8
0
 62
     0
 10
259.606
 20
72.5936
 30
0.0
 11
258.807
 21
72.5936
 31
0.0
  0
LINE
  8
0
 62
     0
 10
258.807
 20
72.5936
 30
0.0
 11
258.807
 21
69.4944
 31
0.0
  0
LINE
  8
0
 62
     0
 10
258.807
 20
69.4944
 30
0.0
 11
259.606
 21
69.4944
 31
0.0
  0
LINE
  8
0
 62
     0
 10
259.606
 20
69.4944
 30
0.0
 11
259.606
 21
63.693
 31
0.0
  0
LINE
  8
0
 62
     0
 10
259.606
 20
63.693
 30
0.0
 11
258.807
 21
63.693
 31
0.0
  0
LINE
  8
0
 62
     0
 10
258.807
 20
63.693
 30
0.0
 11
258.807
 21
60.5938
 31
0.0
  0
LINE
  8
0
 62
     0
 10
258.807
 20
60.5938
 30
0.0
 11
259.606
 21
60.5938
 31
0.0
  0
LINE
  8
0
 62
     0
 10
259.606
 20
60.5938
 30
0.0
 11
259.606
 21
59.5933
 31
0.0
  0
LINE
  8
0
 62
     0
 10
259.606
 20
59.5933
 30
0.0
 11
273.607
 21
59.5933
 31
0.0
  0
LINE
  8
0
 62
     0
 10
273.607
 20
59.5933
 30
0.0
 11
273.607
 21
60.5938
 31
0.0
  0
LINE
  8
0
 62
     0
 10
273.607
 20
60.5938
 30
0.0
 11
274.406
 21
60.5938
 31
0.0
  0
LINE
  8
0
 62
     0
 10
274.406
 20
60.5938
 30
0.0
 11
274.406
 21
63.693
 31
0.0
  0
LINE
  8
0
 62
     0
 10
274.406
 20
63.693
 30
0.0
 11
273.607
 21
63.693
 31
0.0
  0
LINE
  8
0
 62
     0
 10
273.607
 20
63.693
 30
0.0
 11
273.607
 21
69.4944
 31
0.0
  0
LINE
  8
0
 62
     0
 10
273.607
 20
69.4944
 30
0.0
 11
274.406
 21
69.4944
 31
0.0
  0
LINE
  8
0
 62
     0
 10
274.406
 20
69.4944
 30
0.0
 11
274.406
 21
72.5936
 31
0.0
  0
LINE
  8
0
 62
     0
 10
274.406
 20
72.5936
 30
0.0
 11
273.607
 21
72.5936
 31
0.0
  0
LINE
  8
0
 62
     0
 10
273.607
 20
72.5936
 30
0.0
 11
273.607
 21
73.5926
 31
0.0
  0
LINE
  8
0
 62
     0
 10
273.607
 20
73.5926
 30
0.0
 11
259.606
 21
73.5926
 31
0.0
  0
LINE
  8
0
 62
     0
 10
21.4822
 20
92.644
 30
0.0
 11
21.4822
 21
91.6436
 31
0.0
  0
LINE
  8
0
 62
     0
 10
21.4822
 20
91.6436
 30
0.0
 11
20.6816
 21
91.6436
 31
0.0
  0
LINE
  8
0
 62
     0
 10
20.6816
 20
91.6436
 30
0.0
 11
20.6816
 21
88.5444
 31
0.0
  0
LINE
  8
0
 62
     0
 10
20.6816
 20
88.5444
 30
0.0
 11
21.4822
 21
88.5444
 31
0.0
  0
LINE
  8
0
 62
     0
 10
21.4822
 20
88.5444
 30
0.0
 11
21.4822
 21
82.7444
 31
0.0
  0
LINE
  8
0
 62
     0
 10
21.4822
 20
82.7444
 30
0.0
 11
20.6816
 21
82.7444
 31
0.0
  0
LINE
  8
0
 62
     0
 10
20.6816
 20
82.7444
 30
0.0
 11
20.6816
 21
79.6438
 31
0.0
  0
LINE
  8
0
 62
     0
 10
20.6816
 20
79.6438
 30
0.0
 11
21.4822
 21
79.6438
 31
0.0
  0
LINE
  8
0
 62
     0
 10
21.4822
 20
79.6438
 30
0.0
 11
21.4822
 21
78.8487
 31
0.0
  0
LINE
  8
0
 62
     0
 10
21.4822
 20
78.8487
 30
0.0
 11
20.7202
 21
78.9672
 31
0.0
  0
LINE
  8
0
 62
     0
 10
20.7202
 20
78.9672
 30
0.0
 11
19.9471
 21
78.8458
 31
0.0
  0
LINE
  8
0
 62
     0
 10
19.9471
 20
78.8458
 30
0.0
 11
19.2512
 21
78.4916
 31
0.0
  0
LINE
  8
0
 62
     0
 10
19.2512
 20
78.4916
 30
0.0
 11
18.6972
 21
77.9378
 31
0.0
  0
LINE
  8
0
 62
     0
 10
18.6972
 20
77.9378
 30
0.0
 11
18.3417
 21
77.2418
 31
0.0
  0
LINE
  8
0
 62
     0
 10
18.3417
 20
77.2418
 30
0.0
 11
18.2204
 21
76.4674
 31
0.0
  0
LINE
  8
0
 62
     0
 10
18.2204
 20
76.4674
 30
0.0
 11
18.3417
 21
75.6955
 31
0.0
  0
LINE
  8
0
 62
     0
 10
18.3417
 20
75.6955
 30
0.0
 11
18.6972
 21
74.9984
 31
0.0
  0
LINE
  8
0
 62
     0
 10
18.6972
 20
74.9984
 30
0.0
 11
19.2512
 21
74.4456
 31
0.0
  0
LINE
  8
0
 62
     0
 10
19.2512
 20
74.4456
 30
0.0
 11
19.9471
 21
74.0904
 31
0.0
  0
LINE
  8
0
 62
     0
 10
19.9471
 20
74.0904
 30
0.0
 11
20.7202
 21
73.9676
 31
0.0
  0
LINE
  8
0
 62
     0
 10
20.7202
 20
73.9676
 30
0.0
 11
21.4933
 21
74.0904
 31
0.0
  0
LINE
  8
0
 62
     0
 10
21.4933
 20
74.0904
 30
0.0
 11
22.1892
 21
74.4456
 31
0.0
  0
LINE
  8
0
 62
     0
 10
22.1892
 20
74.4456
 30
0.0
 11
22.7432
 21
74.9984
 31
0.0
  0
LINE
  8
0
 62
     0
 10
22.7432
 20
74.9984
 30
0.0
 11
23.0987
 21
75.6955
 31
0.0
  0
LINE
  8
0
 62
     0
 10
23.0987
 20
75.6955
 30
0.0
 11
23.2199
 21
76.4674
 31
0.0
  0
LINE
  8
0
 62
     0
 10
23.2199
 20
76.4674
 30
0.0
 11
23.0987
 21
77.2418
 31
0.0
  0
LINE
  8
0
 62
     0
 10
23.0987
 20
77.2418
 30
0.0
 11
22.7432
 21
77.9378
 31
0.0
  0
LINE
  8
0
 62
     0
 10
22.7432
 20
77.9378
 30
0.0
 11
22.1892
 21
78.4916
 31
0.0
  0
LINE
  8
0
 62
     0
 10
22.1892
 20
78.4916
 30
0.0
 11
21.8888
 21
78.6447
 31
0.0
  0
LINE
  8
0
 62
     0
 10
21.8888
 20
78.6447
 30
0.0
 11
35.4817
 21
78.6447
 31
0.0
  0
LINE
  8
0
 62
     0
 10
35.4817
 20
78.6447
 30
0.0
 11
35.4817
 21
79.6438
 31
0.0
  0
LINE
  8
0
 62
     0
 10
35.4817
 20
79.6438
 30
0.0
 11
36.2825
 21
79.6438
 31
0.0
  0
LINE
  8
0
 62
     0
 10
36.2825
 20
79.6438
 30
0.0
 11
36.2825
 21
82.7444
 31
0.0
  0
LINE
  8
0
 62
     0
 10
36.2825
 20
82.7444
 30
0.0
 11
35.4817
 21
82.7444
 31
0.0
  0
LINE
  8
0
 62
     0
 10
35.4817
 20
82.7444
 30
0.0
 11
35.4817
 21
88.5444
 31
0.0
  0
LINE
  8
0
 62
     0
 10
35.4817
 20
88.5444
 30
0.0
 11
36.2825
 21
88.5444
 31
0.0
  0
LINE
  8
0
 62
     0
 10
36.2825
 20
88.5444
 30
0.0
 11
36.2825
 21
91.6436
 31
0.0
  0
LINE
  8
0
 62
     0
 10
36.2825
 20
91.6436
 30
0.0
 11
35.4817
 21
91.6436
 31
0.0
  0
LINE
  8
0
 62
     0
 10
35.4817
 20
91.6436
 30
0.0
 11
35.4817
 21
92.644
 31
0.0
  0
LINE
  8
0
 62
     0
 10
35.4817
 20
92.644
 30
0.0
 11
21.4822
 21
92.644
 31
0.0
  0
LINE
  8
0
 62
     0
 10
254.845
 20
92.644
 30
0.0
 11
254.845
 21
91.6436
 31
0.0
  0
LINE
  8
0
 62
     0
 10
254.845
 20
91.6436
 30
0.0
 11
254.044
 21
91.6436
 31
0.0
  0
LINE
  8
0
 62
     0
 10
254.044
 20
91.6436
 30
0.0
 11
254.044
 21
88.5444
 31
0.0
  0
LINE
  8
0
 62
     0
 10
254.044
 20
88.5444
 30
0.0
 11
254.845
 21
88.5444
 31
0.0
  0
LINE
  8
0
 62
     0
 10
254.845
 20
88.5444
 30
0.0
 11
254.845
 21
82.7444
 31
0.0
  0
LINE
  8
0
 62
     0
 10
254.845
 20
82.7444
 30
0.0
 11
254.044
 21
82.7444
 31
0.0
  0
LINE
  8
0
 62
     0
 10
254.044
 20
82.7444
 30
0.0
 11
254.044
 21
79.6438
 31
0.0
  0
LINE
  8
0
 62
     0
 10
254.044
 20
79.6438
 30
0.0
 11
254.845
 21
79.6438
 31
0.0
  0
LINE
  8
0
 62
     0
 10
254.845
 20
79.6438
 30
0.0
 11
254.845
 21
78.8539
 31
0.0
  0
LINE
  8
0
 62
     0
 10
254.845
 20
78.8539
 30
0.0
 11
254.797
 21
78.8458
 31
0.0
  0
LINE
  8
0
 62
     0
 10
254.797
 20
78.8458
 30
0.0
 11
254.099
 21
78.4916
 31
0.0
  0
LINE
  8
0
 62
     0
 10
254.099
 20
78.4916
 30
0.0
 11
253.547
 21
77.9378
 31
0.0
  0
LINE
  8
0
 62
     0
 10
253.547
 20
77.9378
 30
0.0
 11
253.19
 21
77.2418
 31
0.0
  0
LINE
  8
0
 62
     0
 10
253.19
 20
77.2418
 30
0.0
 11
253.07
 21
76.4674
 31
0.0
  0
LINE
  8
0
 62
     0
 10
253.07
 20
76.4674
 30
0.0
 11
253.19
 21
75.6955
 31
0.0
  0
LINE
  8
0
 62
     0
 10
253.19
 20
75.6955
 30
0.0
 11
253.547
 21
74.9984
 31
0.0
  0
LINE
  8
0
 62
     0
 10
253.547
 20
74.9984
 30
0.0
 11
254.099
 21
74.4456
 31
0.0
  0
LINE
  8
0
 62
     0
 10
254.099
 20
74.4456
 30
0.0
 11
254.797
 21
74.0904
 31
0.0
  0
LINE
  8
0
 62
     0
 10
254.797
 20
74.0904
 30
0.0
 11
255.57
 21
73.9676
 31
0.0
  0
LINE
  8
0
 62
     0
 10
255.57
 20
73.9676
 30
0.0
 11
256.343
 21
74.0904
 31
0.0
  0
LINE
  8
0
 62
     0
 10
256.343
 20
74.0904
 30
0.0
 11
257.038
 21
74.4456
 31
0.0
  0
LINE
  8
0
 62
     0
 10
257.038
 20
74.4456
 30
0.0
 11
257.593
 21
74.9984
 31
0.0
  0
LINE
  8
0
 62
     0
 10
257.593
 20
74.9984
 30
0.0
 11
257.947
 21
75.6955
 31
0.0
  0
LINE
  8
0
 62
     0
 10
257.947
 20
75.6955
 30
0.0
 11
258.069
 21
76.4674
 31
0.0
  0
LINE
  8
0
 62
     0
 10
258.069
 20
76.4674
 30
0.0
 11
257.947
 21
77.2418
 31
0.0
  0
LINE
  8
0
 62
     0
 10
257.947
 20
77.2418
 30
0.0
 11
257.593
 21
77.9378
 31
0.0
  0
LINE
  8
0
 62
     0
 10
257.593
 20
77.9378
 30
0.0
 11
257.038
 21
78.4916
 31
0.0
  0
LINE
  8
0
 62
     0
 10
257.038
 20
78.4916
 30
0.0
 11
256.738
 21
78.6447
 31
0.0
  0
LINE
  8
0
 62
     0
 10
256.738
 20
78.6447
 30
0.0
 11
268.844
 21
78.6447
 31
0.0
  0
LINE
  8
0
 62
     0
 10
268.844
 20
78.6447
 30
0.0
 11
268.844
 21
79.6438
 31
0.0
  0
LINE
  8
0
 62
     0
 10
268.844
 20
79.6438
 30
0.0
 11
269.645
 21
79.6438
 31
0.0
  0
LINE
  8
0
 62
     0
 10
269.645
 20
79.6438
 30
0.0
 11
269.645
 21
82.7444
 31
0.0
  0
LINE
  8
0
 62
     0
 10
269.645
 20
82.7444
 30
0.0
 11
268.844
 21
82.7444
 31
0.0
  0
LINE
  8
0
 62
     0
 10
268.844
 20
82.7444
 30
0.0
 11
268.844
 21
88.5444
 31
0.0
  0
LINE
  8
0
 62
     0
 10
268.844
 20
88.5444
 30
0.0
 11
269.645
 21
88.5444
 31
0.0
  0
LINE
  8
0
 62
     0
 10
269.645
 20
88.5444
 30
0.0
 11
269.645
 21
91.6436
 31
0.0
  0
LINE
  8
0
 62
     0
 10
269.645
 20
91.6436
 30
0.0
 11
268.844
 21
91.6436
 31
0.0
  0
LINE
  8
0
 62
     0
 10
268.844
 20
91.6436
 30
0.0
 11
268.844
 21
92.644
 31
0.0
  0
LINE
  8
0
 62
     0
 10
268.844
 20
92.644
 30
0.0
 11
254.845
 21
92.644
 31
0.0
  0
LINE
  8
0
 62
     0
 10
2.43224
 20
92.644
 30
0.0
 11
2.43224
 21
91.6436
 31
0.0
  0
LINE
  8
0
 62
     0
 10
2.43224
 20
91.6436
 30
0.0
 11
1.6316
 21
91.6436
 31
0.0
  0
LINE
  8
0
 62
     0
 10
1.6316
 20
91.6436
 30
0.0
 11
1.6316
 21
88.5444
 31
0.0
  0
LINE
  8
0
 62
     0
 10
1.6316
 20
88.5444
 30
0.0
 11
2.43224
 21
88.5444
 31
0.0
  0
LINE
  8
0
 62
     0
 10
2.43224
 20
88.5444
 30
0.0
 11
2.43224
 21
82.7444
 31
0.0
  0
LINE
  8
0
 62
     0
 10
2.43224
 20
82.7444
 30
0.0
 11
1.6316
 21
82.7444
 31
0.0
  0
LINE
  8
0
 62
     0
 10
1.6316
 20
82.7444
 30
0.0
 11
1.6316
 21
79.6438
 31
0.0
  0
LINE
  8
0
 62
     0
 10
1.6316
 20
79.6438
 30
0.0
 11
2.43224
 21
79.6438
 31
0.0
  0
LINE
  8
0
 62
     0
 10
2.43224
 20
79.6438
 30
0.0
 11
2.43224
 21
78.6447
 31
0.0
  0
LINE
  8
0
 62
     0
 10
2.43224
 20
78.6447
 30
0.0
 11
16.4317
 21
78.6447
 31
0.0
  0
LINE
  8
0
 62
     0
 10
16.4317
 20
78.6447
 30
0.0
 11
16.4317
 21
79.6438
 31
0.0
  0
LINE
  8
0
 62
     0
 10
16.4317
 20
79.6438
 30
0.0
 11
17.2324
 21
79.6438
 31
0.0
  0
LINE
  8
0
 62
     0
 10
17.2324
 20
79.6438
 30
0.0
 11
17.2324
 21
82.7444
 31
0.0
  0
LINE
  8
0
 62
     0
 10
17.2324
 20
82.7444
 30
0.0
 11
16.4317
 21
82.7444
 31
0.0
  0
LINE
  8
0
 62
     0
 10
16.4317
 20
82.7444
 30
0.0
 11
16.4317
 21
88.5444
 31
0.0
  0
LINE
  8
0
 62
     0
 10
16.4317
 20
88.5444
 30
0.0
 11
17.2324
 21
88.5444
 31
0.0
  0
LINE
  8
0
 62
     0
 10
17.2324
 20
88.5444
 30
0.0
 11
17.2324
 21
91.6436
 31
0.0
  0
LINE
  8
0
 62
     0
 10
17.2324
 20
91.6436
 30
0.0
 11
16.4317
 21
91.6436
 31
0.0
  0
LINE
  8
0
 62
     0
 10
16.4317
 20
91.6436
 30
0.0
 11
16.4317
 21
92.644
 31
0.0
  0
LINE
  8
0
 62
     0
 10
16.4317
 20
92.644
 30
0.0
 11
2.43224
 21
92.644
 31
0.0
  0
LINE
  8
0
 62
     0
 10
40.5324
 20
92.644
 30
0.0
 11
40.5324
 21
91.6436
 31
0.0
  0
LINE
  8
0
 62
     0
 10
40.5324
 20
91.6436
 30
0.0
 11
39.7316
 21
91.6436
 31
0.0
  0
LINE
  8
0
 62
     0
 10
39.7316
 20
91.6436
 30
0.0
 11
39.7316
 21
88.5444
 31
0.0
  0
LINE
  8
0
 62
     0
 10
39.7316
 20
88.5444
 30
0.0
 11
40.5324
 21
88.5444
 31
0.0
  0
LINE
  8
0
 62
     0
 10
40.5324
 20
88.5444
 30
0.0
 11
40.5324
 21
82.7444
 31
0.0
  0
LINE
  8
0
 62
     0
 10
40.5324
 20
82.7444
 30
0.0
 11
39.7316
 21
82.7444
 31
0.0
  0
LINE
  8
0
 62
     0
 10
39.7316
 20
82.7444
 30
0.0
 11
39.7316
 21
79.6438
 31
0.0
  0
LINE
  8
0
 62
     0
 10
39.7316
 20
79.6438
 30
0.0
 11
40.5324
 21
79.6438
 31
0.0
  0
LINE
  8
0
 62
     0
 10
40.5324
 20
79.6438
 30
0.0
 11
40.5324
 21
78.6447
 31
0.0
  0
LINE
  8
0
 62
     0
 10
40.5324
 20
78.6447
 30
0.0
 11
54.5317
 21
78.6447
 31
0.0
  0
LINE
  8
0
 62
     0
 10
54.5317
 20
78.6447
 30
0.0
 11
54.5317
 21
79.6438
 31
0.0
  0
LINE
  8
0
 62
     0
 10
54.5317
 20
79.6438
 30
0.0
 11
55.3311
 21
79.6438
 31
0.0
  0
LINE
  8
0
 62
     0
 10
55.3311
 20
79.6438
 30
0.0
 11
55.3311
 21
82.7444
 31
0.0
  0
LINE
  8
0
 62
     0
 10
55.3311
 20
82.7444
 30
0.0
 11
54.5317
 21
82.7444
 31
0.0
  0
LINE
  8
0
 62
     0
 10
54.5317
 20
82.7444
 30
0.0
 11
54.5317
 21
88.5444
 31
0.0
  0
LINE
  8
0
 62
     0
 10
54.5317
 20
88.5444
 30
0.0
 11
55.3311
 21
88.5444
 31
0.0
  0
LINE
  8
0
 62
     0
 10
55.3311
 20
88.5444
 30
0.0
 11
55.3311
 21
91.6436
 31
0.0
  0
LINE
  8
0
 62
     0
 10
55.3311
 20
91.6436
 30
0.0
 11
54.5317
 21
91.6436
 31
0.0
  0
LINE
  8
0
 62
     0
 10
54.5317
 20
91.6436
 30
0.0
 11
54.5317
 21
92.644
 31
0.0
  0
LINE
  8
0
 62
     0
 10
54.5317
 20
92.644
 30
0.0
 11
40.5324
 21
92.644
 31
0.0
  0
LINE
  8
0
 62
     0
 10
59.581
 20
92.644
 30
0.0
 11
59.581
 21
91.6436
 31
0.0
  0
LINE
  8
0
 62
     0
 10
59.581
 20
91.6436
 30
0.0
 11
58.7816
 21
91.6436
 31
0.0
  0
LINE
  8
0
 62
     0
 10
58.7816
 20
91.6436
 30
0.0
 11
58.7816
 21
88.5444
 31
0.0
  0
LINE
  8
0
 62
     0
 10
58.7816
 20
88.5444
 30
0.0
 11
59.581
 21
88.5444
 31
0.0
  0
LINE
  8
0
 62
     0
 10
59.581
 20
88.5444
 30
0.0
 11
59.581
 21
82.7444
 31
0.0
  0
LINE
  8
0
 62
     0
 10
59.581
 20
82.7444
 30
0.0
 11
58.7816
 21
82.7444
 31
0.0
  0
LINE
  8
0
 62
     0
 10
58.7816
 20
82.7444
 30
0.0
 11
58.7816
 21
79.6438
 31
0.0
  0
LINE
  8
0
 62
     0
 10
58.7816
 20
79.6438
 30
0.0
 11
59.581
 21
79.6438
 31
0.0
  0
LINE
  8
0
 62
     0
 10
59.581
 20
79.6438
 30
0.0
 11
59.581
 21
78.6447
 31
0.0
  0
LINE
  8
0
 62
     0
 10
59.581
 20
78.6447
 30
0.0
 11
73.5817
 21
78.6447
 31
0.0
  0
LINE
  8
0
 62
     0
 10
73.5817
 20
78.6447
 30
0.0
 11
73.5817
 21
79.6438
 31
0.0
  0
LINE
  8
0
 62
     0
 10
73.5817
 20
79.6438
 30
0.0
 11
74.3825
 21
79.6438
 31
0.0
  0
LINE
  8
0
 62
     0
 10
74.3825
 20
79.6438
 30
0.0
 11
74.3825
 21
82.7444
 31
0.0
  0
LINE
  8
0
 62
     0
 10
74.3825
 20
82.7444
 30
0.0
 11
73.5817
 21
82.7444
 31
0.0
  0
LINE
  8
0
 62
     0
 10
73.5817
 20
82.7444
 30
0.0
 11
73.5817
 21
88.5444
 31
0.0
  0
LINE
  8
0
 62
     0
 10
73.5817
 20
88.5444
 30
0.0
 11
74.3825
 21
88.5444
 31
0.0
  0
LINE
  8
0
 62
     0
 10
74.3825
 20
88.5444
 30
0.0
 11
74.3825
 21
91.6436
 31
0.0
  0
LINE
  8
0
 62
     0
 10
74.3825
 20
91.6436
 30
0.0
 11
73.5817
 21
91.6436
 31
0.0
  0
LINE
  8
0
 62
     0
 10
73.5817
 20
91.6436
 30
0.0
 11
73.5817
 21
92.644
 31
0.0
  0
LINE
  8
0
 62
     0
 10
73.5817
 20
92.644
 30
0.0
 11
59.581
 21
92.644
 31
0.0
  0
LINE
  8
0
 62
     0
 10
78.6324
 20
92.644
 30
0.0
 11
78.6324
 21
91.6436
 31
0.0
  0
LINE
  8
0
 62
     0
 10
78.6324
 20
91.6436
 30
0.0
 11
77.8316
 21
91.6436
 31
0.0
  0
LINE
  8
0
 62
     0
 10
77.8316
 20
91.6436
 30
0.0
 11
77.8316
 21
88.5444
 31
0.0
  0
LINE
  8
0
 62
     0
 10
77.8316
 20
88.5444
 30
0.0
 11
78.6324
 21
88.5444
 31
0.0
  0
LINE
  8
0
 62
     0
 10
78.6324
 20
88.5444
 30
0.0
 11
78.6324
 21
82.7444
 31
0.0
  0
LINE
  8
0
 62
     0
 10
78.6324
 20
82.7444
 30
0.0
 11
77.8316
 21
82.7444
 31
0.0
  0
LINE
  8
0
 62
     0
 10
77.8316
 20
82.7444
 30
0.0
 11
77.8316
 21
79.6438
 31
0.0
  0
LINE
  8
0
 62
     0
 10
77.8316
 20
79.6438
 30
0.0
 11
78.6324
 21
79.6438
 31
0.0
  0
LINE
  8
0
 62
     0
 10
78.6324
 20
79.6438
 30
0.0
 11
78.6324
 21
78.6447
 31
0.0
  0
LINE
  8
0
 62
     0
 10
78.6324
 20
78.6447
 30
0.0
 11
92.6317
 21
78.6447
 31
0.0
  0
LINE
  8
0
 62
     0
 10
92.6317
 20
78.6447
 30
0.0
 11
92.6317
 21
79.6438
 31
0.0
  0
LINE
  8
0
 62
     0
 10
92.6317
 20
79.6438
 30
0.0
 11
93.4325
 21
79.6438
 31
0.0
  0
LINE
  8
0
 62
     0
 10
93.4325
 20
79.6438
 30
0.0
 11
93.4325
 21
82.7444
 31
0.0
  0
LINE
  8
0
 62
     0
 10
93.4325
 20
82.7444
 30
0.0
 11
92.6317
 21
82.7444
 31
0.0
  0
LINE
  8
0
 62
     0
 10
92.6317
 20
82.7444
 30
0.0
 11
92.6317
 21
88.5444
 31
0.0
  0
LINE
  8
0
 62
     0
 10
92.6317
 20
88.5444
 30
0.0
 11
93.4325
 21
88.5444
 31
0.0
  0
LINE
  8
0
 62
     0
 10
93.4325
 20
88.5444
 30
0.0
 11
93.4325
 21
91.6436
 31
0.0
  0
LINE
  8
0
 62
     0
 10
93.4325
 20
91.6436
 30
0.0
 11
92.6317
 21
91.6436
 31
0.0
  0
LINE
  8
0
 62
     0
 10
92.6317
 20
91.6436
 30
0.0
 11
92.6317
 21
92.644
 31
0.0
  0
LINE
  8
0
 62
     0
 10
92.6317
 20
92.644
 30
0.0
 11
78.6324
 21
92.644
 31
0.0
  0
LINE
  8
0
 62
     0
 10
97.6824
 20
92.644
 30
0.0
 11
97.6824
 21
91.6436
 31
0.0
  0
LINE
  8
0
 62
     0
 10
97.6824
 20
91.6436
 30
0.0
 11
96.8816
 21
91.6436
 31
0.0
  0
LINE
  8
0
 62
     0
 10
96.8816
 20
91.6436
 30
0.0
 11
96.8816
 21
88.5444
 31
0.0
  0
LINE
  8
0
 62
     0
 10
96.8816
 20
88.5444
 30
0.0
 11
97.6824
 21
88.5444
 31
0.0
  0
LINE
  8
0
 62
     0
 10
97.6824
 20
88.5444
 30
0.0
 11
97.6824
 21
82.7444
 31
0.0
  0
LINE
  8
0
 62
     0
 10
97.6824
 20
82.7444
 30
0.0
 11
96.8816
 21
82.7444
 31
0.0
  0
LINE
  8
0
 62
     0
 10
96.8816
 20
82.7444
 30
0.0
 11
96.8816
 21
79.6438
 31
0.0
  0
LINE
  8
0
 62
     0
 10
96.8816
 20
79.6438
 30
0.0
 11
97.6824
 21
79.6438
 31
0.0
  0
LINE
  8
0
 62
     0
 10
97.6824
 20
79.6438
 30
0.0
 11
97.6824
 21
78.6447
 31
0.0
  0
LINE
  8
0
 62
     0
 10
97.6824
 20
78.6447
 30
0.0
 11
111.682
 21
78.6447
 31
0.0
  0
LINE
  8
0
 62
     0
 10
111.682
 20
78.6447
 30
0.0
 11
111.682
 21
79.6438
 31
0.0
  0
LINE
  8
0
 62
     0
 10
111.682
 20
79.6438
 30
0.0
 11
112.482
 21
79.6438
 31
0.0
  0
LINE
  8
0
 62
     0
 10
112.482
 20
79.6438
 30
0.0
 11
112.482
 21
82.7444
 31
0.0
  0
LINE
  8
0
 62
     0
 10
112.482
 20
82.7444
 30
0.0
 11
111.682
 21
82.7444
 31
0.0
  0
LINE
  8
0
 62
     0
 10
111.682
 20
82.7444
 30
0.0
 11
111.682
 21
88.5444
 31
0.0
  0
LINE
  8
0
 62
     0
 10
111.682
 20
88.5444
 30
0.0
 11
112.482
 21
88.5444
 31
0.0
  0
LINE
  8
0
 62
     0
 10
112.482
 20
88.5444
 30
0.0
 11
112.482
 21
91.6436
 31
0.0
  0
LINE
  8
0
 62
     0
 10
112.482
 20
91.6436
 30
0.0
 11
111.682
 21
91.6436
 31
0.0
  0
LINE
  8
0
 62
     0
 10
111.682
 20
91.6436
 30
0.0
 11
111.682
 21
92.644
 31
0.0
  0
LINE
  8
0
 62
     0
 10
111.682
 20
92.644
 30
0.0
 11
97.6824
 21
92.644
 31
0.0
  0
LINE
  8
0
 62
     0
 10
116.732
 20
92.644
 30
0.0
 11
116.732
 21
91.6436
 31
0.0
  0
LINE
  8
0
 62
     0
 10
116.732
 20
91.6436
 30
0.0
 11
115.932
 21
91.6436
 31
0.0
  0
LINE
  8
0
 62
     0
 10
115.932
 20
91.6436
 30
0.0
 11
115.932
 21
88.5444
 31
0.0
  0
LINE
  8
0
 62
     0
 10
115.932
 20
88.5444
 30
0.0
 11
116.732
 21
88.5444
 31
0.0
  0
LINE
  8
0
 62
     0
 10
116.732
 20
88.5444
 30
0.0
 11
116.732
 21
82.7444
 31
0.0
  0
LINE
  8
0
 62
     0
 10
116.732
 20
82.7444
 30
0.0
 11
115.932
 21
82.7444
 31
0.0
  0
LINE
  8
0
 62
     0
 10
115.932
 20
82.7444
 30
0.0
 11
115.932
 21
79.6438
 31
0.0
  0
LINE
  8
0
 62
     0
 10
115.932
 20
79.6438
 30
0.0
 11
116.732
 21
79.6438
 31
0.0
  0
LINE
  8
0
 62
     0
 10
116.732
 20
79.6438
 30
0.0
 11
116.732
 21
78.6447
 31
0.0
  0
LINE
  8
0
 62
     0
 10
116.732
 20
78.6447
 30
0.0
 11
130.732
 21
78.6447
 31
0.0
  0
LINE
  8
0
 62
     0
 10
130.732
 20
78.6447
 30
0.0
 11
130.732
 21
79.6438
 31
0.0
  0
LINE
  8
0
 62
     0
 10
130.732
 20
79.6438
 30
0.0
 11
131.532
 21
79.6438
 31
0.0
  0
LINE
  8
0
 62
     0
 10
131.532
 20
79.6438
 30
0.0
 11
131.532
 21
82.7444
 31
0.0
  0
LINE
  8
0
 62
     0
 10
131.532
 20
82.7444
 30
0.0
 11
130.732
 21
82.7444
 31
0.0
  0
LINE
  8
0
 62
     0
 10
130.732
 20
82.7444
 30
0.0
 11
130.732
 21
88.5444
 31
0.0
  0
LINE
  8
0
 62
     0
 10
130.732
 20
88.5444
 30
0.0
 11
131.532
 21
88.5444
 31
0.0
  0
LINE
  8
0
 62
     0
 10
131.532
 20
88.5444
 30
0.0
 11
131.532
 21
91.6436
 31
0.0
  0
LINE
  8
0
 62
     0
 10
131.532
 20
91.6436
 30
0.0
 11
130.732
 21
91.6436
 31
0.0
  0
LINE
  8
0
 62
     0
 10
130.732
 20
91.6436
 30
0.0
 11
130.732
 21
92.644
 31
0.0
  0
LINE
  8
0
 62
     0
 10
130.732
 20
92.644
 30
0.0
 11
116.732
 21
92.644
 31
0.0
  0
LINE
  8
0
 62
     0
 10
135.782
 20
92.644
 30
0.0
 11
135.782
 21
91.6436
 31
0.0
  0
LINE
  8
0
 62
     0
 10
135.782
 20
91.6436
 30
0.0
 11
134.982
 21
91.6436
 31
0.0
  0
LINE
  8
0
 62
     0
 10
134.982
 20
91.6436
 30
0.0
 11
134.982
 21
88.5444
 31
0.0
  0
LINE
  8
0
 62
     0
 10
134.982
 20
88.5444
 30
0.0
 11
135.782
 21
88.5444
 31
0.0
  0
LINE
  8
0
 62
     0
 10
135.782
 20
88.5444
 30
0.0
 11
135.782
 21
82.7444
 31
0.0
  0
LINE
  8
0
 62
     0
 10
135.782
 20
82.7444
 30
0.0
 11
134.982
 21
82.7444
 31
0.0
  0
LINE
  8
0
 62
     0
 10
134.982
 20
82.7444
 30
0.0
 11
134.982
 21
79.6438
 31
0.0
  0
LINE
  8
0
 62
     0
 10
134.982
 20
79.6438
 30
0.0
 11
135.782
 21
79.6438
 31
0.0
  0
LINE
  8
0
 62
     0
 10
135.782
 20
79.6438
 30
0.0
 11
135.782
 21
78.6447
 31
0.0
  0
LINE
  8
0
 62
     0
 10
135.782
 20
78.6447
 30
0.0
 11
149.782
 21
78.6447
 31
0.0
  0
LINE
  8
0
 62
     0
 10
149.782
 20
78.6447
 30
0.0
 11
149.782
 21
79.6438
 31
0.0
  0
LINE
  8
0
 62
     0
 10
149.782
 20
79.6438
 30
0.0
 11
150.581
 21
79.6438
 31
0.0
  0
LINE
  8
0
 62
     0
 10
150.581
 20
79.6438
 30
0.0
 11
150.581
 21
82.7444
 31
0.0
  0
LINE
  8
0
 62
     0
 10
150.581
 20
82.7444
 30
0.0
 11
149.782
 21
82.7444
 31
0.0
  0
LINE
  8
0
 62
     0
 10
149.782
 20
82.7444
 30
0.0
 11
149.782
 21
88.5444
 31
0.0
  0
LINE
  8
0
 62
     0
 10
149.782
 20
88.5444
 30
0.0
 11
150.581
 21
88.5444
 31
0.0
  0
LINE
  8
0
 62
     0
 10
150.581
 20
88.5444
 30
0.0
 11
150.581
 21
91.6436
 31
0.0
  0
LINE
  8
0
 62
     0
 10
150.581
 20
91.6436
 30
0.0
 11
149.782
 21
91.6436
 31
0.0
  0
LINE
  8
0
 62
     0
 10
149.782
 20
91.6436
 30
0.0
 11
149.782
 21
92.644
 31
0.0
  0
LINE
  8
0
 62
     0
 10
149.782
 20
92.644
 30
0.0
 11
135.782
 21
92.644
 31
0.0
  0
LINE
  8
0
 62
     0
 10
154.831
 20
92.644
 30
0.0
 11
154.831
 21
91.6436
 31
0.0
  0
LINE
  8
0
 62
     0
 10
154.831
 20
91.6436
 30
0.0
 11
154.032
 21
91.6436
 31
0.0
  0
LINE
  8
0
 62
     0
 10
154.032
 20
91.6436
 30
0.0
 11
154.032
 21
88.5444
 31
0.0
  0
LINE
  8
0
 62
     0
 10
154.032
 20
88.5444
 30
0.0
 11
154.831
 21
88.5444
 31
0.0
  0
LINE
  8
0
 62
     0
 10
154.831
 20
88.5444
 30
0.0
 11
154.831
 21
82.7444
 31
0.0
  0
LINE
  8
0
 62
     0
 10
154.831
 20
82.7444
 30
0.0
 11
154.032
 21
82.7444
 31
0.0
  0
LINE
  8
0
 62
     0
 10
154.032
 20
82.7444
 30
0.0
 11
154.032
 21
79.6438
 31
0.0
  0
LINE
  8
0
 62
     0
 10
154.032
 20
79.6438
 30
0.0
 11
154.831
 21
79.6438
 31
0.0
  0
LINE
  8
0
 62
     0
 10
154.831
 20
79.6438
 30
0.0
 11
154.831
 21
78.6447
 31
0.0
  0
LINE
  8
0
 62
     0
 10
154.831
 20
78.6447
 30
0.0
 11
168.832
 21
78.6447
 31
0.0
  0
LINE
  8
0
 62
     0
 10
168.832
 20
78.6447
 30
0.0
 11
168.832
 21
79.6438
 31
0.0
  0
LINE
  8
0
 62
     0
 10
168.832
 20
79.6438
 30
0.0
 11
169.632
 21
79.6438
 31
0.0
  0
LINE
  8
0
 62
     0
 10
169.632
 20
79.6438
 30
0.0
 11
169.632
 21
82.7444
 31
0.0
  0
LINE
  8
0
 62
     0
 10
169.632
 20
82.7444
 30
0.0
 11
168.832
 21
82.7444
 31
0.0
  0
LINE
  8
0
 62
     0
 10
168.832
 20
82.7444
 30
0.0
 11
168.832
 21
88.5444
 31
0.0
  0
LINE
  8
0
 62
     0
 10
168.832
 20
88.5444
 30
0.0
 11
169.632
 21
88.5444
 31
0.0
  0
LINE
  8
0
 62
     0
 10
169.632
 20
88.5444
 30
0.0
 11
169.632
 21
91.6436
 31
0.0
  0
LINE
  8
0
 62
     0
 10
169.632
 20
91.6436
 30
0.0
 11
168.832
 21
91.6436
 31
0.0
  0
LINE
  8
0
 62
     0
 10
168.832
 20
91.6436
 30
0.0
 11
168.832
 21
92.644
 31
0.0
  0
LINE
  8
0
 62
     0
 10
168.832
 20
92.644
 30
0.0
 11
154.831
 21
92.644
 31
0.0
  0
LINE
  8
0
 62
     0
 10
173.882
 20
92.644
 30
0.0
 11
173.882
 21
91.6436
 31
0.0
  0
LINE
  8
0
 62
     0
 10
173.882
 20
91.6436
 30
0.0
 11
173.082
 21
91.6436
 31
0.0
  0
LINE
  8
0
 62
     0
 10
173.082
 20
91.6436
 30
0.0
 11
173.082
 21
88.5444
 31
0.0
  0
LINE
  8
0
 62
     0
 10
173.082
 20
88.5444
 30
0.0
 11
173.882
 21
88.5444
 31
0.0
  0
LINE
  8
0
 62
     0
 10
173.882
 20
88.5444
 30
0.0
 11
173.882
 21
82.7444
 31
0.0
  0
LINE
  8
0
 62
     0
 10
173.882
 20
82.7444
 30
0.0
 11
173.082
 21
82.7444
 31
0.0
  0
LINE
  8
0
 62
     0
 10
173.082
 20
82.7444
 30
0.0
 11
173.082
 21
79.6438
 31
0.0
  0
LINE
  8
0
 62
     0
 10
173.082
 20
79.6438
 30
0.0
 11
173.882
 21
79.6438
 31
0.0
  0
LINE
  8
0
 62
     0
 10
173.882
 20
79.6438
 30
0.0
 11
173.882
 21
78.6447
 31
0.0
  0
LINE
  8
0
 62
     0
 10
173.882
 20
78.6447
 30
0.0
 11
187.882
 21
78.6447
 31
0.0
  0
LINE
  8
0
 62
     0
 10
187.882
 20
78.6447
 30
0.0
 11
187.882
 21
79.6438
 31
0.0
  0
LINE
  8
0
 62
     0
 10
187.882
 20
79.6438
 30
0.0
 11
188.681
 21
79.6438
 31
0.0
  0
LINE
  8
0
 62
     0
 10
188.681
 20
79.6438
 30
0.0
 11
188.681
 21
82.7444
 31
0.0
  0
LINE
  8
0
 62
     0
 10
188.681
 20
82.7444
 30
0.0
 11
187.882
 21
82.7444
 31
0.0
  0
LINE
  8
0
 62
     0
 10
187.882
 20
82.7444
 30
0.0
 11
187.882
 21
88.5444
 31
0.0
  0
LINE
  8
0
 62
     0
 10
187.882
 20
88.5444
 30
0.0
 11
188.681
 21
88.5444
 31
0.0
  0
LINE
  8
0
 62
     0
 10
188.681
 20
88.5444
 30
0.0
 11
188.681
 21
91.6436
 31
0.0
  0
LINE
  8
0
 62
     0
 10
188.681
 20
91.6436
 30
0.0
 11
187.882
 21
91.6436
 31
0.0
  0
LINE
  8
0
 62
     0
 10
187.882
 20
91.6436
 30
0.0
 11
187.882
 21
92.644
 31
0.0
  0
LINE
  8
0
 62
     0
 10
187.882
 20
92.644
 30
0.0
 11
173.882
 21
92.644
 31
0.0
  0
LINE
  8
0
 62
     0
 10
192.931
 20
92.644
 30
0.0
 11
192.931
 21
91.6436
 31
0.0
  0
LINE
  8
0
 62
     0
 10
192.931
 20
91.6436
 30
0.0
 11
192.132
 21
91.6436
 31
0.0
  0
LINE
  8
0
 62
     0
 10
192.132
 20
91.6436
 30
0.0
 11
192.132
 21
88.5444
 31
0.0
  0
LINE
  8
0
 62
     0
 10
192.132
 20
88.5444
 30
0.0
 11
192.931
 21
88.5444
 31
0.0
  0
LINE
  8
0
 62
     0
 10
192.931
 20
88.5444
 30
0.0
 11
192.931
 21
82.7444
 31
0.0
  0
LINE
  8
0
 62
     0
 10
192.931
 20
82.7444
 30
0.0
 11
192.132
 21
82.7444
 31
0.0
  0
LINE
  8
0
 62
     0
 10
192.132
 20
82.7444
 30
0.0
 11
192.132
 21
79.6438
 31
0.0
  0
LINE
  8
0
 62
     0
 10
192.132
 20
79.6438
 30
0.0
 11
192.931
 21
79.6438
 31
0.0
  0
LINE
  8
0
 62
     0
 10
192.931
 20
79.6438
 30
0.0
 11
192.931
 21
78.6447
 31
0.0
  0
LINE
  8
0
 62
     0
 10
192.931
 20
78.6447
 30
0.0
 11
206.932
 21
78.6447
 31
0.0
  0
LINE
  8
0
 62
     0
 10
206.932
 20
78.6447
 30
0.0
 11
206.932
 21
79.6438
 31
0.0
  0
LINE
  8
0
 62
     0
 10
206.932
 20
79.6438
 30
0.0
 11
207.732
 21
79.6438
 31
0.0
  0
LINE
  8
0
 62
     0
 10
207.732
 20
79.6438
 30
0.0
 11
207.732
 21
82.7444
 31
0.0
  0
LINE
  8
0
 62
     0
 10
207.732
 20
82.7444
 30
0.0
 11
206.932
 21
82.7444
 31
0.0
  0
LINE
  8
0
 62
     0
 10
206.932
 20
82.7444
 30
0.0
 11
206.932
 21
88.5444
 31
0.0
  0
LINE
  8
0
 62
     0
 10
206.932
 20
88.5444
 30
0.0
 11
207.732
 21
88.5444
 31
0.0
  0
LINE
  8
0
 62
     0
 10
207.732
 20
88.5444
 30
0.0
 11
207.732
 21
91.6436
 31
0.0
  0
LINE
  8
0
 62
     0
 10
207.732
 20
91.6436
 30
0.0
 11
206.932
 21
91.6436
 31
0.0
  0
LINE
  8
0
 62
     0
 10
206.932
 20
91.6436
 30
0.0
 11
206.932
 21
92.644
 31
0.0
  0
LINE
  8
0
 62
     0
 10
206.932
 20
92.644
 30
0.0
 11
192.931
 21
92.644
 31
0.0
  0
LINE
  8
0
 62
     0
 10
211.982
 20
92.644
 30
0.0
 11
211.982
 21
91.6436
 31
0.0
  0
LINE
  8
0
 62
     0
 10
211.982
 20
91.6436
 30
0.0
 11
211.182
 21
91.6436
 31
0.0
  0
LINE
  8
0
 62
     0
 10
211.182
 20
91.6436
 30
0.0
 11
211.182
 21
88.5444
 31
0.0
  0
LINE
  8
0
 62
     0
 10
211.182
 20
88.5444
 30
0.0
 11
211.982
 21
88.5444
 31
0.0
  0
LINE
  8
0
 62
     0
 10
211.982
 20
88.5444
 30
0.0
 11
211.982
 21
82.7444
 31
0.0
  0
LINE
  8
0
 62
     0
 10
211.982
 20
82.7444
 30
0.0
 11
211.182
 21
82.7444
 31
0.0
  0
LINE
  8
0
 62
     0
 10
211.182
 20
82.7444
 30
0.0
 11
211.182
 21
79.6438
 31
0.0
  0
LINE
  8
0
 62
     0
 10
211.182
 20
79.6438
 30
0.0
 11
211.982
 21
79.6438
 31
0.0
  0
LINE
  8
0
 62
     0
 10
211.982
 20
79.6438
 30
0.0
 11
211.982
 21
78.6447
 31
0.0
  0
LINE
  8
0
 62
     0
 10
211.982
 20
78.6447
 30
0.0
 11
225.982
 21
78.6447
 31
0.0
  0
LINE
  8
0
 62
     0
 10
225.982
 20
78.6447
 30
0.0
 11
225.982
 21
79.6438
 31
0.0
  0
LINE
  8
0
 62
     0
 10
225.982
 20
79.6438
 30
0.0
 11
226.782
 21
79.6438
 31
0.0
  0
LINE
  8
0
 62
     0
 10
226.782
 20
79.6438
 30
0.0
 11
226.782
 21
82.7444
 31
0.0
  0
LINE
  8
0
 62
     0
 10
226.782
 20
82.7444
 30
0.0
 11
225.982
 21
82.7444
 31
0.0
  0
LINE
  8
0
 62
     0
 10
225.982
 20
82.7444
 30
0.0
 11
225.982
 21
88.5444
 31
0.0
  0
LINE
  8
0
 62
     0
 10
225.982
 20
88.5444
 30
0.0
 11
226.782
 21
88.5444
 31
0.0
  0
LINE
  8
0
 62
     0
 10
226.782
 20
88.5444
 30
0.0
 11
226.782
 21
91.6436
 31
0.0
  0
LINE
  8
0
 62
     0
 10
226.782
 20
91.6436
 30
0.0
 11
225.982
 21
91.6436
 31
0.0
  0
LINE
  8
0
 62
     0
 10
225.982
 20
91.6436
 30
0.0
 11
225.982
 21
92.644
 31
0.0
  0
LINE
  8
0
 62
     0
 10
225.982
 20
92.644
 30
0.0
 11
211.982
 21
92.644
 31
0.0
  0
LINE
  8
0
 62
     0
 10
231.032
 20
92.644
 30
0.0
 11
231.032
 21
91.6436
 31
0.0
  0
LINE
  8
0
 62
     0
 10
231.032
 20
91.6436
 30
0.0
 11
230.232
 21
91.6436
 31
0.0
  0
LINE
  8
0
 62
     0
 10
230.232
 20
91.6436
 30
0.0
 11
230.232
 21
88.5444
 31
0.0
  0
LINE
  8
0
 62
     0
 10
230.232
 20
88.5444
 30
0.0
 11
231.032
 21
88.5444
 31
0.0
  0
LINE
  8
0
 62
     0
 10
231.032
 20
88.5444
 30
0.0
 11
231.032
 21
82.7444
 31
0.0
  0
LINE
  8
0
 62
     0
 10
231.032
 20
82.7444
 30
0.0
 11
230.232
 21
82.7444
 31
0.0
  0
LINE
  8
0
 62
     0
 10
230.232
 20
82.7444
 30
0.0
 11
230.232
 21
79.6438
 31
0.0
  0
LINE
  8
0
 62
     0
 10
230.232
 20
79.6438
 30
0.0
 11
231.032
 21
79.6438
 31
0.0
  0
LINE
  8
0
 62
     0
 10
231.032
 20
79.6438
 30
0.0
 11
231.032
 21
78.6447
 31
0.0
  0
LINE
  8
0
 62
     0
 10
231.032
 20
78.6447
 30
0.0
 11
245.032
 21
78.6447
 31
0.0
  0
LINE
  8
0
 62
     0
 10
245.032
 20
78.6447
 30
0.0
 11
245.032
 21
79.6438
 31
0.0
  0
LINE
  8
0
 62
     0
 10
245.032
 20
79.6438
 30
0.0
 11
245.831
 21
79.6438
 31
0.0
  0
LINE
  8
0
 62
     0
 10
245.831
 20
79.6438
 30
0.0
 11
245.831
 21
82.7444
 31
0.0
  0
LINE
  8
0
 62
     0
 10
245.831
 20
82.7444
 30
0.0
 11
245.032
 21
82.7444
 31
0.0
  0
LINE
  8
0
 62
     0
 10
245.032
 20
82.7444
 30
0.0
 11
245.032
 21
88.5444
 31
0.0
  0
LINE
  8
0
 62
     0
 10
245.032
 20
88.5444
 30
0.0
 11
245.831
 21
88.5444
 31
0.0
  0
LINE
  8
0
 62
     0
 10
245.831
 20
88.5444
 30
0.0
 11
245.831
 21
91.6436
 31
0.0
  0
LINE
  8
0
 62
     0
 10
245.831
 20
91.6436
 30
0.0
 11
245.032
 21
91.6436
 31
0.0
  0
LINE
  8
0
 62
     0
 10
245.032
 20
91.6436
 30
0.0
 11
245.032
 21
92.644
 31
0.0
  0
LINE
  8
0
 62
     0
 10
245.032
 20
92.644
 30
0.0
 11
231.032
 21
92.644
 31
0.0
  0
LINE
  8
0
 62
     0
 10
2.43224
 20
111.694
 30
0.0
 11
2.43224
 21
110.694
 31
0.0
  0
LINE
  8
0
 62
     0
 10
2.43224
 20
110.694
 30
0.0
 11
1.6316
 21
110.694
 31
0.0
  0
LINE
  8
0
 62
     0
 10
1.6316
 20
110.694
 30
0.0
 11
1.6316
 21
107.594
 31
0.0
  0
LINE
  8
0
 62
     0
 10
1.6316
 20
107.594
 30
0.0
 11
2.43224
 21
107.594
 31
0.0
  0
LINE
  8
0
 62
     0
 10
2.43224
 20
107.594
 30
0.0
 11
2.43224
 21
101.794
 31
0.0
  0
LINE
  8
0
 62
     0
 10
2.43224
 20
101.794
 30
0.0
 11
1.6316
 21
101.794
 31
0.0
  0
LINE
  8
0
 62
     0
 10
1.6316
 20
101.794
 30
0.0
 11
1.6316
 21
98.6938
 31
0.0
  0
LINE
  8
0
 62
     0
 10
1.6316
 20
98.6938
 30
0.0
 11
2.43224
 21
98.6938
 31
0.0
  0
LINE
  8
0
 62
     0
 10
2.43224
 20
98.6938
 30
0.0
 11
2.43224
 21
97.6947
 31
0.0
  0
LINE
  8
0
 62
     0
 10
2.43224
 20
97.6947
 30
0.0
 11
16.4317
 21
97.6947
 31
0.0
  0
LINE
  8
0
 62
     0
 10
16.4317
 20
97.6947
 30
0.0
 11
16.4317
 21
98.6938
 31
0.0
  0
LINE
  8
0
 62
     0
 10
16.4317
 20
98.6938
 30
0.0
 11
17.2324
 21
98.6938
 31
0.0
  0
LINE
  8
0
 62
     0
 10
17.2324
 20
98.6938
 30
0.0
 11
17.2324
 21
101.794
 31
0.0
  0
LINE
  8
0
 62
     0
 10
17.2324
 20
101.794
 30
0.0
 11
16.4317
 21
101.794
 31
0.0
  0
LINE
  8
0
 62
     0
 10
16.4317
 20
101.794
 30
0.0
 11
16.4317
 21
107.594
 31
0.0
  0
LINE
  8
0
 62
     0
 10
16.4317
 20
107.594
 30
0.0
 11
17.2324
 21
107.594
 31
0.0
  0
LINE
  8
0
 62
     0
 10
17.2324
 20
107.594
 30
0.0
 11
17.2324
 21
110.694
 31
0.0
  0
LINE
  8
0
 62
     0
 10
17.2324
 20
110.694
 30
0.0
 11
16.4317
 21
110.694
 31
0.0
  0
LINE
  8
0
 62
     0
 10
16.4317
 20
110.694
 30
0.0
 11
16.4317
 21
111.694
 31
0.0
  0
LINE
  8
0
 62
     0
 10
16.4317
 20
111.694
 30
0.0
 11
2.43224
 21
111.694
 31
0.0
  0
LINE
  8
0
 62
     0
 10
21.4822
 20
111.694
 30
0.0
 11
21.4822
 21
110.694
 31
0.0
  0
LINE
  8
0
 62
     0
 10
21.4822
 20
110.694
 30
0.0
 11
20.6816
 21
110.694
 31
0.0
  0
LINE
  8
0
 62
     0
 10
20.6816
 20
110.694
 30
0.0
 11
20.6816
 21
107.594
 31
0.0
  0
LINE
  8
0
 62
     0
 10
20.6816
 20
107.594
 30
0.0
 11
21.4822
 21
107.594
 31
0.0
  0
LINE
  8
0
 62
     0
 10
21.4822
 20
107.594
 30
0.0
 11
21.4822
 21
101.794
 31
0.0
  0
LINE
  8
0
 62
     0
 10
21.4822
 20
101.794
 30
0.0
 11
20.6816
 21
101.794
 31
0.0
  0
LINE
  8
0
 62
     0
 10
20.6816
 20
101.794
 30
0.0
 11
20.6816
 21
98.6938
 31
0.0
  0
LINE
  8
0
 62
     0
 10
20.6816
 20
98.6938
 30
0.0
 11
21.4822
 21
98.6938
 31
0.0
  0
LINE
  8
0
 62
     0
 10
21.4822
 20
98.6938
 30
0.0
 11
21.4822
 21
97.6947
 31
0.0
  0
LINE
  8
0
 62
     0
 10
21.4822
 20
97.6947
 30
0.0
 11
35.4817
 21
97.6947
 31
0.0
  0
LINE
  8
0
 62
     0
 10
35.4817
 20
97.6947
 30
0.0
 11
35.4817
 21
98.6938
 31
0.0
  0
LINE
  8
0
 62
     0
 10
35.4817
 20
98.6938
 30
0.0
 11
36.2825
 21
98.6938
 31
0.0
  0
LINE
  8
0
 62
     0
 10
36.2825
 20
98.6938
 30
0.0
 11
36.2825
 21
101.794
 31
0.0
  0
LINE
  8
0
 62
     0
 10
36.2825
 20
101.794
 30
0.0
 11
35.4817
 21
101.794
 31
0.0
  0
LINE
  8
0
 62
     0
 10
35.4817
 20
101.794
 30
0.0
 11
35.4817
 21
107.594
 31
0.0
  0
LINE
  8
0
 62
     0
 10
35.4817
 20
107.594
 30
0.0
 11
36.2825
 21
107.594
 31
0.0
  0
LINE
  8
0
 62
     0
 10
36.2825
 20
107.594
 30
0.0
 11
36.2825
 21
110.694
 31
0.0
  0
LINE
  8
0
 62
     0
 10
36.2825
 20
110.694
 30
0.0
 11
35.4817
 21
110.694
 31
0.0
  0
LINE
  8
0
 62
     0
 10
35.4817
 20
110.694
 30
0.0
 11
35.4817
 21
111.694
 31
0.0
  0
LINE
  8
0
 62
     0
 10
35.4817
 20
111.694
 30
0.0
 11
21.4822
 21
111.694
 31
0.0
  0
LINE
  8
0
 62
     0
 10
40.5324
 20
111.694
 30
0.0
 11
40.5324
 21
110.694
 31
0.0
  0
LINE
  8
0
 62
     0
 10
40.5324
 20
110.694
 30
0.0
 11
39.7316
 21
110.694
 31
0.0
  0
LINE
  8
0
 62
     0
 10
39.7316
 20
110.694
 30
0.0
 11
39.7316
 21
107.594
 31
0.0
  0
LINE
  8
0
 62
     0
 10
39.7316
 20
107.594
 30
0.0
 11
40.5324
 21
107.594
 31
0.0
  0
LINE
  8
0
 62
     0
 10
40.5324
 20
107.594
 30
0.0
 11
40.5324
 21
101.794
 31
0.0
  0
LINE
  8
0
 62
     0
 10
40.5324
 20
101.794
 30
0.0
 11
39.7316
 21
101.794
 31
0.0
  0
LINE
  8
0
 62
     0
 10
39.7316
 20
101.794
 30
0.0
 11
39.7316
 21
98.6938
 31
0.0
  0
LINE
  8
0
 62
     0
 10
39.7316
 20
98.6938
 30
0.0
 11
40.5324
 21
98.6938
 31
0.0
  0
LINE
  8
0
 62
     0
 10
40.5324
 20
98.6938
 30
0.0
 11
40.5324
 21
97.6947
 31
0.0
  0
LINE
  8
0
 62
     0
 10
40.5324
 20
97.6947
 30
0.0
 11
54.5317
 21
97.6947
 31
0.0
  0
LINE
  8
0
 62
     0
 10
54.5317
 20
97.6947
 30
0.0
 11
54.5317
 21
98.6938
 31
0.0
  0
LINE
  8
0
 62
     0
 10
54.5317
 20
98.6938
 30
0.0
 11
55.3311
 21
98.6938
 31
0.0
  0
LINE
  8
0
 62
     0
 10
55.3311
 20
98.6938
 30
0.0
 11
55.3311
 21
101.794
 31
0.0
  0
LINE
  8
0
 62
     0
 10
55.3311
 20
101.794
 30
0.0
 11
54.5317
 21
101.794
 31
0.0
  0
LINE
  8
0
 62
     0
 10
54.5317
 20
101.794
 30
0.0
 11
54.5317
 21
107.594
 31
0.0
  0
LINE
  8
0
 62
     0
 10
54.5317
 20
107.594
 30
0.0
 11
55.3311
 21
107.594
 31
0.0
  0
LINE
  8
0
 62
     0
 10
55.3311
 20
107.594
 30
0.0
 11
55.3311
 21
110.694
 31
0.0
  0
LINE
  8
0
 62
     0
 10
55.3311
 20
110.694
 30
0.0
 11
54.5317
 21
110.694
 31
0.0
  0
LINE
  8
0
 62
     0
 10
54.5317
 20
110.694
 30
0.0
 11
54.5317
 21
111.694
 31
0.0
  0
LINE
  8
0
 62
     0
 10
54.5317
 20
111.694
 30
0.0
 11
40.5324
 21
111.694
 31
0.0
  0
LINE
  8
0
 62
     0
 10
59.581
 20
111.694
 30
0.0
 11
59.581
 21
110.694
 31
0.0
  0
LINE
  8
0
 62
     0
 10
59.581
 20
110.694
 30
0.0
 11
58.7816
 21
110.694
 31
0.0
  0
LINE
  8
0
 62
     0
 10
58.7816
 20
110.694
 30
0.0
 11
58.7816
 21
107.594
 31
0.0
  0
LINE
  8
0
 62
     0
 10
58.7816
 20
107.594
 30
0.0
 11
59.581
 21
107.594
 31
0.0
  0
LINE
  8
0
 62
     0
 10
59.581
 20
107.594
 30
0.0
 11
59.581
 21
101.794
 31
0.0
  0
LINE
  8
0
 62
     0
 10
59.581
 20
101.794
 30
0.0
 11
58.7816
 21
101.794
 31
0.0
  0
LINE
  8
0
 62
     0
 10
58.7816
 20
101.794
 30
0.0
 11
58.7816
 21
98.6938
 31
0.0
  0
LINE
  8
0
 62
     0
 10
58.7816
 20
98.6938
 30
0.0
 11
59.581
 21
98.6938
 31
0.0
  0
LINE
  8
0
 62
     0
 10
59.581
 20
98.6938
 30
0.0
 11
59.581
 21
97.6947
 31
0.0
  0
LINE
  8
0
 62
     0
 10
59.581
 20
97.6947
 30
0.0
 11
73.5817
 21
97.6947
 31
0.0
  0
LINE
  8
0
 62
     0
 10
73.5817
 20
97.6947
 30
0.0
 11
73.5817
 21
98.6938
 31
0.0
  0
LINE
  8
0
 62
     0
 10
73.5817
 20
98.6938
 30
0.0
 11
74.3825
 21
98.6938
 31
0.0
  0
LINE
  8
0
 62
     0
 10
74.3825
 20
98.6938
 30
0.0
 11
74.3825
 21
101.794
 31
0.0
  0
LINE
  8
0
 62
     0
 10
74.3825
 20
101.794
 30
0.0
 11
73.5817
 21
101.794
 31
0.0
  0
LINE
  8
0
 62
     0
 10
73.5817
 20
101.794
 30
0.0
 11
73.5817
 21
107.594
 31
0.0
  0
LINE
  8
0
 62
     0
 10
73.5817
 20
107.594
 30
0.0
 11
74.3825
 21
107.594
 31
0.0
  0
LINE
  8
0
 62
     0
 10
74.3825
 20
107.594
 30
0.0
 11
74.3825
 21
110.694
 31
0.0
  0
LINE
  8
0
 62
     0
 10
74.3825
 20
110.694
 30
0.0
 11
73.5817
 21
110.694
 31
0.0
  0
LINE
  8
0
 62
     0
 10
73.5817
 20
110.694
 30
0.0
 11
73.5817
 21
111.694
 31
0.0
  0
LINE
  8
0
 62
     0
 10
73.5817
 20
111.694
 30
0.0
 11
59.581
 21
111.694
 31
0.0
  0
LINE
  8
0
 62
     0
 10
78.6324
 20
111.694
 30
0.0
 11
78.6324
 21
110.694
 31
0.0
  0
LINE
  8
0
 62
     0
 10
78.6324
 20
110.694
 30
0.0
 11
77.8316
 21
110.694
 31
0.0
  0
LINE
  8
0
 62
     0
 10
77.8316
 20
110.694
 30
0.0
 11
77.8316
 21
107.594
 31
0.0
  0
LINE
  8
0
 62
     0
 10
77.8316
 20
107.594
 30
0.0
 11
78.6324
 21
107.594
 31
0.0
  0
LINE
  8
0
 62
     0
 10
78.6324
 20
107.594
 30
0.0
 11
78.6324
 21
101.794
 31
0.0
  0
LINE
  8
0
 62
     0
 10
78.6324
 20
101.794
 30
0.0
 11
77.8316
 21
101.794
 31
0.0
  0
LINE
  8
0
 62
     0
 10
77.8316
 20
101.794
 30
0.0
 11
77.8316
 21
98.6938
 31
0.0
  0
LINE
  8
0
 62
     0
 10
77.8316
 20
98.6938
 30
0.0
 11
78.6324
 21
98.6938
 31
0.0
  0
LINE
  8
0
 62
     0
 10
78.6324
 20
98.6938
 30
0.0
 11
78.6324
 21
97.6947
 31
0.0
  0
LINE
  8
0
 62
     0
 10
78.6324
 20
97.6947
 30
0.0
 11
92.6317
 21
97.6947
 31
0.0
  0
LINE
  8
0
 62
     0
 10
92.6317
 20
97.6947
 30
0.0
 11
92.6317
 21
98.6938
 31
0.0
  0
LINE
  8
0
 62
     0
 10
92.6317
 20
98.6938
 30
0.0
 11
93.4325
 21
98.6938
 31
0.0
  0
LINE
  8
0
 62
     0
 10
93.4325
 20
98.6938
 30
0.0
 11
93.4325
 21
101.794
 31
0.0
  0
LINE
  8
0
 62
     0
 10
93.4325
 20
101.794
 30
0.0
 11
92.6317
 21
101.794
 31
0.0
  0
LINE
  8
0
 62
     0
 10
92.6317
 20
101.794
 30
0.0
 11
92.6317
 21
107.594
 31
0.0
  0
LINE
  8
0
 62
     0
 10
92.6317
 20
107.594
 30
0.0
 11
93.4325
 21
107.594
 31
0.0
  0
LINE
  8
0
 62
     0
 10
93.4325
 20
107.594
 30
0.0
 11
93.4325
 21
110.694
 31
0.0
  0
LINE
  8
0
 62
     0
 10
93.4325
 20
110.694
 30
0.0
 11
92.6317
 21
110.694
 31
0.0
  0
LINE
  8
0
 62
     0
 10
92.6317
 20
110.694
 30
0.0
 11
92.6317
 21
111.694
 31
0.0
  0
LINE
  8
0
 62
     0
 10
92.6317
 20
111.694
 30
0.0
 11
78.6324
 21
111.694
 31
0.0
  0
LINE
  8
0
 62
     0
 10
102.445
 20
111.694
 30
0.0
 11
102.445
 21
110.694
 31
0.0
  0
LINE
  8
0
 62
     0
 10
102.445
 20
110.694
 30
0.0
 11
101.646
 21
110.694
 31
0.0
  0
LINE
  8
0
 62
     0
 10
101.646
 20
110.694
 30
0.0
 11
101.646
 21
107.594
 31
0.0
  0
LINE
  8
0
 62
     0
 10
101.646
 20
107.594
 30
0.0
 11
102.445
 21
107.594
 31
0.0
  0
LINE
  8
0
 62
     0
 10
102.445
 20
107.594
 30
0.0
 11
102.445
 21
101.794
 31
0.0
  0
LINE
  8
0
 62
     0
 10
102.445
 20
101.794
 30
0.0
 11
101.646
 21
101.794
 31
0.0
  0
LINE
  8
0
 62
     0
 10
101.646
 20
101.794
 30
0.0
 11
101.646
 21
98.6938
 31
0.0
  0
LINE
  8
0
 62
     0
 10
101.646
 20
98.6938
 30
0.0
 11
102.445
 21
98.6938
 31
0.0
  0
LINE
  8
0
 62
     0
 10
102.445
 20
98.6938
 30
0.0
 11
102.445
 21
97.6947
 31
0.0
  0
LINE
  8
0
 62
     0
 10
102.445
 20
97.6947
 30
0.0
 11
116.444
 21
97.6947
 31
0.0
  0
LINE
  8
0
 62
     0
 10
116.444
 20
97.6947
 30
0.0
 11
116.444
 21
98.6938
 31
0.0
  0
LINE
  8
0
 62
     0
 10
116.444
 20
98.6938
 30
0.0
 11
117.245
 21
98.6938
 31
0.0
  0
LINE
  8
0
 62
     0
 10
117.245
 20
98.6938
 30
0.0
 11
117.245
 21
101.794
 31
0.0
  0
LINE
  8
0
 62
     0
 10
117.245
 20
101.794
 30
0.0
 11
116.444
 21
101.794
 31
0.0
  0
LINE
  8
0
 62
     0
 10
116.444
 20
101.794
 30
0.0
 11
116.444
 21
107.594
 31
0.0
  0
LINE
  8
0
 62
     0
 10
116.444
 20
107.594
 30
0.0
 11
117.245
 21
107.594
 31
0.0
  0
LINE
  8
0
 62
     0
 10
117.245
 20
107.594
 30
0.0
 11
117.245
 21
110.694
 31
0.0
  0
LINE
  8
0
 62
     0
 10
117.245
 20
110.694
 30
0.0
 11
116.444
 21
110.694
 31
0.0
  0
LINE
  8
0
 62
     0
 10
116.444
 20
110.694
 30
0.0
 11
116.444
 21
111.694
 31
0.0
  0
LINE
  8
0
 62
     0
 10
116.444
 20
111.694
 30
0.0
 11
102.445
 21
111.694
 31
0.0
  0
LINE
  8
0
 62
     0
 10
121.495
 20
111.694
 30
0.0
 11
121.495
 21
110.694
 31
0.0
  0
LINE
  8
0
 62
     0
 10
121.495
 20
110.694
 30
0.0
 11
120.694
 21
110.694
 31
0.0
  0
LINE
  8
0
 62
     0
 10
120.694
 20
110.694
 30
0.0
 11
120.694
 21
107.594
 31
0.0
  0
LINE
  8
0
 62
     0
 10
120.694
 20
107.594
 30
0.0
 11
121.495
 21
107.594
 31
0.0
  0
LINE
  8
0
 62
     0
 10
121.495
 20
107.594
 30
0.0
 11
121.495
 21
101.794
 31
0.0
  0
LINE
  8
0
 62
     0
 10
121.495
 20
101.794
 30
0.0
 11
120.694
 21
101.794
 31
0.0
  0
LINE
  8
0
 62
     0
 10
120.694
 20
101.794
 30
0.0
 11
120.694
 21
98.6938
 31
0.0
  0
LINE
  8
0
 62
     0
 10
120.694
 20
98.6938
 30
0.0
 11
121.495
 21
98.6938
 31
0.0
  0
LINE
  8
0
 62
     0
 10
121.495
 20
98.6938
 30
0.0
 11
121.495
 21
97.6947
 31
0.0
  0
LINE
  8
0
 62
     0
 10
121.495
 20
97.6947
 30
0.0
 11
135.496
 21
97.6947
 31
0.0
  0
LINE
  8
0
 62
     0
 10
135.496
 20
97.6947
 30
0.0
 11
135.496
 21
98.6938
 31
0.0
  0
LINE
  8
0
 62
     0
 10
135.496
 20
98.6938
 30
0.0
 11
136.295
 21
98.6938
 31
0.0
  0
LINE
  8
0
 62
     0
 10
136.295
 20
98.6938
 30
0.0
 11
136.295
 21
101.794
 31
0.0
  0
LINE
  8
0
 62
     0
 10
136.295
 20
101.794
 30
0.0
 11
135.496
 21
101.794
 31
0.0
  0
LINE
  8
0
 62
     0
 10
135.496
 20
101.794
 30
0.0
 11
135.496
 21
107.594
 31
0.0
  0
LINE
  8
0
 62
     0
 10
135.496
 20
107.594
 30
0.0
 11
136.295
 21
107.594
 31
0.0
  0
LINE
  8
0
 62
     0
 10
136.295
 20
107.594
 30
0.0
 11
136.295
 21
110.694
 31
0.0
  0
LINE
  8
0
 62
     0
 10
136.295
 20
110.694
 30
0.0
 11
135.496
 21
110.694
 31
0.0
  0
LINE
  8
0
 62
     0
 10
135.496
 20
110.694
 30
0.0
 11
135.496
 21
111.694
 31
0.0
  0
LINE
  8
0
 62
     0
 10
135.496
 20
111.694
 30
0.0
 11
121.495
 21
111.694
 31
0.0
  0
LINE
  8
0
 62
     0
 10
140.545
 20
111.694
 30
0.0
 11
140.545
 21
110.694
 31
0.0
  0
LINE
  8
0
 62
     0
 10
140.545
 20
110.694
 30
0.0
 11
139.746
 21
110.694
 31
0.0
  0
LINE
  8
0
 62
     0
 10
139.746
 20
110.694
 30
0.0
 11
139.746
 21
107.594
 31
0.0
  0
LINE
  8
0
 62
     0
 10
139.746
 20
107.594
 30
0.0
 11
140.545
 21
107.594
 31
0.0
  0
LINE
  8
0
 62
     0
 10
140.545
 20
107.594
 30
0.0
 11
140.545
 21
101.794
 31
0.0
  0
LINE
  8
0
 62
     0
 10
140.545
 20
101.794
 30
0.0
 11
139.746
 21
101.794
 31
0.0
  0
LINE
  8
0
 62
     0
 10
139.746
 20
101.794
 30
0.0
 11
139.746
 21
98.6938
 31
0.0
  0
LINE
  8
0
 62
     0
 10
139.746
 20
98.6938
 30
0.0
 11
140.545
 21
98.6938
 31
0.0
  0
LINE
  8
0
 62
     0
 10
140.545
 20
98.6938
 30
0.0
 11
140.545
 21
97.6947
 31
0.0
  0
LINE
  8
0
 62
     0
 10
140.545
 20
97.6947
 30
0.0
 11
154.544
 21
97.6947
 31
0.0
  0
LINE
  8
0
 62
     0
 10
154.544
 20
97.6947
 30
0.0
 11
154.544
 21
98.6938
 31
0.0
  0
LINE
  8
0
 62
     0
 10
154.544
 20
98.6938
 30
0.0
 11
155.345
 21
98.6938
 31
0.0
  0
LINE
  8
0
 62
     0
 10
155.345
 20
98.6938
 30
0.0
 11
155.345
 21
101.794
 31
0.0
  0
LINE
  8
0
 62
     0
 10
155.345
 20
101.794
 30
0.0
 11
154.544
 21
101.794
 31
0.0
  0
LINE
  8
0
 62
     0
 10
154.544
 20
101.794
 30
0.0
 11
154.544
 21
107.594
 31
0.0
  0
LINE
  8
0
 62
     0
 10
154.544
 20
107.594
 30
0.0
 11
155.345
 21
107.594
 31
0.0
  0
LINE
  8
0
 62
     0
 10
155.345
 20
107.594
 30
0.0
 11
155.345
 21
110.694
 31
0.0
  0
LINE
  8
0
 62
     0
 10
155.345
 20
110.694
 30
0.0
 11
154.544
 21
110.694
 31
0.0
  0
LINE
  8
0
 62
     0
 10
154.544
 20
110.694
 30
0.0
 11
154.544
 21
111.694
 31
0.0
  0
LINE
  8
0
 62
     0
 10
154.544
 20
111.694
 30
0.0
 11
140.545
 21
111.694
 31
0.0
  0
LINE
  8
0
 62
     0
 10
159.595
 20
111.694
 30
0.0
 11
159.595
 21
110.694
 31
0.0
  0
LINE
  8
0
 62
     0
 10
159.595
 20
110.694
 30
0.0
 11
158.794
 21
110.694
 31
0.0
  0
LINE
  8
0
 62
     0
 10
158.794
 20
110.694
 30
0.0
 11
158.794
 21
107.594
 31
0.0
  0
LINE
  8
0
 62
     0
 10
158.794
 20
107.594
 30
0.0
 11
159.595
 21
107.594
 31
0.0
  0
LINE
  8
0
 62
     0
 10
159.595
 20
107.594
 30
0.0
 11
159.595
 21
101.794
 31
0.0
  0
LINE
  8
0
 62
     0
 10
159.595
 20
101.794
 30
0.0
 11
158.794
 21
101.794
 31
0.0
  0
LINE
  8
0
 62
     0
 10
158.794
 20
101.794
 30
0.0
 11
158.794
 21
98.6938
 31
0.0
  0
LINE
  8
0
 62
     0
 10
158.794
 20
98.6938
 30
0.0
 11
159.595
 21
98.6938
 31
0.0
  0
LINE
  8
0
 62
     0
 10
159.595
 20
98.6938
 30
0.0
 11
159.595
 21
97.6947
 31
0.0
  0
LINE
  8
0
 62
     0
 10
159.595
 20
97.6947
 30
0.0
 11
173.596
 21
97.6947
 31
0.0
  0
LINE
  8
0
 62
     0
 10
173.596
 20
97.6947
 30
0.0
 11
173.596
 21
98.6938
 31
0.0
  0
LINE
  8
0
 62
     0
 10
173.596
 20
98.6938
 30
0.0
 11
174.395
 21
98.6938
 31
0.0
  0
LINE
  8
0
 62
     0
 10
174.395
 20
98.6938
 30
0.0
 11
174.395
 21
101.794
 31
0.0
  0
LINE
  8
0
 62
     0
 10
174.395
 20
101.794
 30
0.0
 11
173.596
 21
101.794
 31
0.0
  0
LINE
  8
0
 62
     0
 10
173.596
 20
101.794
 30
0.0
 11
173.596
 21
107.594
 31
0.0
  0
LINE
  8
0
 62
     0
 10
173.596
 20
107.594
 30
0.0
 11
174.395
 21
107.594
 31
0.0
  0
LINE
  8
0
 62
     0
 10
174.395
 20
107.594
 30
0.0
 11
174.395
 21
110.694
 31
0.0
  0
LINE
  8
0
 62
     0
 10
174.395
 20
110.694
 30
0.0
 11
173.596
 21
110.694
 31
0.0
  0
LINE
  8
0
 62
     0
 10
173.596
 20
110.694
 30
0.0
 11
173.596
 21
111.694
 31
0.0
  0
LINE
  8
0
 62
     0
 10
173.596
 20
111.694
 30
0.0
 11
159.595
 21
111.694
 31
0.0
  0
LINE
  8
0
 62
     0
 10
183.407
 20
111.694
 30
0.0
 11
183.407
 21
110.694
 31
0.0
  0
LINE
  8
0
 62
     0
 10
183.407
 20
110.694
 30
0.0
 11
182.607
 21
110.694
 31
0.0
  0
LINE
  8
0
 62
     0
 10
182.607
 20
110.694
 30
0.0
 11
182.607
 21
107.594
 31
0.0
  0
LINE
  8
0
 62
     0
 10
182.607
 20
107.594
 30
0.0
 11
183.407
 21
107.594
 31
0.0
  0
LINE
  8
0
 62
     0
 10
183.407
 20
107.594
 30
0.0
 11
183.407
 21
101.794
 31
0.0
  0
LINE
  8
0
 62
     0
 10
183.407
 20
101.794
 30
0.0
 11
182.607
 21
101.794
 31
0.0
  0
LINE
  8
0
 62
     0
 10
182.607
 20
101.794
 30
0.0
 11
182.607
 21
98.6938
 31
0.0
  0
LINE
  8
0
 62
     0
 10
182.607
 20
98.6938
 30
0.0
 11
183.407
 21
98.6938
 31
0.0
  0
LINE
  8
0
 62
     0
 10
183.407
 20
98.6938
 30
0.0
 11
183.407
 21
97.6947
 31
0.0
  0
LINE
  8
0
 62
     0
 10
183.407
 20
97.6947
 30
0.0
 11
197.407
 21
97.6947
 31
0.0
  0
LINE
  8
0
 62
     0
 10
197.407
 20
97.6947
 30
0.0
 11
197.407
 21
98.6938
 31
0.0
  0
LINE
  8
0
 62
     0
 10
197.407
 20
98.6938
 30
0.0
 11
198.206
 21
98.6938
 31
0.0
  0
LINE
  8
0
 62
     0
 10
198.206
 20
98.6938
 30
0.0
 11
198.206
 21
101.794
 31
0.0
  0
LINE
  8
0
 62
     0
 10
198.206
 20
101.794
 30
0.0
 11
197.407
 21
101.794
 31
0.0
  0
LINE
  8
0
 62
     0
 10
197.407
 20
101.794
 30
0.0
 11
197.407
 21
107.594
 31
0.0
  0
LINE
  8
0
 62
     0
 10
197.407
 20
107.594
 30
0.0
 11
198.206
 21
107.594
 31
0.0
  0
LINE
  8
0
 62
     0
 10
198.206
 20
107.594
 30
0.0
 11
198.206
 21
110.694
 31
0.0
  0
LINE
  8
0
 62
     0
 10
198.206
 20
110.694
 30
0.0
 11
197.407
 21
110.694
 31
0.0
  0
LINE
  8
0
 62
     0
 10
197.407
 20
110.694
 30
0.0
 11
197.407
 21
111.694
 31
0.0
  0
LINE
  8
0
 62
     0
 10
197.407
 20
111.694
 30
0.0
 11
183.407
 21
111.694
 31
0.0
  0
LINE
  8
0
 62
     0
 10
202.456
 20
111.694
 30
0.0
 11
202.456
 21
110.694
 31
0.0
  0
LINE
  8
0
 62
     0
 10
202.456
 20
110.694
 30
0.0
 11
201.657
 21
110.694
 31
0.0
  0
LINE
  8
0
 62
     0
 10
201.657
 20
110.694
 30
0.0
 11
201.657
 21
107.594
 31
0.0
  0
LINE
  8
0
 62
     0
 10
201.657
 20
107.594
 30
0.0
 11
202.456
 21
107.594
 31
0.0
  0
LINE
  8
0
 62
     0
 10
202.456
 20
107.594
 30
0.0
 11
202.456
 21
101.794
 31
0.0
  0
LINE
  8
0
 62
     0
 10
202.456
 20
101.794
 30
0.0
 11
201.657
 21
101.794
 31
0.0
  0
LINE
  8
0
 62
     0
 10
201.657
 20
101.794
 30
0.0
 11
201.657
 21
98.6938
 31
0.0
  0
LINE
  8
0
 62
     0
 10
201.657
 20
98.6938
 30
0.0
 11
202.456
 21
98.6938
 31
0.0
  0
LINE
  8
0
 62
     0
 10
202.456
 20
98.6938
 30
0.0
 11
202.456
 21
97.6947
 31
0.0
  0
LINE
  8
0
 62
     0
 10
202.456
 20
97.6947
 30
0.0
 11
216.457
 21
97.6947
 31
0.0
  0
LINE
  8
0
 62
     0
 10
216.457
 20
97.6947
 30
0.0
 11
216.457
 21
98.6938
 31
0.0
  0
LINE
  8
0
 62
     0
 10
216.457
 20
98.6938
 30
0.0
 11
217.257
 21
98.6938
 31
0.0
  0
LINE
  8
0
 62
     0
 10
217.257
 20
98.6938
 30
0.0
 11
217.257
 21
101.794
 31
0.0
  0
LINE
  8
0
 62
     0
 10
217.257
 20
101.794
 30
0.0
 11
216.457
 21
101.794
 31
0.0
  0
LINE
  8
0
 62
     0
 10
216.457
 20
101.794
 30
0.0
 11
216.457
 21
107.594
 31
0.0
  0
LINE
  8
0
 62
     0
 10
216.457
 20
107.594
 30
0.0
 11
217.257
 21
107.594
 31
0.0
  0
LINE
  8
0
 62
     0
 10
217.257
 20
107.594
 30
0.0
 11
217.257
 21
110.694
 31
0.0
  0
LINE
  8
0
 62
     0
 10
217.257
 20
110.694
 30
0.0
 11
216.457
 21
110.694
 31
0.0
  0
LINE
  8
0
 62
     0
 10
216.457
 20
110.694
 30
0.0
 11
216.457
 21
111.694
 31
0.0
  0
LINE
  8
0
 62
     0
 10
216.457
 20
111.694
 30
0.0
 11
202.456
 21
111.694
 31
0.0
  0
LINE
  8
0
 62
     0
 10
221.507
 20
111.694
 30
0.0
 11
221.507
 21
110.694
 31
0.0
  0
LINE
  8
0
 62
     0
 10
221.507
 20
110.694
 30
0.0
 11
220.707
 21
110.694
 31
0.0
  0
LINE
  8
0
 62
     0
 10
220.707
 20
110.694
 30
0.0
 11
220.707
 21
107.594
 31
0.0
  0
LINE
  8
0
 62
     0
 10
220.707
 20
107.594
 30
0.0
 11
221.507
 21
107.594
 31
0.0
  0
LINE
  8
0
 62
     0
 10
221.507
 20
107.594
 30
0.0
 11
221.507
 21
101.794
 31
0.0
  0
LINE
  8
0
 62
     0
 10
221.507
 20
101.794
 30
0.0
 11
220.707
 21
101.794
 31
0.0
  0
LINE
  8
0
 62
     0
 10
220.707
 20
101.794
 30
0.0
 11
220.707
 21
98.6938
 31
0.0
  0
LINE
  8
0
 62
     0
 10
220.707
 20
98.6938
 30
0.0
 11
221.507
 21
98.6938
 31
0.0
  0
LINE
  8
0
 62
     0
 10
221.507
 20
98.6938
 30
0.0
 11
221.507
 21
97.6947
 31
0.0
  0
LINE
  8
0
 62
     0
 10
221.507
 20
97.6947
 30
0.0
 11
235.507
 21
97.6947
 31
0.0
  0
LINE
  8
0
 62
     0
 10
235.507
 20
97.6947
 30
0.0
 11
235.507
 21
98.6938
 31
0.0
  0
LINE
  8
0
 62
     0
 10
235.507
 20
98.6938
 30
0.0
 11
236.306
 21
98.6938
 31
0.0
  0
LINE
  8
0
 62
     0
 10
236.306
 20
98.6938
 30
0.0
 11
236.306
 21
101.794
 31
0.0
  0
LINE
  8
0
 62
     0
 10
236.306
 20
101.794
 30
0.0
 11
235.507
 21
101.794
 31
0.0
  0
LINE
  8
0
 62
     0
 10
235.507
 20
101.794
 30
0.0
 11
235.507
 21
107.594
 31
0.0
  0
LINE
  8
0
 62
     0
 10
235.507
 20
107.594
 30
0.0
 11
236.306
 21
107.594
 31
0.0
  0
LINE
  8
0
 62
     0
 10
236.306
 20
107.594
 30
0.0
 11
236.306
 21
110.694
 31
0.0
  0
LINE
  8
0
 62
     0
 10
236.306
 20
110.694
 30
0.0
 11
235.507
 21
110.694
 31
0.0
  0
LINE
  8
0
 62
     0
 10
235.507
 20
110.694
 30
0.0
 11
235.507
 21
111.694
 31
0.0
  0
LINE
  8
0
 62
     0
 10
235.507
 20
111.694
 30
0.0
 11
221.507
 21
111.694
 31
0.0
  0
LINE
  8
0
 62
     0
 10
240.556
 20
111.694
 30
0.0
 11
240.556
 21
110.694
 31
0.0
  0
LINE
  8
0
 62
     0
 10
240.556
 20
110.694
 30
0.0
 11
239.757
 21
110.694
 31
0.0
  0
LINE
  8
0
 62
     0
 10
239.757
 20
110.694
 30
0.0
 11
239.757
 21
107.594
 31
0.0
  0
LINE
  8
0
 62
     0
 10
239.757
 20
107.594
 30
0.0
 11
240.556
 21
107.594
 31
0.0
  0
LINE
  8
0
 62
     0
 10
240.556
 20
107.594
 30
0.0
 11
240.556
 21
101.794
 31
0.0
  0
LINE
  8
0
 62
     0
 10
240.556
 20
101.794
 30
0.0
 11
239.757
 21
101.794
 31
0.0
  0
LINE
  8
0
 62
     0
 10
239.757
 20
101.794
 30
0.0
 11
239.757
 21
98.6938
 31
0.0
  0
LINE
  8
0
 62
     0
 10
239.757
 20
98.6938
 30
0.0
 11
240.556
 21
98.6938
 31
0.0
  0
LINE
  8
0
 62
     0
 10
240.556
 20
98.6938
 30
0.0
 11
240.556
 21
97.6947
 31
0.0
  0
LINE
  8
0
 62
     0
 10
240.556
 20
97.6947
 30
0.0
 11
254.557
 21
97.6947
 31
0.0
  0
LINE
  8
0
 62
     0
 10
254.557
 20
97.6947
 30
0.0
 11
254.557
 21
98.6938
 31
0.0
  0
LINE
  8
0
 62
     0
 10
254.557
 20
98.6938
 30
0.0
 11
255.356
 21
98.6938
 31
0.0
  0
LINE
  8
0
 62
     0
 10
255.356
 20
98.6938
 30
0.0
 11
255.356
 21
101.794
 31
0.0
  0
LINE
  8
0
 62
     0
 10
255.356
 20
101.794
 30
0.0
 11
254.557
 21
101.794
 31
0.0
  0
LINE
  8
0
 62
     0
 10
254.557
 20
101.794
 30
0.0
 11
254.557
 21
107.594
 31
0.0
  0
LINE
  8
0
 62
     0
 10
254.557
 20
107.594
 30
0.0
 11
255.356
 21
107.594
 31
0.0
  0
LINE
  8
0
 62
     0
 10
255.356
 20
107.594
 30
0.0
 11
255.356
 21
110.694
 31
0.0
  0
LINE
  8
0
 62
     0
 10
255.356
 20
110.694
 30
0.0
 11
254.557
 21
110.694
 31
0.0
  0
LINE
  8
0
 62
     0
 10
254.557
 20
110.694
 30
0.0
 11
254.557
 21
111.694
 31
0.0
  0
LINE
  8
0
 62
     0
 10
254.557
 20
111.694
 30
0.0
 11
240.556
 21
111.694
 31
0.0
  0
LINE
  8
0
 62
     0
 10
259.606
 20
111.694
 30
0.0
 11
259.606
 21
110.694
 31
0.0
  0
LINE
  8
0
 62
     0
 10
259.606
 20
110.694
 30
0.0
 11
258.807
 21
110.694
 31
0.0
  0
LINE
  8
0
 62
     0
 10
258.807
 20
110.694
 30
0.0
 11
258.807
 21
107.594
 31
0.0
  0
LINE
  8
0
 62
     0
 10
258.807
 20
107.594
 30
0.0
 11
259.606
 21
107.594
 31
0.0
  0
LINE
  8
0
 62
     0
 10
259.606
 20
107.594
 30
0.0
 11
259.606
 21
101.794
 31
0.0
  0
LINE
  8
0
 62
     0
 10
259.606
 20
101.794
 30
0.0
 11
258.807
 21
101.794
 31
0.0
  0
LINE
  8
0
 62
     0
 10
258.807
 20
101.794
 30
0.0
 11
258.807
 21
98.6938
 31
0.0
  0
LINE
  8
0
 62
     0
 10
258.807
 20
98.6938
 30
0.0
 11
259.606
 21
98.6938
 31
0.0
  0
LINE
  8
0
 62
     0
 10
259.606
 20
98.6938
 30
0.0
 11
259.606
 21
97.6947
 31
0.0
  0
LINE
  8
0
 62
     0
 10
259.606
 20
97.6947
 30
0.0
 11
273.607
 21
97.6947
 31
0.0
  0
LINE
  8
0
 62
     0
 10
273.607
 20
97.6947
 30
0.0
 11
273.607
 21
98.6938
 31
0.0
  0
LINE
  8
0
 62
     0
 10
273.607
 20
98.6938
 30
0.0
 11
274.406
 21
98.6938
 31
0.0
  0
LINE
  8
0
 62
     0
 10
274.406
 20
98.6938
 30
0.0
 11
274.406
 21
101.794
 31
0.0
  0
LINE
  8
0
 62
     0
 10
274.406
 20
101.794
 30
0.0
 11
273.607
 21
101.794
 31
0.0
  0
LINE
  8
0
 62
     0
 10
273.607
 20
101.794
 30
0.0
 11
273.607
 21
107.594
 31
0.0
  0
LINE
  8
0
 62
     0
 10
273.607
 20
107.594
 30
0.0
 11
274.406
 21
107.594
 31
0.0
  0
LINE
  8
0
 62
     0
 10
274.406
 20
107.594
 30
0.0
 11
274.406
 21
110.694
 31
0.0
  0
LINE
  8
0
 62
     0
 10
274.406
 20
110.694
 30
0.0
 11
273.607
 21
110.694
 31
0.0
  0
LINE
  8
0
 62
     0
 10
273.607
 20
110.694
 30
0.0
 11
273.607
 21
111.694
 31
0.0
  0
LINE
  8
0
 62
     0
 10
273.607
 20
111.694
 30
0.0
 11
259.606
 21
111.694
 31
0.0
  0
ENDSEC
  0
EOF
